<svg width="162" height="162" viewBox="0 0 162 162" fill="none" xmlns="http://www.w3.org/2000/svg">
<circle cx="81" cy="81" r="81" fill="#F0F8FB"/>
<g filter="url(#filter0_d_1034_1177)">
<path d="M80.9091 44C86.4319 44 90.9091 48.4772 90.9091 54V71.8182H108.818C113.889 71.8182 118 75.929 118 81C118 86.071 113.889 90.1818 108.818 90.1818H90.9091V108C90.9091 113.523 86.4319 118 80.9091 118C75.3862 118 70.9091 113.523 70.9091 108V90.1818H53.1818C48.1108 90.1818 44 86.071 44 81C44 75.929 48.1108 71.8182 53.1818 71.8182H70.9091V54C70.9091 48.4772 75.3862 44 80.9091 44Z" fill="url(#paint0_linear_1034_1177)"/>
</g>
<defs>
<filter id="filter0_d_1034_1177" x="32" y="36" width="98" height="98" filterUnits="userSpaceOnUse" color-interpolation-filters="sRGB">
<feFlood flood-opacity="0" result="BackgroundImageFix"/>
<feColorMatrix in="SourceAlpha" type="matrix" values="0 0 0 0 0 0 0 0 0 0 0 0 0 0 0 0 0 0 127 0" result="hardAlpha"/>
<feMorphology radius="2" operator="dilate" in="SourceAlpha" result="effect1_dropShadow_1034_1177"/>
<feOffset dy="4"/>
<feGaussianBlur stdDeviation="5"/>
<feComposite in2="hardAlpha" operator="out"/>
<feColorMatrix type="matrix" values="0 0 0 0 0.156863 0 0 0 0 0.443137 0 0 0 0 0.913725 0 0 0 0.25 0"/>
<feBlend mode="normal" in2="BackgroundImageFix" result="effect1_dropShadow_1034_1177"/>
<feBlend mode="normal" in="SourceGraphic" in2="effect1_dropShadow_1034_1177" result="shape"/>
</filter>
<linearGradient id="paint0_linear_1034_1177" x1="56.95" y1="71.75" x2="104.932" y2="95.6424" gradientUnits="userSpaceOnUse">
<stop stop-color="#4AADEA"/>
<stop offset="0.0001" stop-color="#4AACEA"/>
<stop offset="1" stop-color="#2871E9"/>
</linearGradient>
</defs>
</svg>
