<svg width="50" height="50" viewBox="0 0 50 50" fill="none" xmlns="http://www.w3.org/2000/svg">
<circle cx="25" cy="25" r="25" fill="#62ACDA"/>
<path d="M20.9128 24.0218C22.7506 24.0218 24.4154 23.2926 25.6273 22.1076C26.8259 20.9356 27.5717 19.3079 27.5717 17.5109C27.5717 15.7139 26.8259 14.0862 25.6273 12.9142C24.4154 11.7292 22.7506 11 20.9128 11C19.0749 11 17.4102 11.7292 16.1983 12.9142C14.9997 14.0862 14.2539 15.7139 14.2539 17.5109C14.2539 19.3079 14.9997 20.9356 16.1983 22.1076C17.4102 23.2796 19.0749 24.0218 20.9128 24.0218Z" fill="white"/>
<path d="M39.3946 22.3166H36.1859V19.1133C36.1859 18.2324 35.4639 17.5117 34.5815 17.5117C33.6991 17.5117 32.9771 18.2324 32.9771 19.1133V22.3166H29.7684C28.886 22.3166 28.1641 23.0373 28.1641 23.9182C28.1641 24.7991 28.886 25.5198 29.7684 25.5198H32.9771V28.723C32.9771 29.6039 33.6991 30.3246 34.5815 30.3246C35.4639 30.3246 36.1859 29.6039 36.1859 28.723V25.5198H39.3946C40.277 25.5198 40.999 24.7991 40.999 23.9182C40.999 23.0373 40.277 22.3166 39.3946 22.3166Z" fill="white"/>
<path d="M11 34.0742C11 29.6667 14.573 26.0938 18.9804 26.0938H22.5523C26.9597 26.0938 30.5327 29.6667 30.5327 34.0742C30.5327 35.224 29.6006 36.1561 28.4509 36.1561H13.0819C11.9321 36.1561 11 35.224 11 34.0742Z" fill="white"/>
</svg>
