<svg width="177" height="177" viewBox="0 0 177 177" fill="none" xmlns="http://www.w3.org/2000/svg">
<g clip-path="url(#clip0_1044_822)">
<path d="M88.5 177C137.377 177 177 137.377 177 88.5C177 39.6228 137.377 0 88.5 0C39.6228 0 0 39.6228 0 88.5C0 137.377 39.6228 177 88.5 177Z" fill="#EFF8FD"/>
<path d="M32.2908 45.1758H152.284V131.583C152.284 137.824 147.261 142.844 141.024 142.844H32.2908C30.1214 142.844 28.3633 141.086 28.3633 138.916V49.1033C28.3633 46.9339 30.1214 45.1758 32.2908 45.1758Z" fill="#64D3FF"/>
<path d="M143.055 34.1071C148.319 35.0502 152.284 39.6462 152.284 45.183V131.59C152.284 125.875 148.043 121.162 142.525 120.416C141.661 120.298 141.031 119.551 141.031 118.688V35.8554C141.031 34.7745 141.994 33.9107 143.054 34.1071H143.055Z" fill="#42C1F4"/>
<path d="M34.5586 51.8572C34.5586 51.0889 35.1913 50.4551 35.9607 50.4551H54.6648C55.4331 50.4551 56.0669 51.0878 56.0669 51.8572C56.0669 52.6266 55.4342 53.2593 54.6648 53.2593H35.9607C35.1924 53.2593 34.5586 52.6407 34.5586 51.8572Z" fill="white"/>
<path d="M43.0729 53.252H35.9668C35.18 53.252 34.5625 52.6345 34.5625 51.8477C34.5625 51.0609 35.18 50.4434 35.9668 50.4434H43.0729C42.3144 50.4434 41.6686 51.0891 41.6686 51.8477C41.6686 52.6062 42.3144 53.252 43.0729 53.252Z" fill="#EFF8FD"/>
<path d="M48.8002 58.6287C48.8002 59.4122 48.1675 60.0308 47.398 60.0308H35.9607C35.1924 60.0308 34.5586 59.4122 34.5586 58.6287C34.5586 57.8451 35.1913 57.2266 35.9607 57.2266H47.398C48.1664 57.2266 48.8002 57.8603 48.8002 58.6287Z" fill="white"/>
<path d="M57.8424 124.415C57.1446 124.415 56.5781 123.849 56.5781 123.151V69.4743C56.5781 68.7765 57.1446 68.21 57.8424 68.21C58.5402 68.21 59.1067 68.7765 59.1067 69.4743V123.151C59.1067 123.849 58.5402 124.415 57.8424 124.415Z" fill="white"/>
<path d="M124.171 124.415C123.473 124.415 122.906 123.849 122.906 123.151V69.4743C122.906 68.7765 123.473 68.21 124.171 68.21C124.868 68.21 125.435 68.7765 125.435 69.4743V123.151C125.435 123.849 124.868 124.415 124.171 124.415Z" fill="white"/>
<path d="M129.051 118.887H52.9596C52.2618 118.887 51.6953 118.321 51.6953 117.623C51.6953 116.925 52.2618 116.358 52.9596 116.358H129.051C129.749 116.358 130.315 116.925 130.315 117.623C130.315 118.321 129.749 118.887 129.051 118.887Z" fill="white"/>
<path d="M129.051 76.2669H52.9596C52.2618 76.2669 51.6953 75.7004 51.6953 75.0026C51.6953 74.3048 52.2618 73.7383 52.9596 73.7383H129.051C129.749 73.7383 130.315 74.3048 130.315 75.0026C130.315 75.7004 129.749 76.2669 129.051 76.2669Z" fill="white"/>
<path d="M76.5729 88.1198C75.8751 88.1198 75.3086 87.5533 75.3086 86.8555V75.0026C75.3086 74.3048 75.8751 73.7383 76.5729 73.7383C77.2707 73.7383 77.8372 74.3048 77.8372 75.0026V86.8555C77.8372 87.5533 77.2707 88.1198 76.5729 88.1198Z" fill="white"/>
<path d="M76.5729 118.887C75.8751 118.887 75.3086 117.941 75.3086 116.774V102.3C75.3086 101.134 75.8751 100.188 76.5729 100.188C77.2707 100.188 77.8372 101.134 77.8372 102.3V116.774C77.8372 117.941 77.2707 118.887 76.5729 118.887Z" fill="white"/>
<path d="M102.366 88.0587C101.668 88.0587 101.102 87.4922 101.102 86.7944V75.0641C101.102 74.3663 101.668 73.7998 102.366 73.7998C103.064 73.7998 103.63 74.3663 103.63 75.0641V86.7944C103.63 87.4922 103.064 88.0587 102.366 88.0587Z" fill="white"/>
<path d="M102.366 118.887C101.668 118.887 101.102 118.48 101.102 117.979V100.064C101.102 99.5622 101.668 99.1553 102.366 99.1553C103.064 99.1553 103.63 99.5622 103.63 100.064V117.979C103.63 118.48 103.064 118.887 102.366 118.887Z" fill="white"/>
<path d="M123.264 101.684H68.237C67.5392 101.684 66.9727 101.117 66.9727 100.42C66.9727 99.7218 67.5392 99.1553 68.237 99.1553H123.264C123.962 99.1553 124.528 99.7218 124.528 100.42C124.528 101.117 123.962 101.684 123.264 101.684Z" fill="white"/>
<path d="M114.135 101.684H59.1081C58.4102 101.684 57.8438 101.117 57.8438 100.42C57.8438 99.7218 58.4102 99.1553 59.1081 99.1553H114.135C114.833 99.1553 115.399 99.7218 115.399 100.42C115.399 101.117 114.833 101.684 114.135 101.684Z" fill="white"/>
<path d="M124.575 88.5003H76.4155C75.8045 88.5003 75.3086 87.9338 75.3086 87.236C75.3086 86.5382 75.8045 85.9717 76.4155 85.9717H124.575C125.186 85.9717 125.682 86.5382 125.682 87.236C125.682 87.9338 125.186 88.5003 124.575 88.5003Z" fill="white"/>
<path d="M43.0729 60.0322H35.9668C35.18 60.0322 34.5625 59.4147 34.5625 58.6279C34.5625 57.8411 35.18 57.2236 35.9668 57.2236H43.0729C42.3144 57.2236 41.6686 57.8693 41.6686 58.6279C41.6686 59.3865 42.3144 60.0322 43.0729 60.0322Z" fill="#EFF8FD"/>
<path d="M149.21 47.6384C159.895 47.6384 168.556 38.9766 168.556 28.2918C168.556 17.607 159.895 8.94531 149.21 8.94531C138.525 8.94531 129.863 17.607 129.863 28.2918C129.863 38.9766 138.525 47.6384 149.21 47.6384Z" fill="#7CD194"/>
<path d="M150.935 21.8574V26.6954H155.647V29.8893H150.935V34.7272H147.457V29.8893H142.777V26.6954H147.457V21.8574H150.935Z" fill="white"/>
<g opacity="0.47">
<path d="M76.6523 113.433L81.6173 100.458L79.5478 99.666L76.6523 107.232V113.433Z" fill="white"/>
<path d="M86.0463 101.134L83.9766 100.342L77.6367 116.91L79.7064 117.701L86.0463 101.134Z" fill="white"/>
<path d="M90.9486 101.134L88.8789 100.342L82.5391 116.91L84.6088 117.701L90.9486 101.134Z" fill="white"/>
<path d="M95.9017 100.46L93.832 99.668L87.4922 116.236L89.5619 117.028L95.9017 100.46Z" fill="white"/>
<path d="M100.331 101.134L98.2617 100.342L91.9219 116.91L93.9916 117.702L100.331 101.134Z" fill="white"/>
<path d="M102.772 101.385L96.832 116.909L98.9016 117.7L102.772 107.586V101.385Z" fill="white"/>
</g>
<path d="M101.1 115.707V116.358H100.449" stroke="#FCC922" stroke-width="34" stroke-miterlimit="10"/>
<path d="M99.1576 116.358H79.1328" stroke="#FCC922" stroke-width="34" stroke-miterlimit="10"/>
<path d="M78.4871 116.358H77.8359V115.707" stroke="#FCC922" stroke-width="34" stroke-miterlimit="10"/>
<path d="M77.8359 114.491V102.942" stroke="#FCC922" stroke-width="34" stroke-miterlimit="10"/>
<path d="M77.8359 102.335V101.684H78.4871" stroke="#FCC922" stroke-width="34" stroke-miterlimit="10"/>
<path d="M79.7812 101.684H99.806" stroke="#FCC922" stroke-width="34" stroke-miterlimit="10"/>
<path d="M100.449 101.684H101.1V102.335" stroke="#FCC922" stroke-width="34" stroke-miterlimit="10"/>
<path d="M101.102 103.552V115.1" stroke="#FCC922" stroke-width="34" stroke-miterlimit="10"/>
</g>
<defs>
<clipPath id="clip0_1044_822">
<rect width="177" height="177" fill="white"/>
</clipPath>
</defs>
</svg>
