<svg width="25" height="25" viewBox="0 0 25 25" fill="none" xmlns="http://www.w3.org/2000/svg">
<path d="M8.426 12.2085C8.06187 11.3184 7.87637 10.3658 7.88 9.40467C7.88 7.91486 8.32338 6.45851 9.15409 5.21978C9.98479 3.98105 11.1655 3.01558 12.5469 2.44546C13.9283 1.87533 15.4484 1.72616 16.9149 2.01681C18.3814 2.30746 19.7284 3.02487 20.7857 4.07832C21.843 5.13177 22.563 6.47395 22.8547 7.93513C23.1464 9.39631 22.9967 10.9109 22.4245 12.2873C21.8523 13.6637 20.8833 14.8401 19.6401 15.6678C18.3969 16.4955 16.9352 16.9373 15.44 16.9373C14.4753 16.9409 13.5193 16.7561 12.626 16.3932L11.24 17.7742H8.72V20.2851H6.2V22.7959H2V18.6112L8.426 12.2085Z" stroke="#7B8190" stroke-width="2.5" stroke-linecap="round" stroke-linejoin="round"/>
<path d="M17.5 8.84655C18.3284 8.84655 19 8.17741 19 7.35198C19 6.52656 18.3284 5.85742 17.5 5.85742C16.6716 5.85742 16 6.52656 16 7.35198C16 8.17741 16.6716 8.84655 17.5 8.84655Z" fill="#7B8190"/>
</svg>
