<?xml version="1.0" encoding="utf-8"?>
<!-- Generator: Adobe Illustrator 26.0.1, SVG Export Plug-In . SVG Version: 6.00 Build 0)  -->
<svg version="1.1" id="Layer_1" xmlns="http://www.w3.org/2000/svg" xmlns:xlink="http://www.w3.org/1999/xlink"
viewBox="0 0 20 20" >
<path fill="#7b8190" d="M0.8,0C0.4,0,0,0.4,0,0.8c0,0,0,8.6,0,12.9c0,0.4,0.4,0.8,0.8,0.8c1.3,0,4,0,4,0v-2.4c0-0.4,0.4-0.8,0.8-0.8h0.8
	c0.4,0,0.8,0.4,0.8,0.8c0,0.8,0,1.6,0,2.4c0,0,2.7,0,4,0c0.4,0,0.8-0.4,0.8-0.8c0-4.3,0-12.9,0-12.9c0-0.4-0.4-0.8-0.8-0.8H0.8z
	 M2.4,2.4h2.4V4H2.4V2.4z M7.2,2.4h2.4V4H7.2V2.4z M2.4,7.2h2.4v1.6H2.4V7.2z M7.2,7.2h2.4v1.6H7.2V7.2z"/>
</svg>
