<svg width="20" height="20" viewBox="4 0 20 20" fill="none" xmlns="http://www.w3.org/2000/svg">
<path d="M4.80555 3C4.35928 3 4 3.35927 4 3.80555C4 3.80555 4 12.3982 4 16.6944C4 17.0972 4.40278 17.5 4.80555 17.5C6.14815 17.5 8.83333 17.5 8.83333 17.5V15.0833C8.83333 14.6371 9.25914 14.2778 9.63888 14.2778H10.4444C10.8242 14.2778 11.25 14.6371 11.25 15.0833C11.25 15.8889 11.25 16.6944 11.25 17.5C11.25 17.5 13.9352 17.5 15.2778 17.5C15.6805 17.5 16.0833 17.0972 16.0833 16.6944C16.0833 12.3982 16.0833 3.80555 16.0833 3.80555C16.0833 3.35927 15.724 3 15.2778 3H4.80555ZM6.41666 5.41665H8.83333V7.02777H6.41666V5.41665ZM11.25 5.41665H13.6667V7.02777H11.25V5.41665ZM6.41666 10.25H8.83333V11.8611H6.41666V10.25ZM11.25 10.25H13.6667V11.8611H11.25V10.25Z" fill="#7b8190"/>
</svg>
