<svg width="14" height="16" viewBox="0 0 14 16" fill="none" xmlns="http://www.w3.org/2000/svg">
<g clip-path="url(#clip0_623_299)">
<path d="M12.03 16H7.25V12.83C7.25 12.83 7.25 12.78 7.17 12.78H6.39L6.33 12.84V16H1.55C1.14366 15.9851 0.757998 15.817 0.47048 15.5295C0.182961 15.242 0.0148809 14.8563 3.29735e-10 14.45V1.56C-8.46481e-06 1.14799 0.162975 0.752705 0.453372 0.460434C0.74377 0.168163 1.138 0.0026411 1.55 0L12.03 0C12.442 0.0026411 12.8362 0.168163 13.1266 0.460434C13.417 0.752705 13.58 1.14799 13.58 1.56V14.45C13.5651 14.8563 13.397 15.242 13.1095 15.5295C12.822 15.817 12.4363 15.9851 12.03 16ZM1.55 1.5C1.55 1.5 1.55 1.5 1.55 1.56V14.45L1.63 14.5H4.83V12.83C4.84024 12.4204 5.00819 12.0306 5.29882 11.7418C5.58946 11.453 5.98036 11.2876 6.39 11.28H7.19C7.59964 11.2876 7.99054 11.453 8.28117 11.7418C8.57181 12.0306 8.73976 12.4204 8.75 12.83V14.5H12.03C12.03 14.5 12.08 14.45 12.08 14.42V1.56L1.55 1.5Z" fill="#7b8190"/>
<path d="M6.07992 5.27992H2.66992V2.66992H6.07992V5.27992ZM3.66992 4.27992H5.07992V3.66992H3.66992V4.27992Z" fill="#7b8190"/>
<path d="M10.91 5.27992H7.5V2.66992H10.91V5.27992ZM8.49 4.27992H9.91V3.66992H8.5L8.49 4.27992Z" fill="#7b8190"/>
<path d="M6.07992 10.11H2.66992V7.5H6.07992V10.11ZM3.66992 9.11H5.07992V8.5H3.66992V9.11Z" fill="#7b8190"/>
<path d="M10.91 10.11H7.5V7.5H10.91V10.11ZM8.49 9.11H9.91V8.5H8.5L8.49 9.11Z" fill="#7b8190"/>
</g>
<defs>
<clipPath id="clip0_623_299">
<rect width="13.58" height="16" fill="white"/>
</clipPath>
</defs>
</svg>
