<svg width="29" height="29" viewBox="0 0 29 29" fill="none" xmlns="http://www.w3.org/2000/svg">
<path d="M18.1263 2.41699H7.2513C7.13047 2.41699 7.00964 2.41699 6.8888 2.53783C6.76797 2.53783 6.76797 2.65866 6.64714 2.65866C6.64714 2.65866 6.64714 2.65866 6.5263 2.77949C6.40547 2.77949 6.28464 2.90033 6.28464 2.90033C6.28464 2.90033 6.28464 2.90033 6.28464 3.02116C6.1638 3.14199 6.04297 3.26283 6.04297 3.38366C6.04297 3.50449 6.04297 3.62533 6.04297 3.62533V21.5087C6.04297 21.992 6.28464 22.4753 6.76797 22.5962L14.743 25.8587C14.9846 25.9795 15.3471 25.9795 15.7096 25.9795C16.193 25.9795 16.6763 25.8587 17.0388 25.617C17.7638 25.1337 18.1263 24.4087 18.1263 23.5628V22.9587C20.1805 22.9587 21.7513 21.3878 21.7513 19.3337V6.04199C21.7513 3.98783 20.1805 2.41699 18.1263 2.41699ZM15.7096 21.7503V23.6837L8.45964 20.7837V5.43783L14.2596 7.73366C15.2263 8.09616 15.7096 8.94199 15.7096 10.0295V21.7503ZM19.3346 19.3337C19.3346 20.0587 18.8513 20.542 18.1263 20.542V10.0295C18.1263 8.09616 16.918 6.28366 15.1055 5.55866L13.4138 4.83366H18.1263C18.8513 4.83366 19.3346 5.31699 19.3346 6.04199V19.3337Z" fill="#7B8190"/>
<path d="M13.2943 16.9167C13.9616 16.9167 14.5026 16.3757 14.5026 15.7083C14.5026 15.041 13.9616 14.5 13.2943 14.5C12.6269 14.5 12.0859 15.041 12.0859 15.7083C12.0859 16.3757 12.6269 16.9167 13.2943 16.9167Z" fill="#7B8190"/>
</svg>
