<svg width="27" height="22" viewBox="0 0 27 22" fill="none" xmlns="http://www.w3.org/2000/svg">
<g clip-path="url(#clip0_1044_421)">
<path d="M13.4934 0.374123C13.3955 0.375418 13.2994 0.39958 13.2126 0.444666L1.33761 6.67201C1.2363 6.72465 1.15142 6.80398 1.09218 6.90133C1.03294 6.99869 1.00162 7.11035 1.00162 7.2242C1.00162 7.33804 1.03294 7.44971 1.09218 7.54706C1.15142 7.64442 1.2363 7.72373 1.33761 7.77639L13.2126 14.0037C13.3022 14.0506 13.4019 14.0751 13.5031 14.0751C13.6044 14.0751 13.7041 14.0506 13.7937 14.0037L25.6686 7.77639C25.77 7.72373 25.8548 7.64442 25.9141 7.54706C25.9733 7.44971 26.0046 7.33804 26.0046 7.2242C26.0046 7.11035 25.9733 6.99869 25.9141 6.90133C25.8548 6.80398 25.77 6.72465 25.6686 6.67201L13.7937 0.444666C13.7011 0.396525 13.5978 0.372263 13.4934 0.374123ZM13.5031 1.70229L24.0353 7.2242L13.5031 12.7485L2.9709 7.2242L13.5031 1.70229ZM1.61837 10.333C1.47748 10.3328 1.34063 10.3799 1.23003 10.4669C1.11943 10.5539 1.04156 10.6755 1.00905 10.8121C0.976545 10.9487 0.991309 11.0922 1.05095 11.2194C1.11059 11.3466 1.2116 11.45 1.33761 11.5128L13.2126 17.7402C13.3022 17.787 13.4019 17.8114 13.5031 17.8114C13.6044 17.8114 13.7041 17.787 13.7937 17.7402L25.6686 11.5128C25.7415 11.4748 25.806 11.4229 25.8586 11.36C25.9113 11.2971 25.951 11.2245 25.9755 11.1464C26 11.0682 26.0088 10.986 26.0013 10.9045C25.994 10.8229 25.9705 10.7436 25.9323 10.6711C25.8941 10.5986 25.8421 10.5343 25.779 10.4818C25.7158 10.4294 25.643 10.3898 25.5646 10.3655C25.4861 10.3411 25.4036 10.3323 25.3218 10.3397C25.24 10.347 25.1605 10.3704 25.0876 10.4084L13.5031 16.4849L1.91866 10.4084C1.8265 10.3586 1.72323 10.3326 1.61837 10.333ZM1.61837 14.0694C1.47748 14.0692 1.34063 14.1163 1.23003 14.2033C1.11943 14.2903 1.04156 14.4119 1.00905 14.5485C0.976546 14.6852 0.991309 14.8286 1.05095 14.9558C1.11059 15.083 1.2116 15.1863 1.33761 15.2493L13.2126 21.4766C13.3022 21.5234 13.4019 21.5479 13.5031 21.5479C13.6044 21.5479 13.7041 21.5234 13.7937 21.4766L25.6686 15.2493C25.7415 15.2112 25.806 15.1593 25.8586 15.0963C25.9113 15.0336 25.951 14.961 25.9755 14.8828C26 14.8046 26.0088 14.7224 26.0013 14.6408C25.994 14.5593 25.9705 14.4801 25.9323 14.4075C25.8941 14.335 25.8421 14.2707 25.779 14.2183C25.7158 14.1658 25.643 14.1263 25.5646 14.1019C25.4861 14.0775 25.4036 14.0687 25.3218 14.0761C25.24 14.0834 25.1605 14.1068 25.0876 14.1448L13.5031 20.2213L1.91866 14.1448C1.8265 14.095 1.72323 14.069 1.61837 14.0694Z" fill="#7B8190" stroke="#7B8190"/>
</g>
<defs>
<clipPath id="clip0_1044_421">
<rect width="25.0124" height="21.1738" fill="white" transform="translate(0.992188 0.374023)"/>
</clipPath>
</defs>
</svg>
