<svg width="24" height="24" viewBox="0 0 24 24" fill="none" xmlns="http://www.w3.org/2000/svg">
<path d="M2.80156 19.0998C3.20156 19.6998 3.90156 19.9998 4.50156 19.9998C4.80156 19.9998 5.00156 19.9998 5.30156 19.7998L20.3016 13.9998C21.2016 13.6998 21.7016 12.8998 21.7016 11.9998C21.7016 11.0998 21.2016 10.2998 20.3016 9.99984L5.30156 4.19984C4.40156 3.79984 3.40156 4.09984 2.80156 4.89984C2.20156 5.59984 2.20156 6.69984 2.80156 7.49984L6.00156 11.9998L2.80156 16.4998C2.20156 17.2998 2.20156 18.3998 2.80156 19.0998ZM4.40156 17.6998L7.80156 12.9998C7.90156 12.9998 8.00156 12.9998 8.00156 12.9998H14.0016C14.6016 12.9998 15.0016 12.5998 15.0016 11.9998C15.0016 11.3998 14.6016 10.9998 14.0016 10.9998H8.00156C7.90156 10.9998 7.80156 10.9998 7.80156 10.9998L4.40156 6.29984C4.40156 6.29984 4.30156 6.19984 4.40156 6.09984C4.40156 5.99984 4.50156 5.99984 4.50156 5.99984H4.60156L19.5016 11.7998C19.5016 11.7998 19.6016 11.7998 19.6016 11.9998C19.6016 12.1998 19.5016 12.1998 19.5016 12.1998L4.60156 17.9998C4.60156 17.9998 4.50156 18.0998 4.40156 17.8998C4.30156 17.7998 4.40156 17.6998 4.40156 17.6998Z" fill="#4A5056"/>
</svg>
