<svg width="280" height="280" viewBox="0 0 280 280" fill="none" xmlns="http://www.w3.org/2000/svg">
<path d="M185 280H15C13.6739 280 12.4022 279.473 11.4645 278.536C10.5268 277.598 10 276.326 10 275V5C10 3.67392 10.5268 2.40214 11.4645 1.46446C12.4022 0.52678 13.6739 0 15 0H185C186.326 0 187.598 0.52678 188.536 1.46446C189.473 2.40214 190 3.67392 190 5V275C190 276.326 189.473 277.598 188.536 278.536C187.598 279.473 186.326 280 185 280ZM20 270H180V10H20V270Z" fill="#414042"/>
<path d="M195 10H5C3.67392 10 2.40216 9.47322 1.46448 8.53554C0.526796 7.59786 0 6.32608 0 5C0 3.67392 0.526796 2.40214 1.46448 1.46446C2.40216 0.52678 3.67392 0 5 0H195C196.326 0 197.598 0.52678 198.536 1.46446C199.473 2.40214 200 3.67392 200 5C200 6.32608 199.473 7.59786 198.536 8.53554C197.598 9.47322 196.326 10 195 10V10Z" fill="#414042"/>
<path d="M265 280H185C183.674 280 182.402 279.473 181.464 278.536C180.527 277.598 180 276.326 180 275V155C180 153.674 180.527 152.402 181.464 151.464C182.402 150.527 183.674 150 185 150H265C266.326 150 267.598 150.527 268.536 151.464C269.473 152.402 270 153.674 270 155V275C270 276.326 269.473 277.598 268.536 278.536C267.598 279.473 266.326 280 265 280ZM190 270H260V160H190V270Z" fill="#414042"/>
<path d="M275 160H185C183.674 160 182.402 159.473 181.464 158.536C180.527 157.598 180 156.326 180 155C180 153.674 180.527 152.402 181.464 151.464C182.402 150.527 183.674 150 185 150H275C276.326 150 277.598 150.527 278.536 151.464C279.473 152.402 280 153.674 280 155C280 156.326 279.473 157.598 278.536 158.536C277.598 159.473 276.326 160 275 160Z" fill="#414042"/>
<path d="M50 70H30C28.6739 70 27.4022 69.4732 26.4645 68.5355C25.5268 67.5979 25 66.3261 25 65V25C25 23.6739 25.5268 22.4021 26.4645 21.4645C27.4022 20.5268 28.6739 20 30 20H50C51.3261 20 52.5978 20.5268 53.5355 21.4645C54.4732 22.4021 55 23.6739 55 25V65C55 66.3261 54.4732 67.5979 53.5355 68.5355C52.5978 69.4732 51.3261 70 50 70V70ZM35 60H45V30H35V60Z" fill="#414042"/>
<path d="M90 70H70C68.6739 70 67.4022 69.4732 66.4645 68.5355C65.5268 67.5979 65 66.3261 65 65V25C65 23.6739 65.5268 22.4021 66.4645 21.4645C67.4022 20.5268 68.6739 20 70 20H90C91.3261 20 92.5978 20.5268 93.5355 21.4645C94.4732 22.4021 95 23.6739 95 25V65C95 66.3261 94.4732 67.5979 93.5355 68.5355C92.5978 69.4732 91.3261 70 90 70V70ZM75 60H85V30H75V60Z" fill="#414042"/>
<path d="M130 70H110C108.674 70 107.402 69.4732 106.464 68.5355C105.527 67.5979 105 66.3261 105 65V25C105 23.6739 105.527 22.4021 106.464 21.4645C107.402 20.5268 108.674 20 110 20H130C131.326 20 132.598 20.5268 133.536 21.4645C134.473 22.4021 135 23.6739 135 25V65C135 66.3261 134.473 67.5979 133.536 68.5355C132.598 69.4732 131.326 70 130 70V70ZM115 60H125V30H115V60Z" fill="#414042"/>
<path d="M170 70H150C148.674 70 147.402 69.4732 146.464 68.5355C145.527 67.5979 145 66.3261 145 65V25C145 23.6739 145.527 22.4021 146.464 21.4645C147.402 20.5268 148.674 20 150 20H170C171.326 20 172.598 20.5268 173.536 21.4645C174.473 22.4021 175 23.6739 175 25V65C175 66.3261 174.473 67.5979 173.536 68.5355C172.598 69.4732 171.326 70 170 70V70ZM155 60H165V30H155V60Z" fill="#414042"/>
<path d="M50 130H30C28.6739 130 27.4022 129.473 26.4645 128.536C25.5268 127.598 25 126.326 25 125V85C25 83.6739 25.5268 82.4021 26.4645 81.4645C27.4022 80.5268 28.6739 80 30 80H50C51.3261 80 52.5978 80.5268 53.5355 81.4645C54.4732 82.4021 55 83.6739 55 85V125C55 126.326 54.4732 127.598 53.5355 128.536C52.5978 129.473 51.3261 130 50 130ZM35 120H45V90H35V120Z" fill="#414042"/>
<path d="M90 130H70C68.6739 130 67.4022 129.473 66.4645 128.536C65.5268 127.598 65 126.326 65 125V85C65 83.6739 65.5268 82.4021 66.4645 81.4645C67.4022 80.5268 68.6739 80 70 80H90C91.3261 80 92.5978 80.5268 93.5355 81.4645C94.4732 82.4021 95 83.6739 95 85V125C95 126.326 94.4732 127.598 93.5355 128.536C92.5978 129.473 91.3261 130 90 130ZM75 120H85V90H75V120Z" fill="#414042"/>
<path d="M130 130H110C108.674 130 107.402 129.473 106.464 128.536C105.527 127.598 105 126.326 105 125V85C105 83.6739 105.527 82.4021 106.464 81.4645C107.402 80.5268 108.674 80 110 80H130C131.326 80 132.598 80.5268 133.536 81.4645C134.473 82.4021 135 83.6739 135 85V125C135 126.326 134.473 127.598 133.536 128.536C132.598 129.473 131.326 130 130 130ZM115 120H125V90H115V120Z" fill="#414042"/>
<path d="M170 130H150C148.674 130 147.402 129.473 146.464 128.536C145.527 127.598 145 126.326 145 125V85C145 83.6739 145.527 82.4021 146.464 81.4645C147.402 80.5268 148.674 80 150 80H170C171.326 80 172.598 80.5268 173.536 81.4645C174.473 82.4021 175 83.6739 175 85V125C175 126.326 174.473 127.598 173.536 128.536C172.598 129.473 171.326 130 170 130ZM155 120H165V90H155V120Z" fill="#414042"/>
<path d="M50 190H30C28.6739 190 27.4022 189.473 26.4645 188.536C25.5268 187.598 25 186.326 25 185V145C25 143.674 25.5268 142.402 26.4645 141.464C27.4022 140.527 28.6739 140 30 140H50C51.3261 140 52.5978 140.527 53.5355 141.464C54.4732 142.402 55 143.674 55 145V185C55 186.326 54.4732 187.598 53.5355 188.536C52.5978 189.473 51.3261 190 50 190ZM35 180H45V150H35V180Z" fill="#414042"/>
<path d="M90 190H70C68.6739 190 67.4022 189.473 66.4645 188.536C65.5268 187.598 65 186.326 65 185V145C65 143.674 65.5268 142.402 66.4645 141.464C67.4022 140.527 68.6739 140 70 140H90C91.3261 140 92.5978 140.527 93.5355 141.464C94.4732 142.402 95 143.674 95 145V185C95 186.326 94.4732 187.598 93.5355 188.536C92.5978 189.473 91.3261 190 90 190ZM75 180H85V150H75V180Z" fill="#414042"/>
<path d="M130 190H110C108.674 190 107.402 189.473 106.464 188.536C105.527 187.598 105 186.326 105 185V145C105 143.674 105.527 142.402 106.464 141.464C107.402 140.527 108.674 140 110 140H130C131.326 140 132.598 140.527 133.536 141.464C134.473 142.402 135 143.674 135 145V185C135 186.326 134.473 187.598 133.536 188.536C132.598 189.473 131.326 190 130 190ZM115 180H125V150H115V180Z" fill="#414042"/>
<path d="M170 190H150C148.674 190 147.402 189.473 146.464 188.536C145.527 187.598 145 186.326 145 185V145C145 143.674 145.527 142.402 146.464 141.464C147.402 140.527 148.674 140 150 140H170C171.326 140 172.598 140.527 173.536 141.464C174.473 142.402 175 143.674 175 145V185C175 186.326 174.473 187.598 173.536 188.536C172.598 189.473 171.326 190 170 190ZM155 180H165V150H155V180Z" fill="#414042"/>
<path d="M50 250H30C28.6739 250 27.4022 249.473 26.4645 248.536C25.5268 247.598 25 246.326 25 245V205C25 203.674 25.5268 202.402 26.4645 201.464C27.4022 200.527 28.6739 200 30 200H50C51.3261 200 52.5978 200.527 53.5355 201.464C54.4732 202.402 55 203.674 55 205V245C55 246.326 54.4732 247.598 53.5355 248.536C52.5978 249.473 51.3261 250 50 250ZM35 240H45V210H35V240Z" fill="#414042"/>
<path d="M90 250H70C68.6739 250 67.4022 249.473 66.4645 248.536C65.5268 247.598 65 246.326 65 245V205C65 203.674 65.5268 202.402 66.4645 201.464C67.4022 200.527 68.6739 200 70 200H90C91.3261 200 92.5978 200.527 93.5355 201.464C94.4732 202.402 95 203.674 95 205V245C95 246.326 94.4732 247.598 93.5355 248.536C92.5978 249.473 91.3261 250 90 250ZM75 240H85V210H75V240Z" fill="#414042"/>
<path d="M160 280H110C108.674 280 107.402 279.473 106.464 278.536C105.527 277.598 105 276.326 105 275V205C105 203.674 105.527 202.402 106.464 201.464C107.402 200.527 108.674 200 110 200H160C161.326 200 162.598 200.527 163.536 201.464C164.473 202.402 165 203.674 165 205V275C165 276.326 164.473 277.598 163.536 278.536C162.598 279.473 161.326 280 160 280ZM115 270H155V210H115V270Z" fill="#414042"/>
<path d="M135 280C133.674 280 132.402 279.473 131.464 278.536C130.527 277.598 130 276.326 130 275V205C130 203.674 130.527 202.402 131.464 201.464C132.402 200.527 133.674 200 135 200C136.326 200 137.598 200.527 138.536 201.464C139.473 202.402 140 203.674 140 205V275C140 276.326 139.473 277.598 138.536 278.536C137.598 279.473 136.326 280 135 280Z" fill="#414042"/>
<path d="M245 200H205C203.674 200 202.402 199.473 201.464 198.536C200.527 197.598 200 196.326 200 195V175C200 173.674 200.527 172.402 201.464 171.464C202.402 170.527 203.674 170 205 170H245C246.326 170 247.598 170.527 248.536 171.464C249.473 172.402 250 173.674 250 175V195C250 196.326 249.473 197.598 248.536 198.536C247.598 199.473 246.326 200 245 200ZM210 190H240V180H210V190Z" fill="#414042"/>
<path d="M245 240H205C203.674 240 202.402 239.473 201.464 238.536C200.527 237.598 200 236.326 200 235V215C200 213.674 200.527 212.402 201.464 211.464C202.402 210.527 203.674 210 205 210H245C246.326 210 247.598 210.527 248.536 211.464C249.473 212.402 250 213.674 250 215V235C250 236.326 249.473 237.598 248.536 238.536C247.598 239.473 246.326 240 245 240ZM210 230H240V220H210V230Z" fill="#414042"/>
</svg>
