<svg width="38" height="38" viewBox="0 0 38 38" fill="none" xmlns="http://www.w3.org/2000/svg">
<path d="M19.0013 3.16602C15.8698 3.16602 12.8086 4.09462 10.2048 5.83441C7.601 7.5742 5.5716 10.047 4.37322 12.9402C3.17483 15.8334 2.86128 19.0169 3.47221 22.0883C4.08314 25.1596 5.59112 27.9809 7.80545 30.1952C10.0198 32.4095 12.841 33.9175 15.9124 34.5285C18.9837 35.1394 22.1673 34.8258 25.0605 33.6274C27.9536 32.4291 30.4265 30.3997 32.1662 27.7959C33.906 25.1921 34.8346 22.1309 34.8346 18.9993C34.8346 16.9201 34.4251 14.8612 33.6294 12.9402C32.8337 11.0192 31.6674 9.27375 30.1972 7.80349C28.7269 6.33323 26.9815 5.16696 25.0605 4.37126C23.1395 3.57556 21.0806 3.16602 19.0013 3.16602ZM24.0838 21.8335C24.2322 21.9807 24.35 22.1558 24.4304 22.3488C24.5108 22.5417 24.5522 22.7487 24.5522 22.9577C24.5522 23.1667 24.5108 23.3737 24.4304 23.5666C24.35 23.7595 24.2322 23.9347 24.0838 24.0819C23.9366 24.2303 23.7615 24.348 23.5686 24.4284C23.3756 24.5088 23.1687 24.5502 22.9596 24.5502C22.7506 24.5502 22.5437 24.5088 22.3507 24.4284C22.1578 24.348 21.9827 24.2303 21.8355 24.0819L19.0013 21.2318L16.1671 24.0819C16.02 24.2303 15.8448 24.348 15.6519 24.4284C15.4589 24.5088 15.252 24.5502 15.043 24.5502C14.834 24.5502 14.627 24.5088 14.4341 24.4284C14.2411 24.348 14.066 24.2303 13.9188 24.0819C13.7704 23.9347 13.6526 23.7595 13.5722 23.5666C13.4918 23.3737 13.4505 23.1667 13.4505 22.9577C13.4505 22.7487 13.4918 22.5417 13.5722 22.3488C13.6526 22.1558 13.7704 21.9807 13.9188 21.8335L16.7688 18.9993L13.9188 16.1652C13.6207 15.867 13.4532 15.4627 13.4532 15.041C13.4532 14.6194 13.6207 14.215 13.9188 13.9168C14.217 13.6187 14.6213 13.4512 15.043 13.4512C15.4646 13.4512 15.869 13.6187 16.1671 13.9168L19.0013 16.7668L21.8355 13.9168C22.1336 13.6187 22.538 13.4512 22.9596 13.4512C23.3813 13.4512 23.7857 13.6187 24.0838 13.9168C24.382 14.215 24.5495 14.6194 24.5495 15.041C24.5495 15.4627 24.382 15.867 24.0838 16.1652L21.2338 18.9993L24.0838 21.8335Z" fill="white"/>
</svg>
