<svg width="4096" height="2016" viewBox="0 0 4096 2016" fill="none" xmlns="http://www.w3.org/2000/svg">
<path opacity="0.39" d="M4241 158.031H4235.39V124.054H4226.16V89.2601L4215.55 90.8894V82.6997H4162.03V99.0887L4151.41 100.708V124.054H4142.18V158.031H4121.25V168.677H4113.42V176.04H4121.25V182.108H4113.42V189.471H4121.25V195.538H4113.42V202.901H4121.25V208.968H4113.42V216.355H4121.25V222.408H4113.42V229.781H4121.25V235.848H4113.42V243.211H4121.25V249.279H4113.42V256.642H4121.25V262.709H4113.42V270.082H4121.25V276.149H4113.42V283.512H4121.25V289.579H4113.42V296.942H4121.25V303.01H4114.33V297.784H4103.6V330.301H3975.77V220.605H3949.87V153.163H3949.47L3907.3 109.546H3896.95V74.9451H3896.71L3892.78 42.921H3892.71L3888.79 74.9451H3888.54V109.546H3878.19L3836.02 153.163H3835.62V220.605H3809.72V279.185H3689.98V87.2151H3670.89C3670.16 79.6007 3663.01 73.5962 3654.19 73.5962H3644.83V36.4767H3641.1V73.5962H3631.75C3622.92 73.5962 3615.78 79.6055 3615.04 87.2151H3595.95V212.546L3545.91 268.153V353.362H3459.05V241.461H3431.13V222.384H3431.5C3432.58 222.384 3433.44 221.606 3433.44 220.658C3433.44 219.711 3432.58 218.942 3431.5 218.942H3313.56C3312.48 218.942 3311.62 219.72 3311.62 220.658C3311.62 221.596 3312.48 222.384 3313.56 222.384H3313.92V241.461H3286V413.455H3135.65V274.22H3053.05V109.299L2931.34 24.9269V274.215H2848.74V178.332H2709.65V124.639H2692.25V178.332H2570.53V82.4627H2540.1V178.332H2492.28V40.2716H2348.82V232.024H2252.88V331.002H2099.53V159.008H2071.6V139.907H2071.96C2073.04 139.907 2073.91 139.153 2073.91 138.205C2073.91 137.258 2073.04 136.489 2071.96 136.489H2053.8V105.625H2038.37L2020.66 91.5614H2011.66L2009.18 46.3585L2009.12 46.3729L2008.62 46.3488L2006.13 91.5614H1997.13L1979.41 105.625H1963.99V136.489H1954.03C1952.94 136.489 1952.08 137.258 1952.08 138.205C1952.08 139.153 1952.94 139.907 1954.03 139.907H1954.4V159.008H1926.47V270.908H1839.61V185.699L1789.57 130.093V4.76207H1770.48C1770.33 3.06031 1769.79 1.47453 1769.05 0H1716.06C1715.32 1.47453 1714.79 3.05548 1714.63 4.76207H1695.56V196.727H1575.8V138.147H1549.91V70.7052H1549.5L1507.33 27.0878H1497V9.97856C1494.18 9.88187 1491.38 9.82389 1488.57 9.77555V27.0878H1478.22L1436.05 70.7052H1435.66V138.147H1409.75V247.843H1281.94V215.326H1271.21V220.552H1264.27V214.484H1272.11V207.112H1264.27V201.059H1272.11V193.686H1264.27V187.619H1272.11V180.256H1264.27V174.188H1272.11V166.825H1264.27V160.758H1272.11V153.385H1264.27V147.333H1272.11V139.946H1264.27V133.893H1272.11V126.52H1264.27V120.453H1272.11V113.09H1264.27V107.022H1272.11V99.6496H1264.27V93.5968H1272.11V86.2241H1264.27V75.5784H1243.34V41.6011H1234.12V18.2698L1223.5 16.6405V0.261084H1169.97V8.43637L1159.35 6.80707V41.6011H1150.13V75.5784H1126.75V86.2241H1120.75V93.5968H1126.75V99.6496H1120.75V107.022H1126.75V113.09H1120.75V120.453H1126.75V126.52H1120.75V133.893H1126.75V139.946H1120.75V147.333H1126.75V153.385H1120.75V160.758H1126.75V166.825H1120.75V174.188H1126.75V180.256H1120.75V187.619H1126.75V193.686H1120.75V201.059H1126.75V207.112H1120.75V214.484H1126.75V220.552H1120.75V225.13L1023.64 195.301H1021.61L944.362 219.029V132.728H925.767V117.189H869.996V105.533H842.483V117.189H829.222V132.631H810.612V277.251L682.028 275.467V241.92H660.69V221.32H469.124V186.705H461.072V221.32H453.029V168.3H444.987V221.32H428.51V241.92H407.173V291.426H343.959V176.446H316.959V257.894H316.751V153.502H290.442V133.491H290.708C291.839 133.491 292.749 132.674 292.749 131.693C292.749 130.711 291.839 129.895 290.708 129.895H290.442L243.366 91.9337V70.9035H234.371L231.876 23.4959L231.827 23.5056L231.324 23.4813L228.829 70.8985H219.824V91.9287H220.288L173.213 129.89H172.956C171.825 129.89 170.906 130.692 170.906 131.688C170.906 132.684 171.825 133.486 172.956 133.486H173.213V153.497H143.688V176.446H116.668V294.917L-61.1585 297.16L-61.9758 1234.77H-62V1978.19L4241 2016V158.031ZM848.015 377.036H826.973V358.549H848.015V377.036ZM848.015 351.307H826.973V332.819H848.015V351.307ZM848.015 325.577H826.973V307.076H848.015V325.577ZM848.015 299.833H826.973V281.332H848.015V299.833ZM848.015 274.104H826.973V255.617H848.015V274.104ZM848.015 248.36H826.973V229.873H848.015V248.36ZM848.015 222.64H826.973V204.138H848.015V222.64ZM848.015 196.911H826.973V178.409H848.015V196.911ZM848.015 171.167H826.973V152.665H848.015V171.167ZM875.049 377.031H853.993V358.544H875.049V377.031ZM875.049 351.302H853.993V332.815H875.049V351.302ZM875.049 325.573H853.993V307.071H875.049V325.573ZM875.049 299.829H853.993V281.327H875.049V299.829ZM875.049 274.099H853.993V255.612H875.049V274.099ZM875.049 248.355H853.993V229.868H875.049V248.355ZM875.049 222.636H853.993V204.134H875.049V222.636ZM875.049 196.906H853.993V178.404H875.049V196.906ZM875.049 171.162H853.993V152.66H875.049V171.162ZM902.069 377.026H881.027V358.539H902.069V377.026ZM902.069 351.297H881.027V332.81H902.069V351.297ZM902.069 325.568H881.027V307.066H902.069V325.568ZM902.069 299.824H881.027V281.322H902.069V299.824ZM902.069 274.094H881.027V255.607H902.069V274.094ZM902.069 248.35H881.027V229.863H902.069V248.35ZM902.069 222.631H881.027V204.129H902.069V222.631ZM902.069 196.901H881.027V178.4H902.069V196.901ZM902.069 171.157H881.027V152.656H902.069V171.157ZM929.113 377.022H908.071V358.534H929.113V377.022ZM929.113 351.292H908.071V332.805H929.113V351.292ZM929.113 325.563H908.071V307.061H929.113V325.563ZM929.113 299.819H908.071V281.317H929.113V299.819ZM929.113 274.089H908.071V255.602H929.113V274.089ZM929.113 248.345H908.071V229.858H929.113V248.345ZM929.113 222.626H908.071V204.124H929.113V222.626ZM929.113 196.896H908.071V178.395H929.113V196.896ZM929.113 171.152H908.071V152.651H929.113V171.152ZM1271.18 247.384H1264.25V241.316H1271.18V247.384ZM1271.18 233.953H1264.25V227.886H1271.18V233.953ZM1600.78 264.996H1580.65V247.166H1600.78V264.996ZM1600.78 242.095H1580.65V224.279H1600.78V242.095ZM1628.78 264.996H1608.65V247.166H1628.78V264.996ZM1628.78 242.095H1608.65V224.279H1628.78V242.095ZM1656.79 264.996H1636.66V247.166H1656.79V264.996ZM1656.79 242.095H1636.66V224.279H1656.79V242.095ZM1684.78 264.996H1664.66V247.166H1684.78V264.996ZM1684.78 242.095H1664.66V224.279H1684.78V242.095ZM1712.81 264.996H1692.67V247.166H1712.81V264.996ZM1712.81 242.095H1692.67V224.279H1712.81V242.095ZM1740.81 264.996H1720.68V247.166H1740.81V264.996ZM1740.81 242.095H1720.68V224.279H1740.81V242.095ZM1768.82 264.996H1748.69V247.166H1768.82V264.996ZM1768.82 242.095H1748.69V224.279H1768.82V242.095ZM1796.82 264.996H1776.69V247.166H1796.82V264.996ZM1796.82 242.095H1776.69V224.279H1796.82V242.095ZM1824.83 264.996H1804.7V247.166H1824.83V264.996ZM1824.83 242.095H1804.7V224.279H1824.83V242.095ZM2023.08 324.257H1942.85V305.77H2023.08V324.257ZM2023.08 298.528H1942.85V280.041H2023.08V298.528ZM2023.08 272.808H1942.85V254.307H2023.08V272.808ZM2023.08 247.064H1942.85V228.563H2023.08V247.064ZM2023.08 221.32H1942.85V202.833H2023.08V221.32ZM2023.08 195.591H1942.85V177.104H2023.08V195.591ZM2347.61 309.889H2299.57V267.336H2347.61V309.889ZM2414.44 309.889H2366.4V267.336H2414.44V309.889ZM2481.27 309.889H2433.23V267.336H2481.27V309.889ZM2548.12 309.889H2500.08V267.336H2548.12V309.889ZM2614.95 309.889H2566.92V267.336H2614.95V309.889ZM2681.79 309.889H2633.74V267.336H2681.79V309.889ZM2748.64 309.889H2700.59V267.336H2748.64V309.889ZM2815.46 309.889H2767.43V267.336H2815.46V309.889ZM3038.23 397.955H2943.49V375.678H3038.23V397.955ZM3038.23 366.951H2943.49V344.664H3038.23V366.951ZM3038.23 335.933H2943.49V313.655H3038.23V335.933ZM3038.23 304.929H2943.49V282.642H3038.23V304.929ZM3038.23 273.911H2943.49V251.623H3038.23V273.911ZM3038.23 242.892H2943.49V220.615H3038.23V242.892ZM3038.23 211.888H2943.49V189.601H3038.23V211.888ZM3038.23 180.87H2943.49V158.592H3038.23V180.87ZM3038.23 149.876H2943.49V127.588H3038.23V149.876ZM3342.19 487.747H3321.15V469.26H3342.19V487.747ZM3342.19 462.018H3321.15V443.53H3342.19V462.018ZM3342.19 436.288H3321.15V417.786H3342.19V436.288ZM3342.19 410.559H3321.15V392.057H3342.19V410.559ZM3342.19 384.815H3321.15V366.328H3342.19V384.815ZM3342.19 359.086H3321.15V340.598H3342.19V359.086ZM3342.19 333.356H3321.15V314.854H3342.19V333.356ZM3342.19 307.627H3321.15V289.125H3342.19V307.627ZM3342.19 281.883H3321.15V263.381H3342.19V281.883ZM3369.23 487.747H3348.19V469.26H3369.23V487.747ZM3369.23 462.018H3348.19V443.53H3369.23V462.018ZM3369.23 436.288H3348.19V417.786H3369.23V436.288ZM3369.23 410.559H3348.19V392.057H3369.23V410.559ZM3369.23 384.815H3348.19V366.328H3369.23V384.815ZM3369.23 359.086H3348.19V340.598H3369.23V359.086ZM3369.23 333.356H3348.19V314.854H3369.23V333.356ZM3369.23 307.627H3348.19V289.125H3369.23V307.627ZM3369.23 281.883H3348.19V263.381H3369.23V281.883ZM3396.26 487.747H3375.22V469.26H3396.26V487.747ZM3396.26 462.018H3375.22V443.53H3396.26V462.018ZM3396.26 436.288H3375.22V417.786H3396.26V436.288ZM3396.26 410.559H3375.22V392.057H3396.26V410.559ZM3396.26 384.815H3375.22V366.328H3396.26V384.815ZM3396.26 359.086H3375.22V340.598H3396.26V359.086ZM3396.26 333.356H3375.22V314.854H3396.26V333.356ZM3396.26 307.627H3375.22V289.125H3396.26V307.627ZM3396.26 281.883H3375.22V263.381H3396.26V281.883ZM3423.3 487.747H3402.26V469.26H3423.3V487.747ZM3423.3 462.018H3402.26V443.53H3423.3V462.018ZM3423.3 436.288H3402.26V417.786H3423.3V436.288ZM3423.3 410.559H3402.26V392.057H3423.3V410.559ZM3423.3 384.815H3402.26V366.328H3423.3V384.815ZM3423.3 359.086H3402.26V340.598H3423.3V359.086ZM3423.3 333.356H3402.26V314.854H3423.3V333.356ZM3423.3 307.627H3402.26V289.125H3423.3V307.627ZM3423.3 281.883H3402.26V263.381H3423.3V281.883ZM3676.7 380.691H3651.35V358.404H3676.7V380.691ZM3676.7 349.673H3651.35V327.386H3676.7V349.673ZM3676.7 318.654H3651.35V296.377H3676.7V318.654ZM3676.7 287.65H3651.35V265.363H3676.7V287.65ZM3676.7 256.632H3651.35V234.354H3676.7V256.632ZM3676.7 225.628H3651.35V203.341H3676.7V225.628ZM3676.7 194.61H3651.35V172.322H3676.7V194.61ZM3676.7 163.591H3651.35V141.314H3676.7V163.591ZM3676.7 132.587H3651.35V110.3H3676.7V132.587ZM3886.71 393.101H3852.89V374.599H3886.71V393.101ZM3886.71 367.357H3852.89V348.856H3886.71V367.357ZM3886.71 341.628H3852.89V323.126H3886.71V341.628ZM3886.71 315.884H3852.89V297.397H3886.71V315.884ZM3886.71 290.155H3852.89V271.667H3886.71V290.155ZM3886.71 264.425H3852.89V245.924H3886.71V264.425ZM3886.71 238.696H3852.89V220.194H3886.71V238.696ZM3886.71 212.952H3852.89V194.465H3886.71V212.952ZM3886.71 187.232H3852.89V168.73H3886.71V187.232ZM3930.14 393.097H3896.34V374.595H3930.14V393.097ZM3930.14 367.353H3896.34V348.851H3930.14V367.353ZM3930.14 341.623H3896.34V323.121H3930.14V341.623ZM3930.14 315.879H3896.34V297.392H3930.14V315.879ZM3930.14 290.15H3896.34V271.663H3930.14V290.15ZM3930.14 264.42H3896.34V245.919H3930.14V264.42ZM3930.14 238.691H3896.34V220.189H3930.14V238.691ZM3930.14 212.947H3896.34V194.46H3930.14V212.947ZM3930.14 187.227H3896.34V168.725H3930.14V187.227ZM4121.25 329.832H4114.31V323.764H4121.25V329.832ZM4121.25 316.392H4114.31V310.324H4121.25V316.392Z" fill="url(#paint0_linear_0_1)"/>
<defs>
<linearGradient id="paint0_linear_0_1" x1="2089.5" y1="0" x2="2089.5" y2="2961.31" gradientUnits="userSpaceOnUse">
<stop stop-color="#D1E9F8"/>
<stop offset="0.322917" stop-color="#D0E9F8"/>
<stop offset="0.6875" stop-color="#FEFEFE"/>
</linearGradient>
</defs>
</svg>
