<svg width="578" height="114" viewBox="0 0 578 114" fill="none" xmlns="http://www.w3.org/2000/svg">
<path d="M49.4661 104.509C47.0518 104.509 37.369 104.173 27.1105 99.2041C20.261 95.886 14.5887 91.1843 10.2562 85.2311C4.87179 77.8313 1.57391 68.4968 0.453707 57.4803C0.439455 57.3339 0.410948 57.1387 0.379594 56.9034C0.100257 54.7965 -0.646548 49.1964 1.26606 42.2644C3.64043 33.6447 9.19298 25.9176 17.7669 19.2985C18.2059 18.9598 18.776 18.5063 19.4572 17.9667C25.5371 13.1444 39.7747 1.84948 49.6513 0.236328L50.2642 4.04532C41.3681 5.49773 27.1732 16.7582 21.8287 20.9978C21.1332 21.5489 20.5489 22.0139 20.0986 22.3583C7.79344 31.8593 2.43757 43.3092 4.17631 56.3896C4.21336 56.6766 4.24472 56.9091 4.26467 57.0871C6.15447 75.7101 14.355 88.6871 28.6355 95.6592C39.3957 100.915 49.7881 100.642 49.8936 100.639L50.0219 104.497C49.9677 104.497 49.7767 104.506 49.4632 104.506L49.4661 104.509Z" fill="#29ABE2"/>
<path d="M49.8608 104.508C49.5473 104.508 49.476 104.502 49.4219 104.499L49.4304 100.641C49.5359 100.641 59.9284 100.917 70.6886 95.6611C84.969 88.6861 93.1696 75.7091 95.0594 57.0889C95.0765 56.9109 95.1079 56.6756 95.1478 56.3885C96.8865 43.3082 91.5306 31.8583 79.2255 22.3573C78.7752 22.01 78.1908 21.5479 77.4953 20.9968C72.1508 16.7572 58.5374 5.6029 49.6414 4.15049L49.6528 0.232422C59.5294 1.84558 73.7898 13.1405 79.8668 17.9628C80.5481 18.5024 81.1182 18.9559 81.5571 19.2946C90.1311 25.9137 95.6836 33.6408 98.058 42.2605C99.9677 49.1925 99.2238 54.7926 98.9445 56.8995C98.9131 57.1348 98.8875 57.33 98.8704 57.4793C97.753 68.4929 94.4551 77.8274 89.0679 85.2272C84.7353 91.1833 79.0659 95.8821 72.2136 99.2003C61.955 104.169 52.2723 104.505 49.858 104.505L49.8608 104.508Z" fill="#1D76BB"/>
<path d="M74.8455 34.7826C74.6146 29.3662 71.7272 26.1312 67.121 26.1312C62.9395 26.1312 59.6188 28.6342 57.7717 33.178L50.8538 50.0759L47.6557 33.6057C46.7265 28.8466 43.6623 26.0078 39.4609 26.0078C36.8556 26.0078 32.2038 27.0842 30.2826 34.309L20.6825 70.6881L20.654 70.8058C20.5087 71.5435 20.3633 72.3587 20.3633 73.4724C20.3633 77.2269 22.7548 79.4715 26.7624 79.4715C30.77 79.4715 33.1786 77.3187 34.2931 73.0906L38.5658 57.3753L41.2281 73.3404C41.858 77.2183 44.3578 79.5347 47.9208 79.5347C51.0534 79.5347 53.8154 77.379 55.3033 73.7882C56.5917 70.7714 57.7831 67.4963 58.9375 64.3302C59.8439 61.8416 60.7675 59.31 61.7594 56.8242L62.301 72.7175C62.5148 78.2975 66.0692 79.4686 69.0165 79.4686C73.1552 79.4686 76.2707 76.36 76.4247 72.0774V71.9999L74.8455 34.7826Z" fill="#29ABE2"/>
<path d="M143.678 62.3504C146.782 62.3504 148.036 64.2736 148.036 66.5584C148.036 68.4816 147.141 70.2267 145.767 71.3692C141.528 74.8567 136.751 76.7195 131.558 76.7195C118.423 76.7195 112.332 66.679 112.332 55.7371C112.332 41.3077 122.303 27.8398 136.991 27.8398C142.064 27.8398 146.482 29.4616 150.065 33.0697C151.02 34.0915 151.499 35.2942 151.499 36.6777C151.14 40.2255 148.871 42.1487 146.246 42.1487C145.052 42.1487 143.498 41.6062 142.723 40.7049C141.11 38.842 138.484 37.8776 135.737 37.8776C126.9 37.8776 122.482 47.0169 122.482 54.233C122.482 60.7258 125.826 66.3776 132.812 66.3776C135.557 66.3776 138.185 65.7174 140.274 63.7914C141.469 62.7092 142.424 62.3476 143.678 62.3476V62.3504Z" fill="#333333"/>
<path d="M162.481 67.5198C165.465 67.5198 167.078 68.843 167.078 71.369C167.078 74.6756 164.63 76.5414 161.586 76.5414C154.659 76.5414 152.094 73.4155 152.094 68.0623C152.094 62.3502 153.944 53.0301 155.737 32.1079C156.036 29.0423 157.826 27.3574 160.873 27.3574C163.621 27.3574 165.052 28.6807 165.052 31.2066C165.052 31.508 165.052 31.8065 161.529 65.8377C161.529 66.9199 161.708 67.5198 162.483 67.5198H162.481Z" fill="#333333"/>
<path d="M177.288 41.5452C180.093 41.5452 181.586 42.7479 181.586 45.3944C181.586 45.6355 181.526 45.8766 179.497 65.6564V66.0783C179.497 66.7414 179.617 67.5221 180.452 67.5221C183.436 67.5221 185.049 68.8454 185.049 71.3713C185.049 74.678 182.601 76.5437 179.557 76.5437C172.93 76.5437 169.945 73.4781 169.945 68.5468C169.945 68.0646 169.945 67.6455 172.214 46.1808C172.513 43.055 174.304 41.5509 177.291 41.5509L177.288 41.5452ZM178.662 27.2363C181.469 27.2363 183.499 29.2198 183.499 31.9265C183.499 34.9921 180.871 37.94 177.527 37.94C174.78 37.94 172.75 35.836 172.75 33.1292C173.109 29.5814 175.734 27.2363 178.662 27.2363Z" fill="#333333"/>
<path d="M195.199 41.2472C198.184 41.2472 199.438 43.2307 199.438 45.0333V45.3949C201.767 42.9896 204.631 41.0664 208.214 41.0664C211.318 41.0664 215.32 42.5102 216.572 46.1786C218.781 43.0527 222.783 41.187 226.542 41.187C231.2 41.187 235.498 44.0717 235.498 51.0467C235.498 51.6466 235.438 52.3097 233.469 71.4293C233.169 74.4948 231.439 76.0592 228.332 76.0592C225.644 76.0592 224.154 74.7962 224.154 72.2703C224.154 71.9689 224.154 71.7278 224.213 71.4293C225.947 54.3534 226.003 54.1123 226.003 53.874C226.003 50.8085 224.034 49.3044 222.064 49.3044C219.915 49.3044 217.646 50.7482 216.988 53.6329L215.138 71.4293C214.839 74.4948 213.108 76.0592 210.004 76.0592C207.316 76.0592 205.826 74.7962 205.826 72.2703C205.826 71.9689 205.826 71.7278 205.885 71.4293C207.619 54.3534 207.676 54.1123 207.676 53.874C207.676 50.8085 205.706 49.3044 203.733 49.3044C201.345 49.3044 198.836 51.107 198.48 54.6548L196.75 71.4293C196.451 74.4948 194.78 76.0592 191.614 76.0592C188.926 76.0592 187.555 74.7962 187.555 72.3306C187.555 72.0292 187.555 71.7307 190.24 46.0551C190.479 43.5292 192.209 41.2444 195.197 41.2444L195.199 41.2472Z" fill="#333333"/>
<path d="M270.783 44.6744C270.783 44.9155 270.723 45.1566 268.454 66.6213C268.454 67.2241 268.813 67.5226 269.409 67.5226C272.393 67.5226 274.006 68.8459 274.006 71.3718C274.006 74.6785 271.558 76.5442 268.514 76.5442C263.021 76.5442 260.453 74.5608 259.558 71.0733C256.813 74.5608 253.05 76.7251 249.827 76.7251C244.035 76.7251 238.961 70.7116 238.961 61.5149C238.961 52.3182 243.738 40.5898 253.709 40.5898C256.573 40.5898 259.86 42.0336 261.411 45.1595C261.83 42.2145 263.679 40.6501 266.604 40.6501C269.352 40.6501 270.783 42.0939 270.783 44.6801V44.6744ZM260.273 56.9395C260.273 52.1288 257.885 49.3043 255.197 49.3043C250.3 49.3043 248.33 56.8792 248.33 60.5476C248.33 64.4571 249.824 67.7637 253.107 67.7637C258.121 67.7637 260.273 60.7887 260.273 56.9395Z" fill="#333333"/>
<path d="M281.169 39.3802C281.469 36.3749 283.199 34.8105 286.246 34.8105C289.054 34.8105 290.484 36.0735 290.484 38.5994C290.484 38.8406 290.425 39.1419 290.185 41.7253H292.753C295.678 41.7253 297.171 42.3855 297.171 44.9114C297.171 48.2784 295.022 49.4811 292.038 49.4811H289.35C287.796 64.6338 287.737 65.3543 287.737 65.8939C287.737 66.976 287.916 67.5185 288.691 67.5185C291.676 67.5185 293.289 68.8418 293.289 71.3677C293.289 74.6744 290.841 76.5401 287.796 76.5401C280.571 76.5401 278.422 73.1129 278.422 67.2803C278.422 66.1981 278.481 64.9955 280.092 49.3634C277.943 49.1223 276.27 48.4018 276.27 46.1773C276.27 43.2925 278.419 42.0296 280.927 41.7282L281.166 39.3831L281.169 39.3802Z" fill="#333333"/>
<path d="M327.976 53.5717C327.976 54.3525 327.976 55.1964 327.856 56.0374C327.38 60.6673 324.573 60.6673 319.975 60.6673H306.302C306.302 60.9084 306.242 61.2098 306.242 61.448C306.242 66.2588 311.019 67.9408 313.468 67.9408C318.065 67.9408 320.334 64.2122 323.498 64.2122C326.007 64.2122 326.485 66.2559 326.485 68.1819C326.366 69.2641 326.066 70.1051 325.171 70.9461C321.828 74.6747 317.17 76.7185 311.678 76.7185C302.063 76.7185 297.109 69.6832 297.109 60.9055C297.109 50.7444 304.096 39.9805 314.662 39.9805C323.379 39.9805 327.976 45.572 327.976 53.5688V53.5717ZM318.482 54.4127C318.541 54.1114 318.541 53.8128 318.541 53.5717C318.541 50.265 316.273 48.7007 313.824 48.7007C311.076 48.7007 307.852 50.6841 307.436 54.4127H318.482Z" fill="#333333"/>
<path d="M351.241 0.752039C351.241 0.336699 350.907 0 350.495 0C350.084 0 349.75 0.336699 349.75 0.752039V113.248C349.75 113.663 350.084 114 350.495 114C350.907 114 351.241 113.663 351.241 113.248V0.752039Z" fill="#E5E9E9"/>
<path d="M490.785 8.64453L487.333 25.7463H484.326L481.196 11.4231L478.041 25.7463H475.108L471.656 8.64453H473.948L476.684 23.6882L479.962 8.64453H482.451L485.803 23.6882L488.639 8.64453H490.782H490.785Z" fill="#010101"/>
<path d="M503.26 19.9882H494.977C495.077 21.4291 495.436 22.4883 496.063 23.1657C496.687 23.8431 497.494 24.1847 498.48 24.1847C499.104 24.1847 499.68 24.0928 500.204 23.912C500.729 23.7311 501.282 23.4412 501.855 23.0422L502.841 24.4085C501.461 25.4993 499.948 26.0475 498.306 26.0475C496.499 26.0475 495.088 25.4505 494.079 24.2593C493.067 23.0681 492.562 21.4291 492.562 19.3452C492.562 17.9875 492.779 16.7848 493.215 15.7343C493.651 14.6837 494.276 13.8599 495.088 13.2657C495.9 12.6687 496.858 12.373 497.958 12.373C499.683 12.373 501.005 12.9443 501.926 14.0867C502.847 15.2291 503.306 16.8078 503.306 18.8285C503.306 19.2103 503.288 19.5978 503.257 19.9939L503.26 19.9882ZM501.065 18.1511C501.065 16.8595 500.812 15.8749 500.301 15.1975C499.791 14.5201 499.027 14.1785 498.01 14.1785C496.151 14.1785 495.142 15.5534 494.977 18.3004H501.065V18.1511Z" fill="#010101"/>
<path d="M488.984 33.5722C489.625 34.2927 489.944 35.2658 489.944 36.4886V45.8718H487.675V36.81C487.675 35.1223 487.068 34.2784 485.851 34.2784C485.21 34.2784 484.668 34.4649 484.224 34.8381C483.779 35.2112 483.303 35.7939 482.793 36.589V45.8718H480.524V36.81C480.524 35.1223 479.917 34.2784 478.7 34.2784C478.041 34.2784 477.491 34.4678 477.049 34.8496C476.604 35.2313 476.137 35.8083 475.644 36.5861V45.869H473.375V32.7858H475.322L475.518 34.6974C476.488 33.2249 477.736 32.4872 479.267 32.4872C480.071 32.4872 480.757 32.6939 481.325 33.1072C481.892 33.5206 482.3 34.1004 482.545 34.8438C483.055 34.0832 483.616 33.5005 484.232 33.0929C484.848 32.6882 485.575 32.4844 486.413 32.4844C487.482 32.4844 488.337 32.8432 488.975 33.5636L488.984 33.5722Z" fill="#010101"/>
<path d="M503.528 43.9966C503.708 44.252 503.981 44.4472 504.34 44.5792L503.822 46.1666C503.149 46.0833 502.605 45.8939 502.194 45.5954C501.784 45.2968 501.479 44.8347 501.282 44.2061C500.41 45.515 499.121 46.1666 497.411 46.1666C496.128 46.1666 495.119 45.802 494.378 45.0729C493.64 44.3439 493.27 43.3938 493.27 42.2169C493.27 40.8276 493.766 39.7599 494.76 39.0136C495.755 38.2701 497.163 37.897 498.987 37.897H500.983V36.9297C500.983 36.0025 500.76 35.3424 500.316 34.9434C499.871 34.5473 499.19 34.3463 498.269 34.3463C497.348 34.3463 496.148 34.5788 494.769 35.041L494.202 33.379C495.812 32.782 497.309 32.4863 498.688 32.4863C500.216 32.4863 501.359 32.8623 502.114 33.6144C502.87 34.3664 503.249 35.4399 503.249 36.8292V42.8111C503.249 43.3421 503.34 43.7325 503.52 43.9908L503.528 43.9966ZM500.988 42.4207V39.4183H499.287C496.887 39.4183 495.687 40.311 495.687 42.0992C495.687 42.8771 495.875 43.4655 496.254 43.8616C496.633 44.2578 497.192 44.4587 497.93 44.4587C499.227 44.4587 500.247 43.7813 500.986 42.4236L500.988 42.4207Z" fill="#010101"/>
<path d="M510.183 27.2539V45.8712H507.914V27.5266L510.183 27.2539ZM517.651 32.7909L512.868 38.5747L518.193 45.8741H515.482L510.331 38.7239L515.114 32.7909H517.654H517.651Z" fill="#010101"/>
<path d="M530.076 40.1132H521.793C521.893 41.5541 522.252 42.6133 522.879 43.2907C523.503 43.9681 524.31 44.3097 525.296 44.3097C525.921 44.3097 526.496 44.2178 527.021 44.037C527.545 43.8561 528.098 43.5662 528.671 43.1672L529.657 44.5335C528.278 45.6243 526.764 46.1725 525.122 46.1725C523.315 46.1725 521.904 45.5755 520.895 44.3843C519.883 43.1931 519.379 41.5541 519.379 39.4702C519.379 38.1125 519.596 36.9098 520.032 35.8593C520.468 34.8087 521.092 33.9849 521.904 33.3907C522.717 32.7937 523.674 32.498 524.775 32.498C526.499 32.498 527.822 33.0693 528.742 34.2117C529.663 35.3541 530.122 36.9328 530.122 38.9535C530.122 39.3353 530.105 39.7228 530.074 40.1189L530.076 40.1132ZM527.882 38.2761C527.882 36.9844 527.628 35.9999 527.118 35.3225C526.607 34.6451 525.844 34.3035 524.826 34.3035C522.968 34.3035 521.959 35.6784 521.793 38.4254H527.882V38.2761Z" fill="#010101"/>
<path d="M549.301 43.9966C549.481 44.252 549.755 44.4472 550.114 44.5792L549.595 46.1666C548.922 46.0833 548.378 45.8939 547.968 45.5954C547.557 45.2968 547.252 44.8347 547.055 44.2061C546.183 45.515 544.895 46.1666 543.185 46.1666C541.902 46.1666 540.893 45.802 540.152 45.0729C539.414 44.3439 539.043 43.3938 539.043 42.2169C539.043 40.8276 539.539 39.7599 540.534 39.0136C541.529 38.2701 542.937 37.897 544.761 37.897H546.756V36.9297C546.756 36.0025 546.534 35.3424 546.089 34.9434C545.644 34.5473 544.963 34.3463 544.043 34.3463C543.122 34.3463 541.922 34.5788 540.542 35.041L539.975 33.379C541.586 32.782 543.082 32.4863 544.462 32.4863C545.989 32.4863 547.132 32.8623 547.888 33.6144C548.643 34.3664 549.022 35.4399 549.022 36.8292V42.8111C549.022 43.3421 549.113 43.7325 549.293 43.9908L549.301 43.9966ZM546.762 42.4207V39.4183H545.06C542.66 39.4183 541.46 40.311 541.46 42.0992C541.46 42.8771 541.648 43.4655 542.027 43.8616C542.406 44.2578 542.965 44.4587 543.703 44.4587C545 44.4587 546.021 43.7813 546.759 42.4236L546.762 42.4207Z" fill="#010101"/>
<path d="M562.574 33.5609C563.241 34.2727 563.572 35.2487 563.572 36.4887V45.8719H561.303V36.8102C561.303 35.883 561.129 35.2314 560.784 34.8497C560.439 34.4679 559.929 34.2785 559.256 34.2785C558.583 34.2785 557.959 34.4765 557.432 34.8755C556.905 35.2716 556.411 35.8428 555.953 36.5891V45.8719H553.684V32.7888H555.63L555.827 34.7263C556.286 34.0316 556.859 33.4863 557.54 33.0873C558.221 32.6912 558.974 32.4902 559.795 32.4902C560.978 32.4902 561.901 32.8462 562.568 33.558L562.574 33.5609Z" fill="#010101"/>
<path d="M573.164 45.9449C572.654 47.4662 571.944 48.6718 571.032 49.5559C570.12 50.4399 568.817 50.9738 567.124 51.1575L566.879 49.3693C567.734 49.22 568.415 49.0048 568.926 48.7235C569.436 48.4422 569.841 48.0834 570.146 47.6442C570.451 47.205 570.733 46.6137 570.995 45.8703H570.231L565.867 32.7871H568.284L571.759 44.2055L575.159 32.7871H577.502L573.164 45.9421V45.9449Z" fill="#010101"/>
<path d="M482.813 57.2619C483.685 58.4617 484.118 60.138 484.118 62.2879C484.118 63.6456 483.913 64.8397 483.503 65.8759C483.092 66.9092 482.499 67.7129 481.727 68.2841C480.954 68.8553 480.051 69.1395 479.016 69.1395C477.651 69.1395 476.502 68.5597 475.564 67.4029L475.342 68.8438H473.344V50.4992L475.613 50.2266V57.3996C476.55 56.108 477.773 55.4621 479.287 55.4621C480.8 55.4621 481.941 56.062 482.813 57.2619ZM480.829 66.0998C481.396 65.2817 481.678 64.0101 481.678 62.2908C481.678 60.5714 481.416 59.2424 480.889 58.4559C480.361 57.6695 479.615 57.2762 478.645 57.2762C477.494 57.2762 476.485 57.9536 475.613 59.3113V65.5659C475.958 66.1112 476.379 66.5418 476.881 66.8575C477.383 67.1733 477.913 67.3283 478.472 67.3283C479.475 67.3283 480.259 66.9178 480.826 66.0998H480.829Z" fill="#010101"/>
<path d="M497.652 68.8401H495.705L495.531 66.805C495.038 67.6173 494.47 68.2086 493.829 68.5789C493.188 68.952 492.407 69.1386 491.486 69.1386C490.352 69.1386 489.465 68.7913 488.824 68.0967C488.183 67.402 487.863 66.4175 487.863 65.143V55.7598H490.132V64.8933C490.132 65.786 490.289 66.4204 490.6 66.7935C490.91 67.1667 491.421 67.3532 492.127 67.3532C493.393 67.3532 494.476 66.6012 495.383 65.0942V55.7598H497.652V68.843V68.8401Z" fill="#010101"/>
<path d="M504.6 49.9243C504.896 50.2229 505.044 50.596 505.044 51.0409C505.044 51.4858 504.896 51.8561 504.6 52.146C504.303 52.4359 503.918 52.5794 503.442 52.5794C502.966 52.5794 502.604 52.4359 502.308 52.146C502.012 51.8561 501.863 51.4887 501.863 51.0409C501.863 50.5931 502.012 50.2229 502.308 49.9243C502.604 49.6258 502.981 49.4766 503.442 49.4766C503.904 49.4766 504.306 49.6258 504.6 49.9243ZM504.6 55.757V68.8401H502.331V55.757H504.6Z" fill="#010101"/>
<path d="M509.887 68.3807C509.402 67.8755 509.16 67.1694 509.16 66.2595V50.4953L511.429 50.2227V66.2078C511.429 66.5723 511.492 66.8364 511.614 67.0029C511.737 67.1694 511.948 67.2498 512.244 67.2498C512.555 67.2498 512.837 67.201 513.082 67.1005L513.675 68.6878C513.134 68.9863 512.532 69.1356 511.877 69.1356C511.039 69.1356 510.377 68.883 509.893 68.3778L509.887 68.3807Z" fill="#010101"/>
<path d="M526.439 50.4964V68.841H524.444L524.221 67.0298C523.794 67.6928 523.261 68.2095 522.619 68.5826C521.978 68.9558 521.263 69.1424 520.476 69.1424C518.931 69.1424 517.728 68.531 516.864 67.3053C516.001 66.0797 515.57 64.4349 515.57 62.3654C515.57 61.0249 515.776 59.8337 516.186 58.7918C516.596 57.7498 517.189 56.9346 517.962 56.3462C518.734 55.7578 519.638 55.465 520.672 55.465C522.004 55.465 523.169 56.0018 524.173 57.0782V50.2266L526.442 50.4992L526.439 50.4964ZM522.742 66.8432C523.235 66.5217 523.711 66.0366 524.173 65.3908V58.987C523.745 58.4244 523.289 57.9995 522.805 57.7096C522.32 57.4197 521.773 57.2762 521.166 57.2762C520.162 57.2762 519.387 57.6982 518.837 58.5421C518.287 59.3859 518.01 60.6432 518.01 62.3137C518.01 63.9843 518.264 65.2587 518.774 66.0883C519.284 66.9149 520.014 67.3283 520.969 67.3283C521.659 67.3283 522.252 67.1675 522.745 66.8432H522.742Z" fill="#010101"/>
<path d="M533.393 49.9243C533.689 50.2229 533.837 50.596 533.837 51.0409C533.837 51.4858 533.689 51.8561 533.393 52.146C533.096 52.4359 532.711 52.5794 532.235 52.5794C531.759 52.5794 531.397 52.4359 531.101 52.146C530.804 51.8561 530.656 51.4887 530.656 51.0409C530.656 50.5931 530.804 50.2229 531.101 49.9243C531.397 49.6258 531.774 49.4766 532.235 49.4766C532.697 49.4766 533.099 49.6258 533.393 49.9243ZM533.393 55.757V68.8401H531.124V55.757H533.393Z" fill="#010101"/>
<path d="M546.965 56.5257C547.629 57.2376 547.962 58.2135 547.962 59.4535V68.8368H545.693V59.775C545.693 58.8479 545.519 58.1963 545.175 57.8145C544.83 57.4328 544.319 57.2433 543.647 57.2433C542.974 57.2433 542.347 57.4414 541.822 57.8404C541.295 58.2365 540.802 58.8077 540.343 59.554V68.8368H538.074V55.7536H540.021L540.218 57.6911C540.677 56.9965 541.25 56.4511 541.931 56.0521C542.612 55.656 543.365 55.4551 544.185 55.4551C545.368 55.4551 546.292 55.811 546.959 56.5229L546.965 56.5257Z" fill="#010101"/>
<path d="M562.995 56.3531C562.502 56.5196 561.961 56.6258 561.368 56.6746C560.775 56.7234 560.054 56.7492 559.199 56.7492C560.727 57.4438 561.49 58.5461 561.49 60.0502C561.49 61.3562 561.046 62.424 560.159 63.2535C559.273 64.0802 558.064 64.4935 556.536 64.4935C555.944 64.4935 555.393 64.4103 554.886 64.2466C554.689 64.3787 554.533 64.5566 554.419 64.7805C554.305 65.0044 554.245 65.2312 554.245 65.4637C554.245 66.1755 554.812 66.5315 555.946 66.5315H558.016C558.888 66.5315 559.658 66.6893 560.333 67.0022C561.006 67.318 561.528 67.7456 561.898 68.2939C562.269 68.8393 562.454 69.4593 562.454 70.1568C562.454 71.4312 561.935 72.41 560.9 73.0989C559.866 73.7849 558.352 74.1294 556.365 74.1294C554.969 74.1294 553.863 73.983 553.05 73.6959C552.238 73.406 551.657 72.9726 551.312 72.3928C550.967 71.813 550.793 71.0695 550.793 70.1596H552.84C552.84 70.6878 552.939 71.1069 553.136 71.414C553.333 71.7211 553.686 71.9507 554.196 72.1086C554.707 72.2665 555.428 72.344 556.365 72.344C557.728 72.344 558.703 72.1746 559.287 71.8359C559.871 71.4972 560.162 70.9863 560.162 70.3089C560.162 69.6975 559.931 69.2325 559.472 68.9196C559.013 68.6068 558.372 68.4489 557.548 68.4489H555.502C554.402 68.4489 553.566 68.2135 552.999 67.7428C552.432 67.272 552.15 66.6807 552.15 65.9689C552.15 65.5383 552.272 65.125 552.52 64.7289C552.768 64.3328 553.119 63.9768 553.581 63.6611C552.825 63.265 552.269 62.7713 551.916 62.1828C551.563 61.5944 551.386 60.8797 551.386 60.0358C551.386 59.1919 551.602 58.3738 552.039 57.6763C552.475 56.9817 553.073 56.4392 553.837 56.0517C554.601 55.6642 555.45 55.469 556.388 55.469C557.406 55.4863 558.261 55.4489 558.951 55.3571C559.641 55.2652 560.211 55.1418 560.664 54.9839C561.117 54.8261 561.67 54.5993 562.328 54.3008L562.993 56.3617L562.995 56.3531ZM554.404 57.9031C553.937 58.4399 553.703 59.1489 553.703 60.0243C553.703 60.8998 553.943 61.6346 554.419 62.1714C554.895 62.7081 555.567 62.9779 556.44 62.9779C557.312 62.9779 558.004 62.7167 558.472 62.1972C558.939 61.6748 559.173 60.9428 559.173 60.0014C559.173 58.0638 558.244 57.0965 556.388 57.0965C555.533 57.0965 554.872 57.3663 554.404 57.9031Z" fill="#010101"/>
<path d="M479.779 76.2786C480.6 76.5599 481.324 76.956 481.949 77.4698L480.518 79.68C479.449 79.0026 478.374 78.661 477.288 78.661C476.778 78.661 476.387 78.7471 476.117 78.9222C475.846 79.0973 475.709 79.3413 475.709 79.6541C475.709 79.901 475.772 80.1048 475.894 80.2627C476.017 80.4205 476.268 80.5813 476.647 80.7478C477.026 80.9142 477.607 81.1123 478.397 81.3448C479.759 81.7409 480.777 82.2604 481.441 82.8977C482.105 83.5349 482.439 84.4161 482.439 85.5413C482.439 86.434 482.185 87.209 481.675 87.8634C481.165 88.5179 480.466 89.0173 479.58 89.3646C478.693 89.7119 477.707 89.887 476.621 89.887C475.535 89.887 474.498 89.7119 473.551 89.3646C472.605 89.0173 471.804 88.538 471.148 87.9237L473.047 85.7881C474.147 86.6493 475.307 87.0798 476.521 87.0798C477.114 87.0798 477.576 86.9736 477.915 86.7583C478.252 86.543 478.42 86.2359 478.42 85.8398C478.42 85.5269 478.354 85.2772 478.223 85.0964C478.092 84.9155 477.835 84.7462 477.459 84.5883C477.08 84.4304 476.482 84.2381 475.661 84.0056C474.361 83.6239 473.392 83.0957 472.753 82.4183C472.112 81.7409 471.793 80.897 471.793 79.8866C471.793 79.126 472.009 78.4428 472.445 77.8401C472.881 77.2373 473.506 76.7551 474.318 76.3991C475.13 76.0432 476.071 75.8652 477.14 75.8652C478.078 75.8652 478.956 76.0059 479.777 76.2872L479.779 76.2786Z" fill="#010101"/>
<path d="M501.395 76.9136C502.02 77.6168 502.333 78.5899 502.333 79.8299V89.46H498.44V80.4987C498.44 79.3247 498.069 78.7363 497.331 78.7363C496.92 78.7363 496.558 78.8769 496.245 79.1582C495.931 79.4395 495.629 79.8701 495.333 80.4499V89.46H491.439V80.4987C491.439 79.3247 491.069 78.7363 490.33 78.7363C489.937 78.7363 489.578 78.8827 489.259 79.1697C488.939 79.4596 488.629 79.8844 488.335 80.447V89.4572H484.441V76.2764H487.842L488.113 77.8149C488.623 77.1518 489.184 76.661 489.8 76.3367C490.416 76.0152 491.12 75.8516 491.907 75.8516C492.645 75.8516 493.283 76.0353 493.816 76.3969C494.349 76.7615 494.74 77.2753 494.988 77.9355C495.512 77.2236 496.094 76.6983 496.727 76.3596C497.359 76.0209 498.086 75.8516 498.907 75.8516C499.942 75.8516 500.771 76.2046 501.395 76.9079V76.9136Z" fill="#010101"/>
<path d="M515.881 86.7315C516.021 86.964 516.246 87.1362 516.56 87.2539L515.747 89.8114C514.941 89.7454 514.285 89.5674 513.775 89.2775C513.265 88.9876 512.871 88.5283 512.592 87.8997C511.737 89.2229 510.423 89.886 508.647 89.886C507.347 89.886 506.313 89.5042 505.54 88.7436C504.768 87.9829 504.383 86.9898 504.383 85.7641C504.383 84.3232 504.907 83.2238 505.959 82.4632C507.011 81.7025 508.53 81.3208 510.52 81.3208H511.851V80.7496C511.851 79.9717 511.685 79.4378 511.358 79.1479C511.03 78.858 510.454 78.7145 509.633 78.7145C509.206 78.7145 508.687 78.7776 508.08 78.9011C507.473 79.0245 506.848 79.1938 506.207 79.4091L505.321 76.8286C506.142 76.5158 506.985 76.2747 507.846 76.1082C508.71 75.9417 509.511 75.8613 510.249 75.8613C512.122 75.8613 513.495 76.2517 514.365 77.0267C515.237 77.8046 515.67 78.9728 515.67 80.5257V85.6378C515.67 86.1344 515.739 86.499 515.881 86.7315ZM511.851 85.8129V83.4793H510.89C510.004 83.4793 509.342 83.6372 508.906 83.9501C508.47 84.2658 508.254 84.7538 508.254 85.414C508.254 85.945 508.39 86.3526 508.661 86.6425C508.932 86.9324 509.305 87.0759 509.781 87.0759C510.668 87.0759 511.358 86.654 511.851 85.8101V85.8129Z" fill="#010101"/>
<path d="M527.18 76.0813L526.565 79.8788C526.071 79.764 525.678 79.7038 525.382 79.7038C524.609 79.7038 524.022 79.9736 523.62 80.5103C523.218 81.0471 522.902 81.8537 522.671 82.9301V89.4573H518.777V76.2765H522.178L522.497 78.834C522.794 77.9241 523.241 77.2094 523.84 76.687C524.438 76.1646 525.117 75.9062 525.872 75.9062C526.348 75.9062 526.784 75.9637 527.177 76.0813H527.18Z" fill="#010101"/>
<path d="M536.867 88.8402C536.391 89.1703 535.835 89.4287 535.202 89.6095C534.57 89.7903 533.94 89.8822 533.316 89.8822C530.457 89.865 529.026 88.2776 529.026 85.1173V79.0121H527.176V76.2823H529.026V73.4263L532.919 72.9785V76.2795H535.926L535.507 79.0092H532.919V85.0657C532.919 85.6771 533.019 86.1162 533.216 86.3803C533.412 86.6444 533.726 86.7764 534.154 86.7764C534.581 86.7764 535.066 86.6358 535.559 86.3545L536.864 88.8374L536.867 88.8402Z" fill="#010101"/>
<path d="M541.367 86.0479C541.803 86.4871 542.019 87.0124 542.019 87.6238C542.019 88.2352 541.803 88.7863 541.367 89.2255C540.931 89.6646 540.409 89.8828 539.802 89.8828C539.195 89.8828 538.647 89.6646 538.211 89.2255C537.775 88.7863 537.559 88.2524 537.559 87.6238C537.559 86.9952 537.775 86.4871 538.211 86.0479C538.647 85.6088 539.178 85.3906 539.802 85.3906C540.426 85.3906 540.931 85.6088 541.367 86.0479Z" fill="#010101"/>
<path d="M433.593 24.969H436.566C436.968 24.969 437.319 24.8197 437.612 24.5241C437.906 24.2284 438.054 23.8783 438.054 23.4707V20.4769C438.054 20.0721 437.906 19.7191 437.612 19.4234C437.319 19.1278 436.971 18.9785 436.566 18.9785H433.593C433.191 18.9785 432.841 19.1278 432.547 19.4234C432.254 19.7191 432.105 20.0693 432.105 20.4769V23.4707C432.105 23.8754 432.254 24.2284 432.547 24.5241C432.841 24.8197 433.189 24.969 433.593 24.969Z" fill="#E90E8B"/>
<path d="M424.672 42.9316H421.699C421.297 42.9316 420.946 43.0809 420.653 43.3766C420.359 43.6722 420.211 44.0224 420.211 44.43V47.4238C420.211 47.8285 420.359 48.1787 420.653 48.4772C420.946 48.7729 421.294 48.9221 421.699 48.9221H424.672C425.074 48.9221 425.424 48.7729 425.718 48.4772C426.011 48.1816 426.16 47.8314 426.16 47.4238V44.43C426.16 44.0253 426.011 43.6751 425.718 43.3766C425.424 43.0809 425.077 42.9316 424.672 42.9316Z" fill="#E90E8B"/>
<path d="M424.672 18.9785H421.699C421.297 18.9785 420.946 19.1278 420.653 19.4234C420.359 19.7191 420.211 20.0693 420.211 20.4769V23.4707C420.211 23.8754 420.359 24.2284 420.653 24.5241C420.946 24.8197 421.294 24.969 421.699 24.969H424.672C425.074 24.969 425.424 24.8197 425.718 24.5241C426.011 24.2284 426.16 23.8783 426.16 23.4707V20.4769C426.16 20.0721 426.011 19.7191 425.718 19.4234C425.424 19.1278 425.077 18.9785 424.672 18.9785Z" fill="#E90E8B"/>
<path d="M412.781 18.9785H409.808C409.406 18.9785 409.056 19.1278 408.762 19.4234C408.469 19.7191 408.32 20.0693 408.32 20.4769V23.4707C408.32 23.8754 408.469 24.2284 408.762 24.5241C409.056 24.8197 409.403 24.969 409.808 24.969H412.781C413.183 24.969 413.534 24.8197 413.827 24.5241C414.121 24.2284 414.269 23.8783 414.269 23.4707V20.4769C414.269 20.0721 414.121 19.7191 413.827 19.4234C413.534 19.1278 413.186 18.9785 412.781 18.9785Z" fill="#E90E8B"/>
<path d="M412.781 30.957H409.808C409.406 30.957 409.056 31.1063 408.762 31.4019C408.469 31.6976 408.32 32.0478 408.32 32.4554V35.4492C408.32 35.8539 408.469 36.2041 408.762 36.5026C409.056 36.7983 409.403 36.9475 409.808 36.9475H412.781C413.183 36.9475 413.534 36.7983 413.827 36.5026C414.121 36.207 414.269 35.8568 414.269 35.4492V32.4554C414.269 32.0506 414.121 31.6976 413.827 31.4019C413.534 31.1063 413.186 30.957 412.781 30.957Z" fill="#E90E8B"/>
<path d="M424.672 30.957H421.699C421.297 30.957 420.946 31.1063 420.653 31.4019C420.359 31.6976 420.211 32.0478 420.211 32.4554V35.4492C420.211 35.8539 420.359 36.2041 420.653 36.5026C420.946 36.7983 421.294 36.9475 421.699 36.9475H424.672C425.074 36.9475 425.424 36.7983 425.718 36.5026C426.011 36.207 426.16 35.8568 426.16 35.4492V32.4554C426.16 32.0506 426.011 31.6976 425.718 31.4019C425.424 31.1063 425.077 30.957 424.672 30.957Z" fill="#E90E8B"/>
<path d="M433.593 36.9436H436.566C436.968 36.9436 437.319 36.7943 437.612 36.4987C437.906 36.2031 438.054 35.8529 438.054 35.4453V32.4515C438.054 32.0467 437.906 31.6937 437.612 31.398C437.319 31.1024 436.971 30.9531 436.566 30.9531H433.593C433.191 30.9531 432.841 31.1024 432.547 31.398C432.254 31.6937 432.105 32.0439 432.105 32.4515V35.4453C432.105 35.85 432.254 36.2002 432.547 36.4987C432.841 36.7943 433.189 36.9436 433.593 36.9436Z" fill="#E90E8B"/>
<path d="M445.488 60.8967H448.461C448.863 60.8967 449.213 60.7475 449.507 60.4518C449.801 60.1562 449.949 59.806 449.949 59.3984V56.4046C449.949 55.9999 449.801 55.6497 449.507 55.3512C449.213 55.0555 448.866 54.9062 448.461 54.9062H445.488C445.086 54.9062 444.735 55.0555 444.442 55.3512C444.148 55.6468 444 55.997 444 56.4046V59.3984C444 59.8031 444.148 60.1562 444.442 60.4518C444.735 60.7475 445.083 60.8967 445.488 60.8967Z" fill="#E90E8B"/>
<path d="M445.488 48.9221H448.461C448.863 48.9221 449.213 48.7729 449.507 48.4772C449.801 48.1816 449.949 47.8314 449.949 47.4238V44.43C449.949 44.0253 449.801 43.6751 449.507 43.3766C449.213 43.0809 448.866 42.9316 448.461 42.9316H445.488C445.086 42.9316 444.735 43.0809 444.442 43.3766C444.148 43.6722 444 44.0224 444 44.43V47.4238C444 47.8285 444.148 48.1787 444.442 48.4772C444.735 48.7729 445.083 48.9221 445.488 48.9221Z" fill="#E90E8B"/>
<path d="M460.958 7.88982C460.371 7.29852 459.673 7 458.869 7H399.399C398.592 7 397.897 7.29565 397.309 7.88982C396.722 8.48112 396.426 9.18436 396.426 9.99381V29.2971C397.612 29.2971 398.726 29.7621 399.567 30.6089L402.375 33.4362V12.9905H455.893V84.8504H438.053V74.3707C438.053 73.966 437.905 73.6158 437.611 73.3173C437.317 73.0216 436.97 72.8723 436.565 72.8723H421.697C421.295 72.8723 420.945 73.0216 420.651 73.3173C420.358 73.6129 420.209 73.9631 420.209 74.3707V84.8504L420.255 89.0412C420.255 89.8219 419.913 90.2008 419.562 90.8381H458.863C459.67 90.8381 460.366 90.5424 460.953 89.9482C461.54 89.3569 461.836 88.6537 461.836 87.8442V9.99668C461.836 9.18436 461.543 8.48399 460.953 7.89269L460.958 7.88982Z" fill="#E90E8B"/>
<path d="M445.488 72.8753H448.461C448.863 72.8753 449.213 72.726 449.507 72.4303C449.801 72.1347 449.949 71.7845 449.949 71.3769V68.3831C449.949 67.9784 449.801 67.6282 449.507 67.3297C449.213 67.0312 448.866 66.8848 448.461 66.8848H445.488C445.086 66.8848 444.735 67.034 444.442 67.3297C444.148 67.6253 444 67.9755 444 68.3831V71.3769C444 71.7816 444.148 72.1347 444.442 72.4303C444.735 72.726 445.083 72.8753 445.488 72.8753Z" fill="#E90E8B"/>
<path d="M433.593 60.8967H436.566C436.968 60.8967 437.319 60.7475 437.612 60.4518C437.906 60.1562 438.054 59.806 438.054 59.3984V56.4046C438.054 55.9999 437.906 55.6497 437.612 55.3512C437.319 55.0555 436.971 54.9062 436.566 54.9062H433.593C433.191 54.9062 432.841 55.0555 432.547 55.3512C432.254 55.6468 432.105 55.997 432.105 56.4046V59.3984C432.105 59.8031 432.254 60.1562 432.547 60.4518C432.841 60.7475 433.189 60.8967 433.593 60.8967Z" fill="#E90E8B"/>
<path d="M433.593 48.9221H436.566C436.968 48.9221 437.319 48.7729 437.612 48.4772C437.906 48.1816 438.054 47.8314 438.054 47.4238V44.43C438.054 44.0253 437.906 43.6751 437.612 43.3766C437.319 43.0809 436.971 42.9316 436.566 42.9316H433.593C433.191 42.9316 432.841 43.0809 432.547 43.3766C432.254 43.6722 432.105 44.0224 432.105 44.43V47.4238C432.105 47.8285 432.254 48.1787 432.547 48.4772C432.841 48.7729 433.189 48.9221 433.593 48.9221Z" fill="#E90E8B"/>
<path d="M445.488 36.9436H448.461C448.863 36.9436 449.213 36.7943 449.507 36.4987C449.801 36.2031 449.949 35.8529 449.949 35.4453V32.4515C449.949 32.0467 449.801 31.6937 449.507 31.398C449.213 31.1024 448.866 30.9531 448.461 30.9531H445.488C445.086 30.9531 444.735 31.1024 444.442 31.398C444.148 31.6937 444 32.0439 444 32.4515V35.4453C444 35.85 444.148 36.2002 444.442 36.4987C444.735 36.7943 445.083 36.9436 445.488 36.9436Z" fill="#E90E8B"/>
<path d="M445.488 24.969H448.461C448.863 24.969 449.213 24.8197 449.507 24.5241C449.801 24.2284 449.949 23.8783 449.949 23.4707V20.4769C449.949 20.0721 449.801 19.7191 449.507 19.4234C449.213 19.1278 448.866 18.9785 448.461 18.9785H445.488C445.086 18.9785 444.735 19.1278 444.442 19.4234C444.148 19.7191 444 20.0693 444 20.4769V23.4707C444 23.8754 444.148 24.2284 444.442 24.5241C444.735 24.8197 445.083 24.969 445.488 24.969Z" fill="#E90E8B"/>
<path d="M424.974 60.3768L397.294 32.4997C396.461 31.6616 395.116 31.6616 394.284 32.4997L366.601 60.3768C365.768 61.215 365.768 62.5698 366.601 63.408C367.433 64.2461 368.778 64.2461 369.611 63.408L374.494 58.491V88.696C374.494 89.8815 375.448 90.8402 376.623 90.8402H414.952C416.129 90.8402 417.081 89.8815 417.081 88.696V58.491L421.964 63.408C422.38 63.827 422.924 64.0366 423.469 64.0366C424.013 64.0366 424.558 63.827 424.974 63.408C425.806 62.5698 425.806 61.215 424.974 60.3768Z" fill="#29ABE2"/>
</svg>
