<svg width="314" height="314" viewBox="0 0 314 314" fill="none" xmlns="http://www.w3.org/2000/svg">
<g clip-path="url(#clip0_1392_592)">
<path d="M157 314C243.709 314 314 243.709 314 157C314 70.2913 243.709 0 157 0C70.2913 0 0 70.2913 0 157C0 243.709 70.2913 314 157 314Z" fill="#EFF8FD"/>
<path d="M156.992 249.913C209.486 249.913 252.042 207.357 252.042 154.863C252.042 102.368 209.486 59.8125 156.992 59.8125C104.497 59.8125 61.9414 102.368 61.9414 154.863C61.9414 207.357 104.497 249.913 156.992 249.913Z" fill="#E5F5F9"/>
<path d="M235.908 107.466V148.093C235.908 184.004 216.887 217.25 185.904 235.419L163.739 248.42C159.583 250.844 154.415 250.844 150.259 248.42L128.094 235.419C97.111 217.25 78.0898 184.004 78.0898 148.093V107.466C78.0898 104.935 79.8745 102.752 82.3523 102.245C92.4482 100.274 100.068 91.3755 100.068 80.6924C100.176 80.0455 99.4483 76.7476 102.305 74.7512C123.003 60.1041 190.985 60.0983 211.691 74.7512C214.561 76.7553 213.816 80.0205 213.928 80.6924C213.928 91.3755 221.548 100.274 231.644 102.245C234.121 102.752 235.906 104.937 235.906 107.466H235.908Z" fill="#64D3FF"/>
<path d="M210.358 73.8667C184.135 63.921 128.034 65.0607 109.45 78.2139C106.61 80.2007 107.301 83.5775 107.205 84.1532C107.205 94.8285 99.5869 103.738 89.4949 105.7C87.021 106.212 85.2344 108.405 85.2344 110.933V151.551C85.2344 187.468 104.254 220.715 135.238 238.885L154.046 249.915C150.546 249.11 150.833 248.517 128.098 235.422C97.113 217.252 78.0938 184.005 78.0938 148.088V107.47C78.0938 104.942 79.8784 102.751 82.3543 102.237C92.4463 100.275 100.064 91.3843 100.064 80.6897C100.178 80.0139 99.4348 76.7622 102.309 74.7504C122.611 60.3805 188.392 60.1437 210.358 73.8667Z" fill="#42C1F4"/>
<path d="M137.13 218.679C112.339 204.14 96.9414 177.245 96.9414 148.488V117.041C108.054 111.893 115.988 101.25 117.613 88.8654C136.418 81.2492 178.434 81.5765 196.387 88.85C198.002 101.216 205.913 111.845 217.06 117.022V148.488C217.06 177.247 201.66 204.142 176.871 218.679L156.999 230.335L137.129 218.681L137.13 218.679Z" fill="white"/>
<path d="M196.379 88.8616C196.56 90.2131 196.799 91.5357 197.161 92.8256C174.574 86.4455 138.767 88.1108 123.177 94.4178C121.556 106.824 113.626 117.457 102.511 122.593V154.044C102.511 174.59 110.351 194.175 123.868 208.984C106.987 193.694 96.9531 171.706 96.9531 148.488V117.037C108.067 111.901 115.997 101.237 117.62 88.8616C136.459 81.2397 178.496 81.5785 196.381 88.8616H196.379Z" fill="#E5F5F9"/>
<g opacity="0.3">
<path d="M229.864 111.085V137.624C229.864 139.478 228.366 140.952 226.512 140.952C224.658 140.952 223.184 139.478 223.184 137.624V111.085C223.184 109.254 224.658 107.756 226.512 107.756C228.366 107.756 229.864 109.254 229.864 111.085Z" fill="white"/>
</g>
<path d="M182.278 136.469H131.72C128.043 136.469 125.062 139.449 125.062 143.126V187.497C125.062 191.174 128.043 194.154 131.72 194.154H182.278C185.955 194.154 188.936 191.174 188.936 187.497V143.126C188.936 139.449 185.955 136.469 182.278 136.469Z" fill="#FCC922"/>
<path d="M131.72 182.418C130.428 182.418 129.371 181.365 129.371 180.069V143.126C129.371 141.83 130.426 140.775 131.72 140.775H182.278C183.574 140.775 184.631 141.828 184.631 143.126V180.069C184.631 181.363 183.576 182.418 182.278 182.418H131.72Z" fill="#FFA903"/>
<path d="M125.062 186.291V187.496C125.062 191.173 128.043 194.154 131.72 194.154H182.278C185.955 194.154 188.936 191.173 188.936 187.496V186.291H125.062Z" fill="#5B5E8B"/>
<path d="M181.907 127.729V136.462H172.364V128.168C172.364 119.701 165.506 112.817 157.012 112.817C148.518 112.817 141.661 119.701 141.661 128.168V136.462H132.117V127.729C132.117 114.026 143.23 102.861 157.012 102.861C170.795 102.861 181.907 114.026 181.907 127.729Z" fill="#5B5E8B"/>
<path d="M181.467 157.534V166.981C181.467 168.377 180.344 169.474 178.973 169.474H135.024C133.654 169.474 132.531 168.377 132.531 166.981V157.534C132.531 156.138 133.654 155.041 135.024 155.041H178.973C180.344 155.041 181.467 156.138 181.467 157.534Z" fill="white"/>
<path d="M181.447 167.186C181.345 168.489 180.286 169.467 178.962 169.467H135.032C133.648 169.467 132.527 168.387 132.527 166.982V157.533C132.527 156.208 133.546 155.149 134.828 155.068C134.809 155.13 134.809 155.211 134.809 155.272V164.721C134.809 166.106 135.929 167.207 137.294 167.207H181.243C181.305 167.207 181.386 167.207 181.447 167.186Z" fill="#E5F5F9"/>
<path d="M145.447 162.256C145.447 163.951 144.085 165.312 142.391 165.312C140.697 165.312 139.336 163.951 139.336 162.256C139.336 160.562 140.697 159.201 142.391 159.201C144.085 159.201 145.447 160.562 145.447 162.256Z" fill="#42C1F4"/>
<path d="M145.158 163.52C144.709 164.579 143.65 165.312 142.387 165.312C140.697 165.312 139.332 163.947 139.332 162.257C139.332 161.015 140.066 159.956 141.124 159.486C139.921 162.022 142.62 164.721 145.158 163.52Z" fill="#64D3FF"/>
<path d="M155.185 162.256C155.185 163.951 153.824 165.312 152.13 165.312C150.435 165.312 149.074 163.951 149.074 162.256C149.074 160.562 150.435 159.201 152.13 159.201C153.824 159.201 155.185 160.562 155.185 162.256Z" fill="#42C1F4"/>
<path d="M164.923 162.256C164.923 163.951 163.562 165.312 161.868 165.312C160.174 165.312 158.812 163.951 158.812 162.256C158.812 160.562 160.174 159.201 161.868 159.201C163.562 159.201 164.923 160.562 164.923 162.256Z" fill="#42C1F4"/>
<path d="M174.661 162.256C174.661 163.951 173.3 165.312 171.606 165.312C169.912 165.312 168.551 163.951 168.551 162.256C168.551 160.562 169.912 159.201 171.606 159.201C173.3 159.201 174.661 160.562 174.661 162.256Z" fill="#42C1F4"/>
<g opacity="0.3">
<path d="M170.219 146.813H148.926C147.961 146.813 147.18 146.031 147.18 145.066C147.18 144.102 147.961 143.32 148.926 143.32H170.219C171.183 143.32 171.965 144.102 171.965 145.066C171.965 146.031 171.183 146.813 170.219 146.813Z" fill="white"/>
</g>
<g opacity="0.3">
<path d="M179.279 146.813H176.293C175.329 146.813 174.547 146.031 174.547 145.066C174.547 144.102 175.329 143.32 176.293 143.32H179.279C180.244 143.32 181.025 144.102 181.025 145.066C181.025 146.031 180.244 146.813 179.279 146.813Z" fill="white"/>
</g>
<path d="M154.9 163.52C154.451 164.579 153.392 165.312 152.13 165.312C150.439 165.312 149.074 163.947 149.074 162.257C149.074 161.015 149.808 159.956 150.867 159.486C149.663 162.022 152.363 164.721 154.9 163.52Z" fill="#64D3FF"/>
<path d="M164.642 163.52C164.194 164.579 163.135 165.312 161.872 165.312C160.181 165.312 158.816 163.947 158.816 162.257C158.816 161.015 159.55 159.956 160.609 159.486C159.406 162.022 162.105 164.721 164.642 163.52Z" fill="#64D3FF"/>
<path d="M174.388 163.52C173.94 164.579 172.881 165.312 171.618 165.312C169.927 165.312 168.562 163.947 168.562 162.257C168.562 161.015 169.296 159.956 170.355 159.486C169.154 162.018 171.847 164.723 174.388 163.52Z" fill="#64D3FF"/>
<g opacity="0.3">
<path d="M178.839 229.315C177.999 227.885 178.481 226.043 179.911 225.203C195.825 215.87 208.312 201.985 216.021 185.047C216.706 183.536 218.487 182.868 220 183.557C221.511 184.244 222.177 186.027 221.49 187.536C213.267 205.608 199.939 220.425 182.953 230.388C181.515 231.231 179.674 230.74 178.839 229.315Z" fill="white"/>
<path d="M221.627 179.368C220.049 178.854 219.184 177.16 219.7 175.581C220.422 173.357 221.069 171.068 221.618 168.775C222.007 167.162 223.628 166.169 225.241 166.554C226.854 166.941 227.85 168.563 227.463 170.177C226.875 172.624 226.186 175.067 225.414 177.441C224.902 179.019 223.206 179.882 221.629 179.368H221.627Z" fill="white"/>
</g>
</g>
<defs>
<clipPath id="clip0_1392_592">
<rect width="314" height="314" fill="white"/>
</clipPath>
</defs>
</svg>
