<svg width="314" height="314" viewBox="0 0 314 314" fill="none" xmlns="http://www.w3.org/2000/svg">
<g clip-path="url(#clip0_1393_618)">
<path d="M157 314C243.709 314 314 243.709 314 157C314 70.2913 243.709 0 157 0C70.2913 0 0 70.2913 0 157C0 243.709 70.2913 314 157 314Z" fill="#EFF8FD"/>
<path d="M156.992 249.913C209.486 249.913 252.042 207.357 252.042 154.863C252.042 102.368 209.486 59.8125 156.992 59.8125C104.497 59.8125 61.9414 102.368 61.9414 154.863C61.9414 207.357 104.497 249.913 156.992 249.913Z" fill="#E5F5F9"/>
<path d="M243.714 248.861H76.3351C72.6194 248.861 69.9684 245.259 71.0735 241.711L83.9301 200.434C86.225 193.072 92.7361 188.082 100.031 188.082H220.02C227.344 188.082 233.824 193.072 236.121 200.434L248.978 241.711C250.083 245.259 247.432 248.861 243.716 248.861H243.714Z" fill="#64D3FF"/>
<path d="M180.397 188.084H139.711V248.863H180.397V188.084Z" fill="#E3E7F0"/>
<path d="M177.627 162.799V189.646C177.627 200.604 169.986 209.484 160.556 209.484H159.508C150.079 209.484 142.438 200.604 142.438 189.646V162.799H177.627Z" fill="#F5C9C6"/>
<path d="M204.462 120.492C204.462 124.435 204.142 128.316 203.561 132.043C199.404 158.228 181.504 177.912 160.028 177.912C138.552 177.912 120.649 158.226 116.495 132.043C115.913 128.316 115.594 124.435 115.594 120.492C115.594 104.597 120.592 90.241 128.672 79.8294C136.721 69.4794 147.793 63.0723 160.028 63.0723C172.263 63.0723 183.335 69.4794 191.384 79.8294C199.462 90.241 204.462 104.597 204.462 120.492Z" fill="#F4D6D4"/>
<path d="M128.036 72.105C126.408 68.3161 127.347 63.6359 129.8 60.3842C132.253 57.1306 136.001 55.188 139.848 54.3467C143.696 53.5054 147.672 53.6729 151.588 54.0117C158.045 54.57 164.467 55.5827 170.797 57.042C177.23 58.5244 183.618 60.4882 189.438 63.7476C195.257 67.007 200.511 71.6371 203.888 77.6246C208.091 85.0771 209.121 94.1006 208.773 102.774C208.251 115.723 204.581 128.252 198.621 139.569C197.547 129.44 196.472 119.309 195.398 109.181C195.013 105.55 194.578 101.769 192.678 98.7212C190.51 95.2423 186.7 93.2381 182.846 92.4084C178.991 91.5786 175.018 91.773 171.084 91.7884C163.27 91.8212 155.455 91.1358 147.751 89.7477C142.316 88.7678 134.965 85.8876 130.345 90.7373C128.26 92.9262 127.619 96.1818 127.076 99.239C124.698 112.604 122.322 125.971 119.945 139.336C113.333 124.925 110.307 108.85 111.458 92.8704C111.82 87.8437 112.629 82.6995 115.114 78.4024C117.602 74.1053 123.295 71.7584 128.038 72.105H128.036Z" fill="#1D2943"/>
<g opacity="0.15">
<path d="M177.624 186.117V164.006H137.402C140.435 175.345 158.499 186.729 177.624 186.117Z" fill="#26314C"/>
</g>
<path d="M115.734 124.082C115.867 126.783 116.091 129.459 116.493 132.043C120.649 158.228 138.55 177.911 160.026 177.911C181.502 177.911 199.405 158.228 203.559 132.043C203.962 129.457 204.185 126.783 204.318 124.082H115.734Z" fill="#F4D6D4"/>
<path d="M126.839 123.842C126.839 130.671 122.804 136.258 117.76 136.258C112.716 136.258 108.602 130.671 108.602 123.842C108.602 117.014 112.716 111.346 117.76 111.346C122.804 111.346 126.839 116.933 126.839 123.842Z" fill="#F4D6D4"/>
<path d="M211.433 123.842C211.433 130.671 207.398 136.258 202.354 136.258C197.31 136.258 193.195 130.671 193.195 123.842C193.195 117.014 197.308 111.346 202.354 111.346C207.4 111.346 211.433 116.933 211.433 123.842Z" fill="#F4D6D4"/>
<path d="M149.924 211.284C145.325 207.747 141.727 203.252 138.625 198.275L142.217 188.033C147.55 193.965 153.332 199.059 159.92 202.634L149.924 211.282V211.284Z" fill="white"/>
<path d="M169.914 211.284C175.021 207.786 178.604 203.337 181.213 198.275L177.62 188.033C172.432 193.724 166.523 198.583 159.918 202.634L169.914 211.282V211.284Z" fill="white"/>
<path d="M167.831 248.878L162.262 215.23H157.579L152.012 248.878H167.831Z" fill="#5B5E8B"/>
<path d="M142.288 188.694C142.352 188.486 142.454 188.29 142.523 188.082H137.456C137.229 188.298 136.982 188.471 136.757 188.694C131.312 194.031 126.355 201.075 118.702 209.552L130.452 216.444L117.699 224.617L134.148 248.861H152.461L141.886 200.862C140.998 196.805 141.112 192.568 142.286 188.694H142.288Z" fill="#42C1F4"/>
<path d="M168.397 209.957L159.907 221.052L151.445 209.957L159.936 202.646L168.397 209.957Z" fill="#5B5E8B"/>
<path d="M189.781 216.571L201.56 209.705C193.88 201.29 188.922 194.244 183.505 188.926C183.174 188.601 182.812 188.345 182.477 188.031H177.598C177.704 188.334 177.852 188.62 177.945 188.926C179.148 192.785 179.264 197.007 178.345 201.048L167.402 248.863H186.083L202.561 224.713L189.779 216.571H189.781Z" fill="#42C1F4"/>
<path d="M258.279 77.3364C276.691 77.3364 291.616 62.4102 291.616 43.9993C291.616 25.5884 276.689 10.6621 258.279 10.6621C239.868 10.6621 224.941 25.5884 224.941 43.9993C224.941 62.4102 239.868 77.3364 258.279 77.3364Z" fill="#7CD194"/>
<path d="M261.247 32.9121V41.2483H269.368V46.7525H261.247V55.0888H255.254V46.7525H247.191V41.2483H255.254V32.9121H261.247Z" fill="white"/>
</g>
<defs>
<clipPath id="clip0_1393_618">
<rect width="314" height="314" fill="white"/>
</clipPath>
</defs>
</svg>
