<svg width="269" height="250" viewBox="0 0 269 250" fill="none" xmlns="http://www.w3.org/2000/svg">
<g clip-path="url(#clip0_3_49)">
<path d="M266.31 96.8L144.46 3.96994C141.616 1.41129 137.925 -0.00442314 134.1 -0.00442314C130.274 -0.00442314 126.584 1.41129 123.74 3.96994L1.88984 96.8C1.38005 97.1786 0.952526 97.6566 0.633006 98.2053C0.313487 98.754 0.108563 99.362 0.0309556 99.9922C-0.0466516 100.622 0.00449815 101.262 0.181346 101.872C0.358194 102.481 0.657043 103.049 1.05976 103.54C1.89814 104.55 3.09467 105.198 4.39912 105.347C5.70357 105.496 7.01503 105.135 8.05976 104.34L28.8498 88.5V225.08C28.8498 238.29 40.0798 249.08 53.8498 249.08H214.33C228.13 249.08 239.33 238.33 239.33 225.08V88.49L260.13 104.34C261.017 104.999 262.095 105.35 263.2 105.34C263.945 105.345 264.682 105.183 265.357 104.867C266.032 104.55 266.627 104.086 267.1 103.51C267.5 103.022 267.797 102.459 267.975 101.854C268.152 101.248 268.206 100.613 268.132 99.987C268.058 99.3606 267.859 98.7553 267.546 98.2077C267.233 97.6601 266.812 97.1814 266.31 96.8V96.8ZM229.43 81.01V225.08C229.43 233 222.66 239.44 214.34 239.44H53.8601C45.5401 239.44 38.7702 233 38.7702 225.08V81.01C38.7702 81.01 38.7702 80.9599 38.7702 80.9399L130.1 11.3601L130.52 11C131.498 10.089 132.784 9.58249 134.12 9.58249C135.456 9.58249 136.743 10.089 137.72 11L229.47 80.9299C229.47 80.9299 229.43 80.98 229.43 81.01Z" fill="black"/>
</g>
<defs>
<clipPath id="clip0_3_49">
<rect width="268.2" height="249.05" fill="white"/>
</clipPath>
</defs>
</svg>
