<svg version="1.2" xmlns="http://www.w3.org/2000/svg" viewBox="0 -6 20 35" width="15" height="21"><style>.a{fill:none}</style><path class="a" d="m-5-2h24v24h-24z"/><path fill-rule="evenodd" d="m4 2v-1q0-0.2 0.1-0.4 0.1-0.2 0.2-0.3 0.1-0.1 0.3-0.2 0.2-0.1 0.4-0.1h4q0.2 0 0.4 0.1 0.2 0.1 0.3 0.2 0.1 0.1 0.2 0.3 0.1 0.2 0.1 0.4v1h3q0.2 0 0.4 0.1 0.2 0.1 0.3 0.2 0.1 0.1 0.2 0.3 0.1 0.2 0.1 0.4v16q0 0.2-0.1 0.4-0.1 0.2-0.2 0.3-0.1 0.1-0.3 0.2-0.2 0.1-0.4 0.1h-12q-0.2 0-0.4-0.1-0.2-0.1-0.3-0.2-0.1-0.1-0.2-0.3-0.1-0.2-0.1-0.4v-16q0-0.2 0.1-0.4 0.1-0.2 0.2-0.3 0.1-0.1 0.3-0.2 0.2-0.1 0.4-0.1zm2 2h-4v14h10v-14h-4v-2h-2zm2 6h3l-5 7v-5h-3l5-7z"/></svg>