<svg version="1.2" xmlns="http://www.w3.org/2000/svg" viewBox="0 0 16 16" width="16" height="16"><style>.a{fill:#222}</style><path fill-rule="evenodd" class="a" d="m11.1 0.6q1.4 0.6 2.6 1.7 1.1 1.2 1.7 2.6 0.6 1.5 0.6 3.1 0 1.6-0.6 3.1-0.6 1.4-1.7 2.6-1.2 1.1-2.6 1.7-1.5 0.6-3.1 0.6-1.6 0-3.1-0.6-1.4-0.6-2.6-1.7-1.1-1.2-1.7-2.6-0.6-1.5-0.6-3.1 0-1.6 0.6-3.1 0.6-1.4 1.7-2.6 1.2-1.1 2.6-1.7 1.5-0.6 3.1-0.6 1.6 0 3.1 0.6zm-5.8 0.9q-1.3 0.6-2.2 1.6-1 0.9-1.6 2.2-0.5 1.3-0.5 2.7 0 1.4 0.5 2.7 0.6 1.3 1.6 2.2 0.9 1 2.2 1.6 1.3 0.5 2.7 0.5 1.4 0 2.7-0.5 1.3-0.6 2.2-1.6 1-0.9 1.6-2.2 0.5-1.3 0.5-2.7 0-1.4-0.5-2.7-0.6-1.3-1.6-2.2-0.9-1-2.2-1.6-1.3-0.5-2.7-0.5-1.4 0-2.7 0.5z"/></svg>