<svg width="269" height="192" viewBox="0 0 269 192" fill="none" xmlns="http://www.w3.org/2000/svg">
<g clip-path="url(#clip0_3_53)">
<path d="M213.43 95.6499V137.89L142.34 166.19C137.093 167.815 131.483 167.86 126.21 166.32L54.7699 137.89V92.0999C51.5799 90.4799 48.4398 88.7401 45.1898 87.2701V141.14C45.1884 142.096 45.4735 143.031 46.0082 143.824C46.5429 144.618 47.3026 145.233 48.1898 145.59L123 175.34C126.562 176.444 130.271 177 134 176.99C137.915 176.985 141.806 176.385 145.54 175.21L220 145.59C220.887 145.233 221.647 144.618 222.182 143.824C222.716 143.031 223.001 142.096 223 141.14V90.47C219.77 92.13 216.55 93.8099 213.43 95.6499Z" fill="black"/>
<path d="M134.1 136.9C133.364 136.9 132.638 136.729 131.98 136.4L2.64001 72.47C1.83915 72.0727 1.16492 71.4597 0.693726 70.7C0.222529 69.9403 -0.0269775 69.0639 -0.0269775 68.17C-0.0269775 67.276 0.222529 66.3999 0.693726 65.6402C1.16492 64.8804 1.83915 64.2672 2.64001 63.8699L131.99 0.470001C132.646 0.149363 133.365 -0.0173035 134.095 -0.0173035C134.825 -0.0173035 135.545 0.149363 136.2 0.470001L265.52 63.8101C266.321 64.2074 266.995 64.8204 267.466 65.5801C267.937 66.3398 268.187 67.2159 268.187 68.1099C268.187 69.0039 267.937 69.8802 267.466 70.6399C266.995 71.3997 266.321 72.0127 265.52 72.4099L136.2 136.41C135.546 136.73 134.828 136.897 134.1 136.9V136.9ZM15.64 68.1599L134.11 126.76L252.58 68.1599L134.11 10.1599L15.64 68.1599Z" fill="black"/>
<path d="M21.1 149.66C20.4706 149.661 19.8473 149.538 19.2655 149.298C18.6838 149.058 18.1549 148.705 17.7098 148.26C17.2648 147.815 16.912 147.286 16.6718 146.705C16.4315 146.123 16.3086 145.499 16.3099 144.87V76.21C16.3099 74.9396 16.8145 73.7213 17.7128 72.823C18.6111 71.9247 19.8296 71.42 21.1 71.42C22.3704 71.42 23.5889 71.9247 24.4872 72.823C25.3855 73.7213 25.89 74.9396 25.89 76.21V144.87C25.8913 145.499 25.7685 146.123 25.5282 146.705C25.288 147.286 24.9352 147.815 24.4901 148.26C24.0451 148.705 23.5162 149.058 22.9345 149.298C22.3527 149.538 21.7294 149.661 21.1 149.66V149.66Z" fill="black"/>
<path d="M31.0199 191.58H11.1698C9.89941 191.58 8.68138 191.075 7.78308 190.177C6.88478 189.279 6.38025 188.06 6.38025 186.79V154.79C6.48026 150.954 8.07443 147.308 10.8231 144.63C13.5718 141.952 17.2575 140.454 21.0951 140.454C24.9326 140.454 28.6184 141.952 31.3671 144.63C34.1158 147.308 35.7099 150.954 35.8099 154.79V186.79C35.8099 188.06 35.3054 189.279 34.4071 190.177C33.5088 191.075 32.2903 191.58 31.0199 191.58ZM15.9598 182H26.2401V154.8C26.2401 153.437 25.6987 152.129 24.7347 151.166C23.7708 150.202 22.4632 149.66 21.1 149.66C19.7368 149.66 18.4296 150.202 17.4657 151.166C16.5018 152.129 15.9598 153.437 15.9598 154.8V182Z" fill="black"/>
</g>
<defs>
<clipPath id="clip0_3_53">
<rect width="268.2" height="191.57" fill="white"/>
</clipPath>
</defs>
</svg>
