<svg width="51" height="78" viewBox="0 0 51 78" fill="none" xmlns="http://www.w3.org/2000/svg">
<g clip-path="url(#clip0_3_47)">
<path d="M39.66 2.46C43.0322 3.80909 45.9448 6.10029 48.05 9.05999C49.8812 11.7654 50.8472 14.9633 50.82 18.23C50.9053 20.6194 50.4721 22.999 49.5503 25.2051C48.6285 27.4112 47.2399 29.3916 45.48 31.01C43.6638 32.6078 41.7392 34.078 39.72 35.41C37.6157 36.8263 35.6652 38.4585 33.9 40.28C32.6661 41.6829 32.0118 43.5026 32.07 45.37V46.73H13.63V44.73C13.5384 41.7196 14.073 38.723 15.2 35.93C16.0544 33.8455 17.2964 31.9418 18.86 30.32C20.4798 28.7866 22.2335 27.4011 24.1 26.18C25.4941 25.3176 26.7945 24.3122 27.98 23.18C28.361 22.7812 28.6589 22.3105 28.8563 21.7955C29.0537 21.2805 29.1468 20.7313 29.13 20.18C29.1584 19.6078 29.0498 19.0371 28.8132 18.5153C28.5767 17.9935 28.219 17.5358 27.77 17.18C26.5884 16.3998 25.1825 16.0307 23.77 16.13C20.07 16.13 16.4367 18.0167 12.87 21.79L-0.0199966 11.73C6.64667 3.91 15.3433 -3.34345e-06 26.07 -3.34345e-06C30.7214 -0.128438 35.3488 0.709201 39.66 2.46V2.46ZM30.6 58.73C32.3421 60.4971 33.4185 62.8128 33.6464 65.2838C33.8742 67.7547 33.2395 70.2283 31.8499 72.2841C30.4604 74.34 28.4019 75.8513 26.0242 76.5611C23.6465 77.271 21.0964 77.1357 18.8072 76.1781C16.518 75.2205 14.631 73.4998 13.4669 71.3084C12.3028 69.117 11.9335 66.5901 12.4216 64.1572C12.9097 61.7243 14.2252 59.5355 16.1446 57.9628C18.0639 56.39 20.4686 55.5304 22.95 55.53C24.3762 55.512 25.7909 55.7867 27.1067 56.3371C28.4225 56.8875 29.6114 57.7019 30.6 58.73Z" fill="black"/>
</g>
<defs>
<clipPath id="clip0_3_47">
<rect width="50.82" height="77.12" fill="white"/>
</clipPath>
</defs>
</svg>
