<svg width="23" height="23" viewBox="0 0 23 23" fill="none" xmlns="http://www.w3.org/2000/svg">
<path fill-rule="evenodd" clip-rule="evenodd" d="M0.464844 8.92836C0.464844 7.09399 1.9519 5.60693 3.78627 5.60693H14.072C15.9064 5.60693 17.3934 7.09399 17.3934 8.92836V19.2141C17.3934 21.0485 15.9064 22.5355 14.072 22.5355H3.78627C1.9519 22.5355 0.464844 21.0485 0.464844 19.2141V8.92836ZM3.78627 7.10693C2.78032 7.10693 1.96484 7.92241 1.96484 8.92836V19.2141C1.96484 20.22 2.78032 21.0355 3.78627 21.0355H14.072C15.0779 21.0355 15.8934 20.22 15.8934 19.2141V8.92836C15.8934 7.92241 15.0779 7.10693 14.072 7.10693H3.78627Z" fill="#636363"/>
<path fill-rule="evenodd" clip-rule="evenodd" d="M19.2121 0.46875L19.2161 0.468751C21.0505 0.468751 22.5379 1.95581 22.5379 3.79018V14.0714C22.5379 15.9058 21.0509 17.3929 19.2165 17.3929H16.6451C16.2309 17.3929 15.8951 17.0571 15.8951 16.6429C15.8951 16.2287 16.2309 15.8929 16.6451 15.8929H19.2165C20.2225 15.8929 21.0379 15.0774 21.0379 14.0714V3.79018C21.0379 2.78423 20.2225 1.96875 19.2165 1.96875H19.2125L8.92766 1.98652C7.92294 1.98826 7.10938 2.80323 7.10938 3.80795V6.35716C7.10938 6.77138 6.77359 7.10716 6.35938 7.10716C5.94516 7.10716 5.60938 6.77138 5.60938 6.35716V3.80795C5.60938 1.97582 7.09293 0.489691 8.92507 0.486526L19.2121 0.46875Z" fill="#636363"/>
<path fill-rule="evenodd" clip-rule="evenodd" d="M8.92969 9.46436C9.3439 9.46436 9.67969 9.80014 9.67969 10.2144V17.9286C9.67969 18.3429 9.3439 18.6786 8.92969 18.6786C8.51547 18.6786 8.17969 18.3429 8.17969 17.9286V10.2144C8.17969 9.80014 8.51547 9.46436 8.92969 9.46436Z" fill="#636363"/>
<path fill-rule="evenodd" clip-rule="evenodd" d="M13.5352 14.0713C13.5352 14.4855 13.1994 14.8213 12.7852 14.8213H5.07087C4.65666 14.8213 4.32087 14.4855 4.32087 14.0713C4.32087 13.6571 4.65666 13.3213 5.07087 13.3213H12.7852C13.1994 13.3213 13.5352 13.6571 13.5352 14.0713Z" fill="#636363"/>
</svg>
