<svg width="80" height="77" viewBox="0 0 80 77" fill="none" xmlns="http://www.w3.org/2000/svg">
<g clip-path="url(#clip0_3_24)">
<path d="M75.67 60.8H71.12V55.95H75.67C76.8184 55.95 77.9197 55.4938 78.7318 54.6818C79.5438 53.8697 80 52.7684 80 51.62C80 50.4716 79.5438 49.3703 78.7318 48.5582C77.9197 47.7462 76.8184 47.29 75.67 47.29H71.12V46.17C71.1174 44.6538 70.5139 43.2004 69.4417 42.1283C68.3696 41.0561 66.9162 40.4526 65.4 40.45H55.02C51.4054 40.4452 47.8701 41.5086 44.858 43.5066C41.8458 45.5046 39.4913 48.3481 38.09 51.68C36.6958 51.7345 35.3532 52.2222 34.2491 53.0753C33.1451 53.9285 32.3344 55.1046 31.93 56.44H7.54999C6.57664 56.44 5.64318 56.0533 4.95493 55.3651C4.26667 54.6768 3.88 53.7433 3.88 52.77V38.34C3.88 37.858 3.97493 37.3808 4.15936 36.9355C4.3438 36.4903 4.61413 36.0857 4.95493 35.7449C5.29572 35.4041 5.70027 35.1338 6.14554 34.9493C6.5908 34.7649 7.06804 34.67 7.54999 34.67H9.45001C9.96453 34.67 10.458 34.4656 10.8218 34.1018C11.1856 33.738 11.39 33.2445 11.39 32.73C11.39 32.2155 11.1856 31.722 10.8218 31.3582C10.458 30.9944 9.96453 30.79 9.45001 30.79H7.54999C5.54842 30.7927 3.62959 31.5889 2.21426 33.0043C0.798937 34.4196 0.00264584 36.3384 0 38.34V52.77C0.00264584 54.7716 0.798937 56.6904 2.21426 58.1057C3.62959 59.521 5.54842 60.3174 7.54999 60.32H31.93C32.3376 61.6489 33.1467 62.819 34.2461 63.6695C35.3455 64.52 36.6813 65.0093 38.07 65.07C39.4173 68.3891 41.7242 71.2307 44.6957 73.2313C47.6671 75.2318 51.1679 76.3003 54.75 76.3H65.45C66.9653 76.3 68.4187 75.6987 69.4911 74.6282C70.5635 73.5576 71.1674 72.1053 71.17 70.59V69.47H75.72C76.8337 69.4165 77.8841 68.9364 78.6534 68.1293C79.4226 67.3222 79.8517 66.25 79.8517 65.135C79.8517 64.02 79.4226 62.9478 78.6534 62.1407C77.8841 61.3336 76.8337 60.8535 75.72 60.8H75.67ZM61.42 70.8C61.42 70.9786 61.3498 71.1501 61.2244 71.2773C61.099 71.4046 60.9286 71.4774 60.75 71.48H54.75C51.9056 71.4727 49.1407 70.5413 46.8717 68.826C44.6027 67.1108 42.9526 64.7046 42.17 61.97C42.0239 61.4695 41.718 61.0305 41.2992 60.7199C40.8803 60.4094 40.3714 60.2444 39.85 60.25H38.45C37.9991 60.2593 37.5591 60.1103 37.2065 59.829C36.8539 59.5477 36.611 59.1518 36.52 58.71C36.4749 58.4449 36.4882 58.1733 36.5589 57.9138C36.6295 57.6544 36.7559 57.4135 36.9291 57.2079C37.1023 57.0023 37.3183 56.837 37.562 56.7233C37.8056 56.6097 38.0711 56.5505 38.34 56.55H39.81C40.3293 56.553 40.8357 56.3881 41.2538 56.08C41.6718 55.7719 41.9792 55.3369 42.13 54.84C42.9646 52.0753 44.6707 49.6546 46.9937 47.9389C49.3167 46.2233 52.1321 45.3046 55.02 45.32H60.75C60.8388 45.32 60.9268 45.3377 61.0087 45.3719C61.0907 45.4062 61.165 45.4565 61.2273 45.5197C61.2897 45.583 61.3388 45.6581 61.3719 45.7405C61.405 45.823 61.4213 45.9112 61.42 46V70.8Z" fill="black"/>
<path d="M15.13 33.7H24.3L21.37 51.04C21.3461 51.2396 21.3829 51.4418 21.4757 51.6202C21.5684 51.7986 21.7129 51.9449 21.89 52.04C22.0253 52.1015 22.1715 52.1355 22.32 52.14C22.453 52.1381 22.5843 52.1098 22.7062 52.0565C22.8282 52.0033 22.9382 51.9263 23.03 51.83L44.97 28.27C45.0959 28.1297 45.1796 27.9567 45.2115 27.771C45.2433 27.5852 45.222 27.3942 45.15 27.22C45.0726 27.0476 44.9479 26.9007 44.7903 26.7963C44.6328 26.6918 44.449 26.6342 44.26 26.63H35.09L38.02 9.29001C38.043 9.0893 38.0047 8.8863 37.9101 8.7078C37.8155 8.52929 37.669 8.38365 37.49 8.29001C37.3017 8.20227 37.0908 8.17532 36.8865 8.21295C36.6822 8.25059 36.4947 8.35093 36.35 8.5L14.42 32.06C14.2941 32.2003 14.2104 32.3732 14.1785 32.559C14.1467 32.7448 14.168 32.9358 14.24 33.11C14.3174 33.2824 14.4422 33.4293 14.5997 33.5337C14.7572 33.6381 14.9411 33.6958 15.13 33.7Z" fill="black"/>
<path d="M46.8 18.73H53L51 30.73C50.977 30.9307 51.0153 31.1337 51.1099 31.3122C51.2045 31.4907 51.351 31.6364 51.53 31.73C51.6629 31.7981 51.8106 31.8325 51.96 31.83C52.093 31.8282 52.2243 31.7998 52.3463 31.7466C52.4682 31.6933 52.5782 31.6163 52.67 31.52L68.3 14.73C68.4161 14.5877 68.4907 14.4162 68.5158 14.2342C68.5408 14.0523 68.5153 13.8669 68.4419 13.6986C68.3686 13.5302 68.2503 13.3853 68.1 13.2797C67.9497 13.1741 67.7733 13.1119 67.59 13.1H61.35L63.35 1.10002C63.3684 0.899161 63.3257 0.69742 63.2274 0.521285C63.1291 0.345149 62.9799 0.202854 62.7993 0.113082C62.6186 0.0233099 62.4151 -0.00974466 62.2153 0.0182636C62.0156 0.0462719 61.829 0.134016 61.68 0.270003L46.05 17.07C45.9339 17.2123 45.8593 17.3839 45.8342 17.5658C45.8092 17.7478 45.8347 17.9331 45.9081 18.1015C45.9814 18.2698 46.0997 18.4148 46.25 18.5203C46.4003 18.6259 46.5767 18.6881 46.76 18.7L46.8 18.73Z" fill="black"/>
</g>
<defs>
<clipPath id="clip0_3_24">
<rect width="80" height="76.31" fill="white"/>
</clipPath>
</defs>
</svg>
