<svg width="37" height="37" viewBox="0 0 37 37" fill="none" xmlns="http://www.w3.org/2000/svg">
<g filter="url(#filter0_d_1034_839)">
<path d="M32.374 9.75569C32.3686 9.05804 32.221 8.36882 31.9402 7.73016C31.6594 7.0915 31.2513 6.51681 30.7408 6.04124C28.7174 4.13343 25.4365 4.20569 23.4275 6.21468L20.2623 9.37991C19.6002 8.7802 18.733 8.45778 17.84 8.4793C16.9469 8.50082 16.0963 8.86463 15.4639 9.49554L14.4521 10.5073C14.0232 10.9426 13.7827 11.5293 13.7827 12.1405C13.7827 12.7516 14.0232 13.3383 14.4521 13.7737L14.7557 14.0772L7.47128 21.3471C6.80729 22.0165 6.31571 22.837 6.03879 23.7383C5.76187 24.6396 5.70787 25.5946 5.88144 26.5213L4.46503 29.7588C4.30333 30.1242 4.25682 30.5302 4.3317 30.9227C4.40659 31.3152 4.5993 31.6755 4.88417 31.9557C5.09755 32.1718 5.3519 32.3433 5.63233 32.4599C5.91277 32.5765 6.21365 32.6361 6.51738 32.635C6.83523 32.6354 7.14988 32.5715 7.44238 32.4471L10.4775 31.1174C11.4043 31.291 12.3593 31.237 13.2605 30.9601C14.1618 30.6831 14.9824 30.1916 15.6518 29.5276L22.9217 22.2432L23.2252 22.5467C23.4389 22.7626 23.6932 22.9339 23.9736 23.0509C24.2539 23.1679 24.5546 23.2281 24.8584 23.2281C25.1621 23.2281 25.4629 23.1679 25.7432 23.0509C26.0235 22.9339 26.2779 22.7626 26.4916 22.5467L27.5033 21.535C28.1342 20.9026 28.498 20.0519 28.5196 19.1589C28.5411 18.2658 28.2187 17.3986 27.6189 16.7366L30.8564 13.5135C31.3466 13.0195 31.7333 12.4328 31.9938 11.7875C32.2544 11.1423 32.3837 10.4515 32.374 9.75569ZM14.0185 27.8944C13.5851 28.3214 13.0482 28.6285 12.4604 28.7856C11.8726 28.9426 11.2541 28.9443 10.6654 28.7905C10.411 28.7219 10.1407 28.7423 9.89941 28.8483L6.79199 30.2069L8.15058 27.0994C8.25659 26.8582 8.27699 26.5879 8.20839 26.3334C8.05452 25.7448 8.05621 25.1262 8.21329 24.5384C8.37038 23.9506 8.67747 23.4137 9.10449 22.9803L16.3889 15.7104L21.2885 20.61L14.0185 27.8944Z" fill="white"/>
</g>
<defs>
<filter id="filter0_d_1034_839" x="-5.70312" y="-5.34229" width="48.0781" height="47.9771" filterUnits="userSpaceOnUse" color-interpolation-filters="sRGB">
<feFlood flood-opacity="0" result="BackgroundImageFix"/>
<feColorMatrix in="SourceAlpha" type="matrix" values="0 0 0 0 0 0 0 0 0 0 0 0 0 0 0 0 0 0 127 0" result="hardAlpha"/>
<feOffset/>
<feGaussianBlur stdDeviation="5"/>
<feComposite in2="hardAlpha" operator="out"/>
<feColorMatrix type="matrix" values="0 0 0 0 0 0 0 0 0 0 0 0 0 0 0 0 0 0 0.3 0"/>
<feBlend mode="normal" in2="BackgroundImageFix" result="effect1_dropShadow_1034_839"/>
<feBlend mode="normal" in="SourceGraphic" in2="effect1_dropShadow_1034_839" result="shape"/>
</filter>
</defs>
</svg>
