<svg version="1.2" xmlns="http://www.w3.org/2000/svg" viewBox="0 0 32 32" width="32" height="32">
	<title>9044470_fit_to_width_icon-svg</title>
	<style>
		.s0 { fill: #000000 } 
		.s1 { fill: none } 
	</style>
	<path id="Layer" class="s0" d="m22 11l5 5-5 5-1.4-1.4 2.6-2.6h-14.4l2.6 2.6-1.4 1.4-5-5 5-5 1.4 1.4-2.6 2.6h14.4l-2.6-2.6 1.4-1.4z"/>
	<path id="Layer" fill-rule="evenodd" class="s0" d="m28 30h-24q-0.4 0-0.8-0.2-0.3-0.1-0.6-0.4-0.3-0.3-0.4-0.6-0.2-0.4-0.2-0.8v-24q0-0.4 0.2-0.8 0.1-0.3 0.4-0.6 0.3-0.3 0.6-0.4 0.4-0.2 0.8-0.2h24q0.4 0 0.8 0.2 0.3 0.1 0.6 0.4 0.3 0.3 0.4 0.6 0.2 0.4 0.2 0.8v24q0 0.4-0.2 0.8-0.1 0.3-0.4 0.6-0.3 0.3-0.6 0.4-0.4 0.2-0.8 0.2zm-24-26v24h24v-24z"/>
	<path id="_Transparent_Rectangle_" class="s1" d="m0 0h32v32h-32z"/>
</svg>