<svg width="64" height="80" viewBox="0 0 64 80" fill="none" xmlns="http://www.w3.org/2000/svg">
<g clip-path="url(#clip0_3_2)">
<path d="M40.92 77.06H12.2C11.8102 77.06 11.4362 77.2149 11.1605 77.4906C10.8849 77.7662 10.73 78.1401 10.73 78.53C10.73 78.9199 10.8849 79.2938 11.1605 79.5695C11.4362 79.8451 11.8102 80 12.2 80H40.92C41.3099 80 41.6837 79.8451 41.9594 79.5695C42.2351 79.2938 42.39 78.9199 42.39 78.53C42.39 78.1401 42.2351 77.7662 41.9594 77.4906C41.6837 77.2149 41.3099 77.06 40.92 77.06V77.06Z" fill="black"/>
<path d="M50.9 77.06H50.62C50.2301 77.06 49.8563 77.2149 49.5806 77.4906C49.3049 77.7662 49.15 78.1401 49.15 78.53C49.15 78.9199 49.3049 79.2938 49.5806 79.5695C49.8563 79.8451 50.2301 80 50.62 80H50.9C51.2898 80 51.6638 79.8451 51.9395 79.5695C52.2151 79.2938 52.37 78.9199 52.37 78.53C52.37 78.1401 52.2151 77.7662 51.9395 77.4906C51.6638 77.2149 51.2898 77.06 50.9 77.06Z" fill="black"/>
<path d="M46.02 77.06H45.73C45.3401 77.06 44.9662 77.2149 44.6906 77.4906C44.4149 77.7662 44.26 78.1401 44.26 78.53C44.26 78.9199 44.4149 79.2938 44.6906 79.5695C44.9662 79.8451 45.3401 80 45.73 80H46.02C46.4098 80 46.7838 79.8451 47.0595 79.5695C47.3351 79.2938 47.49 78.9199 47.49 78.53C47.49 78.1401 47.3351 77.7662 47.0595 77.4906C46.7838 77.2149 46.4098 77.06 46.02 77.06Z" fill="black"/>
<path d="M62.72 53.29C64.72 41.29 58.27 32.79 50.98 25.39C47.51 21.87 36.9801 11.16 44.2001 0.770001C44.2582 0.684216 44.2889 0.582734 44.2879 0.479077C44.287 0.37542 44.2545 0.274489 44.1948 0.189771C44.1351 0.105052 44.0509 0.0405581 43.9536 0.00486459C43.8563 -0.0308289 43.7504 -0.0360044 43.65 -0.00999747C24.49 4.88 14.79 15.6 17.65 28.66C18.3136 31.3301 19.2104 33.9368 20.3301 36.45C21.9701 40.45 23.53 44.23 23.03 48.45C21.6632 45.6291 19.8612 43.0408 17.69 40.78C14.17 36.78 11.12 33.28 12.22 25.12C12.2337 25.0194 12.217 24.917 12.1722 24.826C12.1273 24.735 12.0564 24.6594 11.9683 24.6089C11.8802 24.5584 11.7791 24.5354 11.6779 24.5427C11.5767 24.55 11.4799 24.5874 11.4 24.65C3.40001 31.1 -0.739961 40.29 0.0600395 49.88C0.472718 54.4971 2.00889 58.9431 4.53459 62.8302C7.06028 66.7172 10.4988 69.9272 14.55 72.18H4.35002C3.96015 72.18 3.58627 72.3349 3.31059 72.6105C3.03491 72.8862 2.88005 73.2601 2.88005 73.65C2.88005 74.0398 3.03491 74.4138 3.31059 74.6894C3.58627 74.9651 3.96015 75.12 4.35002 75.12H58.81C59.1999 75.12 59.5738 74.9651 59.8495 74.6894C60.1251 74.4138 60.28 74.0398 60.28 73.65C60.28 73.2601 60.1251 72.8862 59.8495 72.6105C59.5738 72.3349 59.1999 72.18 58.81 72.18H49.94C53.2925 70.1229 56.1668 67.3734 58.3708 64.1157C60.5748 60.858 62.0576 57.1671 62.72 53.29V53.29ZM8.03001 41.45C7.12964 44.4549 6.93126 47.6263 7.45005 50.72C7.4758 50.853 7.47426 50.9898 7.44554 51.1221C7.41681 51.2545 7.36149 51.3797 7.28294 51.49C7.20439 51.6004 7.10424 51.6936 6.98857 51.7641C6.8729 51.8346 6.74411 51.8808 6.61003 51.9H6.44004C6.19888 51.9027 5.96481 51.8182 5.78105 51.662C5.59728 51.5058 5.47621 51.2885 5.44004 51.05C4.87078 47.6491 5.08975 44.1629 6.08006 40.86C6.11814 40.7287 6.18169 40.6061 6.26713 40.4994C6.35257 40.3926 6.4582 40.3038 6.57798 40.2378C6.69777 40.1719 6.82935 40.1302 6.96525 40.1151C7.10115 40.1001 7.23872 40.1119 7.37004 40.15C7.50136 40.1881 7.62388 40.2516 7.73063 40.3371C7.83738 40.4225 7.92624 40.5281 7.99217 40.6479C8.0581 40.7677 8.09984 40.8993 8.11491 41.0352C8.12998 41.1711 8.11814 41.3087 8.08006 41.44L8.03001 41.45ZM25.69 18.45C25.0084 19.6817 24.6041 21.0476 24.5057 22.4519C24.4072 23.8563 24.6169 25.2652 25.12 26.58C25.1667 26.7061 25.188 26.8401 25.1828 26.9744C25.1776 27.1087 25.1461 27.2407 25.0899 27.3628C25.0337 27.4849 24.954 27.5947 24.8554 27.686C24.7568 27.7774 24.6411 27.8484 24.5151 27.895C24.389 27.9416 24.255 27.9629 24.1206 27.9578C23.9863 27.9526 23.8543 27.921 23.7322 27.8648C23.6101 27.8087 23.5003 27.729 23.409 27.6304C23.3177 27.5317 23.2467 27.4161 23.2001 27.29C22.5931 25.7072 22.3394 24.0109 22.4568 22.3197C22.5743 20.6286 23.0601 18.9836 23.88 17.5C24.006 17.26 24.2222 17.0798 24.481 16.9992C24.7398 16.9185 25.02 16.944 25.2601 17.07C25.5001 17.196 25.6802 17.4121 25.7608 17.6709C25.8415 17.9297 25.816 18.21 25.69 18.45V18.45ZM50.34 33.45C50.443 33.3622 50.5628 33.2962 50.6921 33.2561C50.8214 33.216 50.9575 33.2025 51.0921 33.2166C51.2268 33.2306 51.3572 33.2718 51.4754 33.3377C51.5937 33.4036 51.6973 33.4928 51.78 33.6C56.95 40.03 58.78 45.89 57.63 52.6C57.5939 52.8384 57.4727 53.0558 57.289 53.212C57.1052 53.3682 56.8712 53.4527 56.63 53.45H56.46C56.3259 53.4308 56.1972 53.3845 56.0815 53.3141C55.9659 53.2436 55.8657 53.1504 55.7872 53.04C55.7086 52.9297 55.6533 52.8045 55.6246 52.6722C55.5958 52.5398 55.5943 52.403 55.62 52.27C56.62 46.09 55.03 40.88 50.19 34.88C50.1054 34.7774 50.0421 34.659 50.0038 34.5317C49.9654 34.4044 49.9529 34.2707 49.9669 34.1385C49.9809 34.0063 50.0211 33.8782 50.0851 33.7617C50.1492 33.6452 50.2358 33.5426 50.34 33.46V33.45Z" fill="black"/>
</g>
<defs>
<clipPath id="clip0_3_2">
<rect width="63.09" height="80" fill="white"/>
</clipPath>
</defs>
</svg>
