<svg width="80" height="80" viewBox="0 0 80 80" fill="none" xmlns="http://www.w3.org/2000/svg">
<g clip-path="url(#clip0_3_28)">
<path d="M68.28 11.72C64.5761 7.99249 60.1692 5.03718 55.3148 3.02536C50.4603 1.01354 45.2548 -0.0147775 40 4.5429e-06C29.3913 4.5429e-06 19.2172 4.21428 11.7157 11.7157C4.21427 19.2172 0 29.3913 0 40C0 50.6087 4.21427 60.7828 11.7157 68.2843C19.2172 75.7857 29.3913 80 40 80C47.91 79.9983 55.642 77.6515 62.2184 73.2561C68.7947 68.8607 73.9203 62.6142 76.9471 55.3062C79.9739 47.9982 80.766 39.9568 79.2233 32.1987C77.6806 24.4406 73.8724 17.3141 68.28 11.72V11.72ZM64.34 64.34C58.7083 69.9737 51.2973 73.4804 43.3699 74.2623C35.4425 75.0443 27.4892 73.0533 20.8652 68.6285C14.2413 64.2037 9.35659 57.6189 7.04349 49.9963C4.73038 42.3736 5.13203 34.1847 8.17993 26.825C11.2278 19.4653 16.7334 13.3902 23.7585 9.63477C30.7837 5.87939 38.8936 4.67615 46.7065 6.23011C54.5193 7.78406 61.5516 11.999 66.605 18.1568C71.6585 24.3146 74.4203 32.0341 74.42 40C74.4319 44.5219 73.5471 49.0014 71.8169 53.1792C70.0867 57.3571 67.5454 61.1505 64.34 64.34V64.34Z" fill="black"/>
<path d="M70.06 43C69.8832 42.9731 69.7029 42.9817 69.5294 43.0251C69.3559 43.0685 69.1928 43.146 69.0496 43.253C68.9063 43.36 68.7857 43.4944 68.6948 43.6484C68.6039 43.8023 68.5445 43.9728 68.52 44.15C67.6444 50.3093 64.7829 56.0147 60.37 60.4C56.7853 63.9636 52.3315 66.5283 47.45 67.84C44.4125 68.6617 41.26 68.9759 38.12 68.77C37.5962 68.7399 37.0859 68.5921 36.6271 68.3376C36.1683 68.0831 35.7728 67.7284 35.47 67.3C35.1601 66.8727 34.9491 66.3819 34.8522 65.863C34.7554 65.3442 34.7751 64.8103 34.91 64.3L38.23 51.9C38.8167 51.9778 39.4083 52.0113 40 52C42.71 51.9973 45.3394 51.0774 47.46 49.39L53.67 55.6C53.8 55.7322 53.9559 55.836 54.1281 55.9049C54.3002 55.9737 54.4847 56.0061 54.67 56C54.8555 56.0074 55.0403 55.9755 55.2127 55.9066C55.385 55.8377 55.5408 55.7332 55.67 55.6C55.7982 55.4751 55.9001 55.3258 55.9697 55.161C56.0393 54.9961 56.0751 54.819 56.0751 54.64C56.0751 54.461 56.0393 54.2839 55.9697 54.119C55.9001 53.9541 55.7982 53.8048 55.67 53.68L49.46 47.47C50.4819 46.1849 51.2279 44.7028 51.6511 43.1164C52.0744 41.53 52.1659 39.8734 51.92 38.25L64.32 34.92C65.2165 34.6762 66.048 34.2372 66.7549 33.6344C67.4618 33.0315 68.0266 32.2798 68.4088 31.433C68.7911 30.5863 68.9814 29.6655 68.966 28.7366C68.9507 27.8076 68.7301 26.8936 68.32 26.06C66.3354 22.0581 63.5279 18.5205 60.0813 15.6788C56.6347 12.8371 52.6269 10.7554 48.32 9.56999H48.26C41.8938 7.88554 35.1621 8.21392 28.99 10.51C28.6536 10.6378 28.3815 10.8937 28.2334 11.2218C28.0854 11.5498 28.0734 11.9231 28.2 12.26C28.3301 12.5949 28.5858 12.8659 28.9126 13.0153C29.2394 13.1647 29.6116 13.1807 29.95 13.06C35.5761 10.9617 41.7141 10.6578 47.52 12.19V12.19C51.4782 13.2587 55.164 15.1567 58.3328 17.7583C61.5016 20.3599 64.0811 23.6056 65.9 27.28C66.1282 27.7457 66.251 28.2559 66.2596 28.7744C66.2683 29.2929 66.1626 29.807 65.95 30.28C65.7316 30.7671 65.4074 31.1994 65.0009 31.5454C64.5943 31.8913 64.1158 32.1423 63.6 32.28L51.22 35.59C50.6207 34.0605 49.7118 32.6714 48.5502 31.5098C47.3886 30.3482 45.9995 29.4393 44.47 28.84L46.76 20.26C46.8222 20.0832 46.8472 19.8954 46.8334 19.7085C46.8196 19.5216 46.7673 19.3395 46.6798 19.1738C46.5923 19.008 46.4715 18.8621 46.3249 18.7453C46.1783 18.6284 46.0092 18.5431 45.8281 18.4947C45.647 18.4464 45.4579 18.4359 45.2726 18.4641C45.0873 18.4923 44.9098 18.5585 44.7513 18.6585C44.5928 18.7585 44.4567 18.8902 44.3515 19.0454C44.2463 19.2005 44.1743 19.3757 44.14 19.56L41.83 28.15C40.2066 27.9041 38.55 27.9956 36.9636 28.4189C35.3772 28.8421 33.8951 29.588 32.61 30.61L23.55 21.54C22.8914 20.881 22.0951 20.3759 21.2181 20.0612C20.3412 19.7465 19.4054 19.6299 18.4781 19.7198C17.5507 19.8097 16.6548 20.1038 15.8546 20.581C15.0544 21.0582 14.3698 21.7068 13.85 22.48C11.3752 26.2056 9.7163 30.4124 8.98212 34.8244C8.24794 39.2364 8.45509 43.7537 9.59 48.08C9.59 48.08 9.59 48.13 9.59 48.15C11.0197 53.4987 13.8343 58.376 17.75 62.29C18.2 62.73 18.66 63.17 19.13 63.58C19.3781 63.8 19.6984 63.921 20.03 63.92C20.3065 63.9232 20.5774 63.8414 20.8059 63.6857C21.0344 63.53 21.2096 63.3079 21.3078 63.0493C21.406 62.7908 21.4224 62.5084 21.3548 62.2402C21.2873 61.9721 21.139 61.7311 20.93 61.55C20.51 61.17 20.09 60.77 19.68 60.36C16.1054 56.7962 13.5325 52.3539 12.22 47.48V47.48C11.162 43.518 10.9563 39.3766 11.6165 35.3292C12.2767 31.2818 13.7877 27.4204 16.05 24C16.3408 23.5636 16.7249 23.1973 17.1745 22.9275C17.6242 22.6578 18.1281 22.4912 18.65 22.44C19.1772 22.3828 19.7105 22.4428 20.2119 22.6156C20.7132 22.7885 21.1701 23.07 21.55 23.44L30.62 32.5C29.5999 33.7881 28.8552 35.272 28.432 36.8597C28.0089 38.4474 27.9163 40.1051 28.16 41.73L19.63 44.01C19.3145 44.0979 19.0414 44.2967 18.8608 44.5698C18.6801 44.843 18.604 45.1721 18.6466 45.4968C18.6892 45.8215 18.8475 46.12 19.0924 46.3373C19.3374 46.5547 19.6526 46.6764 19.98 46.68C20.0962 46.6947 20.2138 46.6947 20.33 46.68L28.85 44.4C29.4493 45.9295 30.3582 47.3186 31.5198 48.4802C32.6814 49.6418 34.0705 50.5507 35.6 51.15L32.29 63.53C32.0487 64.4295 32.0095 65.3713 32.1752 66.2878C32.3409 67.2043 32.7075 68.0727 33.2485 68.8307C33.7896 69.5888 34.4917 70.2177 35.3046 70.6723C36.1175 71.1268 37.0209 71.3958 37.95 71.46C38.6167 71.5 39.2833 71.52 39.95 71.52C48.3199 71.5211 56.3492 68.2059 62.28 62.3V62.3C67.1084 57.4947 70.2368 51.245 71.19 44.5C71.2332 44.1522 71.1394 43.8012 70.9286 43.5213C70.7177 43.2414 70.4062 43.0544 70.06 43V43ZM41.3 44.4C42.0353 44.1843 42.7054 43.7891 43.25 43.25C44.0086 42.4909 44.476 41.4891 44.57 40.42C44.6124 39.9413 44.8433 39.499 45.2118 39.1905C45.5803 38.882 46.0563 38.7325 46.535 38.775C47.0137 38.8174 47.456 39.0483 47.7645 39.4168C48.073 39.7853 48.2224 40.2613 48.18 40.74C48.0336 42.3811 47.3962 43.94 46.351 45.2136C45.3057 46.4872 43.901 47.4163 42.32 47.88C42.1547 47.9309 41.983 47.9578 41.81 47.96C41.376 47.9545 40.9584 47.794 40.6323 47.5077C40.3062 47.2213 40.0931 46.8278 40.0316 46.3982C39.97 45.9686 40.064 45.5312 40.2966 45.1648C40.5292 44.7983 40.885 44.5271 41.3 44.4V44.4Z" fill="black"/>
<path d="M37.48 16.21C41.0271 15.8293 44.6145 16.2498 47.9773 17.4406C51.3402 18.6313 54.3929 20.562 56.91 23.09C57.042 23.2194 57.1984 23.3214 57.37 23.39C57.5416 23.4587 57.7252 23.4926 57.91 23.49C58.0951 23.4949 58.2793 23.462 58.4513 23.3932C58.6232 23.3244 58.7793 23.2213 58.91 23.09C59.0382 22.9651 59.1401 22.8159 59.2097 22.651C59.2793 22.4861 59.3151 22.309 59.3151 22.13C59.3151 21.9511 59.2793 21.7739 59.2097 21.609C59.1401 21.4441 59.0382 21.2949 58.91 21.17C56.1079 18.3557 52.7096 16.2063 48.966 14.8805C45.2224 13.5548 41.2288 13.0864 37.28 13.51C36.9391 13.5675 36.6329 13.7526 36.4236 14.0278C36.2144 14.303 36.1177 14.6475 36.1534 14.9914C36.189 15.3352 36.3543 15.6526 36.6156 15.8789C36.8769 16.1053 37.2146 16.2237 37.56 16.21H37.48Z" fill="black"/>
<path d="M16 31.93C15.6539 31.8345 15.2842 31.8798 14.9713 32.0559C14.6585 32.232 14.4279 32.5246 14.33 32.87C13.3319 36.4701 13.101 40.2398 13.6522 43.9348C14.2034 47.6299 15.5246 51.168 17.53 54.32C17.6549 54.5109 17.8255 54.6676 18.0264 54.7759C18.2272 54.8842 18.4519 54.9406 18.68 54.94C18.938 54.9386 19.1907 54.8659 19.41 54.73C19.5604 54.6335 19.6904 54.5084 19.7924 54.3617C19.8944 54.215 19.9665 54.0496 20.0046 53.875C20.0427 53.7004 20.046 53.52 20.0143 53.3441C19.9827 53.1682 19.9166 53.0003 19.82 52.85C18.0322 50.016 16.8576 46.839 16.3719 43.5236C15.8862 40.2081 16.1002 36.8277 17 33.6C17.0477 33.4246 17.0595 33.2414 17.0347 33.0613C17.0099 32.8812 16.949 32.708 16.8556 32.5521C16.7622 32.3961 16.6383 32.2606 16.4913 32.1537C16.3442 32.0468 16.1772 31.9707 16 31.93V31.93Z" fill="black"/>
<path d="M63.48 49.47C63.1522 49.3196 62.7782 49.3045 62.4394 49.4281C62.1005 49.5517 61.8241 49.8039 61.67 50.13C60.4975 52.6542 58.8858 54.9498 56.91 56.91C53.9925 59.8258 50.3727 61.9405 46.4 63.05C46.0838 63.1382 45.8101 63.3378 45.6295 63.612C45.449 63.8862 45.3737 64.2164 45.4175 64.5418C45.4614 64.8671 45.6215 65.1656 45.8682 65.3822C46.115 65.5987 46.4317 65.7187 46.76 65.72C46.8849 65.7181 47.0091 65.7013 47.13 65.67C50.8299 64.6311 54.2631 62.8083 57.1963 60.3254C60.1296 57.8425 62.4943 54.7576 64.13 51.28C64.2838 50.9538 64.3017 50.5798 64.1798 50.2404C64.0579 49.901 63.8062 49.6239 63.48 49.47V49.47Z" fill="black"/>
</g>
<defs>
<clipPath id="clip0_3_28">
<rect width="80" height="80" fill="white"/>
</clipPath>
</defs>
</svg>
