<svg version="1.2" xmlns="http://www.w3.org/2000/svg" viewBox="0 0 24 30" width="24" height="30"><style>.a{fill:#101820}</style><path fill-rule="evenodd" class="a" d="m21 30h-18q-0.6 0-1.1-0.2-0.6-0.3-1-0.7-0.4-0.4-0.7-1-0.2-0.5-0.2-1.1v-11q0-0.6 0.2-1.1 0.3-0.6 0.7-1 0.4-0.4 1-0.7 0.5-0.2 1.1-0.2h18q0.6 0 1.1 0.2 0.6 0.3 1 0.7 0.4 0.4 0.7 1 0.2 0.5 0.2 1.1v11q0 0.6-0.2 1.1-0.3 0.6-0.7 1-0.4 0.4-1 0.7-0.5 0.2-1.1 0.2zm-18-15q-0.2 0-0.4 0.1-0.2 0.1-0.3 0.2-0.1 0.1-0.2 0.3-0.1 0.2-0.1 0.4v11q0 0.2 0.1 0.4 0.1 0.2 0.2 0.3 0.1 0.1 0.3 0.2 0.2 0.1 0.4 0.1h18q0.2 0 0.4-0.1 0.2-0.1 0.3-0.2 0.1-0.1 0.2-0.3 0.1-0.2 0.1-0.4v-11q0-0.2-0.1-0.4-0.1-0.2-0.2-0.3-0.1-0.1-0.3-0.2-0.2-0.1-0.4-0.1z"/><path fill-rule="evenodd" class="a" d="m20 15h-16q-0.2 0-0.4-0.1-0.2-0.1-0.3-0.2-0.1-0.1-0.2-0.3-0.1-0.2-0.1-0.4v-6q0-1.6 0.6-3.1 0.6-1.4 1.7-2.6 1.2-1.1 2.6-1.7 1.5-0.6 3.1-0.6h2q1.6 0 3.1 0.6 1.4 0.6 2.6 1.7 1.1 1.2 1.7 2.6 0.6 1.5 0.6 3.1v6q0 0.2-0.1 0.4-0.1 0.2-0.2 0.3-0.1 0.1-0.3 0.2-0.2 0.1-0.4 0.1zm-15-2h14v-5q0-1.2-0.5-2.3-0.4-1.1-1.3-1.9-0.8-0.9-1.9-1.3-1.1-0.5-2.3-0.5h-2q-1.2 0-2.3 0.5-1.1 0.4-1.9 1.3-0.9 0.8-1.3 1.9-0.5 1.1-0.5 2.3z"/><path class="a" d="m12 22c-0.8 0-1.5-0.5-1.8-1.2-0.4-0.8-0.2-1.6 0.4-2.2 0.6-0.6 1.4-0.8 2.2-0.4 0.7 0.3 1.2 1 1.2 1.8q0 0.4-0.2 0.8-0.1 0.3-0.4 0.6-0.3 0.3-0.6 0.4-0.4 0.2-0.8 0.2z"/><path class="a" d="m11 21h2v4h-2z"/></svg>