<svg width="269" height="230" viewBox="0 0 269 230" fill="none" xmlns="http://www.w3.org/2000/svg">
<g clip-path="url(#clip0_3_51)">
<path d="M248.72 34.6499H179.78V14.25C179.727 10.4245 178.16 6.77605 175.421 4.10472C172.682 1.4334 168.995 -0.0427387 165.17 -1.32282e-05H103.03C99.2045 -0.0427387 95.518 1.4334 92.7792 4.10472C90.0404 6.77605 88.4725 10.4245 88.4198 14.25V34.6499H19.4799C14.3793 34.5938 9.46491 36.5624 5.81335 40.124C2.1618 43.6856 0.0710398 48.5495 -0.00012207 53.6499V210.88C0.0710398 215.98 2.1618 220.844 5.81335 224.406C9.46491 227.968 14.3793 229.936 19.4799 229.88H248.72C253.821 229.936 258.735 227.968 262.387 224.406C266.038 220.844 268.129 215.98 268.2 210.88V53.6599C268.132 48.5578 266.042 43.6912 262.391 40.1274C258.739 36.5637 253.822 34.5938 248.72 34.6499V34.6499ZM98.12 14.25C98.1278 13.6183 98.2602 12.9944 98.5092 12.4138C98.7581 11.8332 99.1189 11.3073 99.5712 10.8662C100.023 10.4251 100.558 10.0774 101.145 9.843C101.732 9.60858 102.358 9.49206 102.99 9.49999H165.13C166.405 9.48663 167.633 9.97887 168.546 10.8691C169.459 11.7594 169.981 12.9751 170 14.25V34.6499H98.12V14.25ZM19.4398 220.39C16.8892 220.419 14.4314 219.436 12.6053 217.655C10.7793 215.873 9.73434 213.44 9.70007 210.89V53.6599C9.73434 51.1084 10.7786 48.6745 12.6044 46.8918C14.4301 45.1092 16.8882 44.1232 19.4398 44.1499H40.7699V220.39H19.4398ZM50.5101 220.39V44.1999H81.58V220.44L50.5101 220.39ZM91.3202 220.39V44.1999H176.8V220.44L91.3202 220.39ZM186.54 220.39V44.1999H217.61V220.44L186.54 220.39ZM258.42 210.89C258.386 213.44 257.341 215.873 255.515 217.655C253.689 219.436 251.231 220.419 248.68 220.39H227.35V44.1999H248.68C251.232 44.1732 253.69 45.1592 255.516 46.9419C257.341 48.7245 258.386 51.1584 258.42 53.7099V210.89Z" fill="black"/>
</g>
<defs>
<clipPath id="clip0_3_51">
<rect width="268.2" height="229.89" fill="white"/>
</clipPath>
</defs>
</svg>
