<svg width="59" height="80" viewBox="0 0 59 80" fill="none" xmlns="http://www.w3.org/2000/svg">
<g clip-path="url(#clip0_3_7)">
<path d="M54.48 68.16V21.44C55.9145 21.0919 57.1702 20.2272 58.0072 19.0114C58.8442 17.7955 59.2036 16.3138 59.0167 14.8495C58.8298 13.3853 58.1097 12.0414 56.9942 11.0748C55.8786 10.1082 54.4459 9.58662 52.97 9.60999H47.34V6.12H47.99C48.8016 6.12 49.5799 5.79762 50.1538 5.22375C50.7276 4.64989 51.05 3.87156 51.05 3.06C51.05 2.24844 50.7276 1.4701 50.1538 0.89624C49.5799 0.322379 48.8016 0 47.99 0H33.48C32.6684 0 31.8901 0.322379 31.3163 0.89624C30.7424 1.4701 30.42 2.24844 30.42 3.06C30.42 3.87156 30.7424 4.64989 31.3163 5.22375C31.8901 5.79762 32.6684 6.12 33.48 6.12H34.13V9.60999H6.02C4.54123 9.57857 3.10297 10.0945 1.98132 11.0587C0.859674 12.0229 0.133697 13.3674 -0.0572378 14.8341C-0.248173 16.3008 0.109389 17.7864 0.946806 19.0056C1.78422 20.2249 3.04248 21.0918 4.48001 21.44V68.16C3.03511 68.4987 1.767 69.3609 0.920668 70.58C0.0743327 71.7991 -0.290167 73.2886 -0.102419 74.7607C0.0853294 76.2329 0.812005 77.5832 1.93722 78.5508C3.06244 79.5185 4.50634 80.0348 5.99 80H52.91C54.3998 80.052 55.8557 79.5475 56.9939 78.5848C58.1321 77.6221 58.8712 76.2702 59.0672 74.7924C59.2631 73.3146 58.9019 71.8167 58.0539 70.5906C57.2059 69.3646 55.9319 68.4981 54.48 68.16V68.16ZM52.97 77.09H6.02C5.19518 77.09 4.40414 76.7623 3.82091 76.1791C3.23767 75.5959 2.91 74.8048 2.91 73.98C2.91 73.1552 3.23767 72.3641 3.82091 71.7809C4.40414 71.1976 5.19518 70.87 6.02 70.87H10.63C10.8312 70.8867 11.0337 70.8615 11.2247 70.7959C11.4157 70.7304 11.5909 70.6259 11.7395 70.4892C11.8881 70.3525 12.0066 70.1864 12.0878 70.0015C12.1689 69.8166 12.2107 69.6169 12.2107 69.415C12.2107 69.2131 12.1689 69.0134 12.0878 68.8285C12.0066 68.6436 11.8881 68.4775 11.7395 68.3408C11.5909 68.2041 11.4157 68.0996 11.2247 68.0341C11.0337 67.9685 10.8312 67.9433 10.63 67.96H7.42001V21.64H10.63C10.8312 21.6567 11.0337 21.6315 11.2247 21.5659C11.4157 21.5004 11.5909 21.396 11.7395 21.2592C11.8881 21.1225 12.0066 20.9564 12.0878 20.7715C12.1689 20.5866 12.2107 20.3869 12.2107 20.185C12.2107 19.9831 12.1689 19.7834 12.0878 19.5985C12.0066 19.4136 11.8881 19.2475 11.7395 19.1108C11.5909 18.974 11.4157 18.8696 11.2247 18.8041C11.0337 18.7385 10.8312 18.7133 10.63 18.73H6.02C5.59743 18.754 5.17441 18.6915 4.77684 18.5463C4.37927 18.4011 4.01551 18.1762 3.70785 17.8856C3.4002 17.5949 3.15512 17.2445 2.98762 16.8558C2.82012 16.4671 2.73373 16.0483 2.73373 15.625C2.73373 15.2017 2.82012 14.7829 2.98762 14.3942C3.15512 14.0055 3.4002 13.6551 3.70785 13.3644C4.01551 13.0738 4.37927 12.8489 4.77684 12.7037C5.17441 12.5585 5.59743 12.496 6.02 12.52H34.67C35.2853 12.52 35.8754 12.2756 36.3105 11.8405C36.7456 11.4054 36.99 10.8153 36.99 10.2V6.12H44.4V10.2C44.4 10.8153 44.6444 11.4054 45.0795 11.8405C45.5146 12.2756 46.1047 12.52 46.72 12.52H52.94C53.3626 12.496 53.7856 12.5585 54.1832 12.7037C54.5807 12.8489 54.9445 13.0738 55.2522 13.3644C55.5598 13.6551 55.8049 14.0055 55.9724 14.3942C56.1399 14.7829 56.2263 15.2017 56.2263 15.625C56.2263 16.0483 56.1399 16.4671 55.9724 16.8558C55.8049 17.2445 55.5598 17.5949 55.2522 17.8856C54.9445 18.1762 54.5807 18.4011 54.1832 18.5463C53.7856 18.6915 53.3626 18.754 52.94 18.73H42.13C41.7649 18.7603 41.4246 18.9267 41.1765 19.1962C40.9284 19.4658 40.7907 19.8187 40.7907 20.185C40.7907 20.5513 40.9284 20.9042 41.1765 21.1738C41.4246 21.4433 41.7649 21.6097 42.13 21.64H51.54V67.96H29.25C28.885 67.9903 28.5446 68.1567 28.2965 68.4262C28.0484 68.6958 27.9107 69.0487 27.9107 69.415C27.9107 69.7813 28.0484 70.1343 28.2965 70.4038C28.5446 70.6733 28.885 70.8397 29.25 70.87H52.94C53.7648 70.87 54.5559 71.1976 55.1391 71.7809C55.7223 72.3641 56.05 73.1552 56.05 73.98C56.05 74.8048 55.7223 75.5959 55.1391 76.1791C54.5559 76.7623 53.7648 77.09 52.94 77.09H52.97Z" fill="black"/>
<path d="M46.85 43.43H41.68C41.4788 43.4133 41.2763 43.4385 41.0853 43.5041C40.8944 43.5696 40.719 43.674 40.5705 43.8108C40.4219 43.9475 40.3034 44.1136 40.2223 44.2985C40.1412 44.4834 40.0993 44.6831 40.0993 44.885C40.0993 45.0869 40.1412 45.2866 40.2223 45.4715C40.3034 45.6564 40.4219 45.8225 40.5705 45.9592C40.719 46.0959 40.8944 46.2004 41.0853 46.2659C41.2763 46.3315 41.4788 46.3567 41.68 46.34H46.85C47.0512 46.3567 47.2537 46.3315 47.4447 46.2659C47.6356 46.2004 47.8109 46.0959 47.9595 45.9592C48.108 45.8225 48.2266 45.6564 48.3077 45.4715C48.3888 45.2866 48.4307 45.0869 48.4307 44.885C48.4307 44.6831 48.3888 44.4834 48.3077 44.2985C48.2266 44.1136 48.108 43.9475 47.9595 43.8108C47.8109 43.674 47.6356 43.5696 47.4447 43.5041C47.2537 43.4385 47.0512 43.4133 46.85 43.43V43.43Z" fill="black"/>
<path d="M12.11 46.34H17.28C17.4812 46.3567 17.6837 46.3315 17.8747 46.2659C18.0656 46.2004 18.2409 46.0959 18.3895 45.9592C18.538 45.8225 18.6566 45.6564 18.7377 45.4715C18.8188 45.2866 18.8607 45.0869 18.8607 44.885C18.8607 44.6831 18.8188 44.4834 18.7377 44.2985C18.6566 44.1136 18.538 43.9475 18.3895 43.8108C18.2409 43.674 18.0656 43.5696 17.8747 43.5041C17.6837 43.4385 17.4812 43.4133 17.28 43.43H12.11C11.9088 43.4133 11.7063 43.4385 11.5153 43.5041C11.3243 43.5696 11.1491 43.674 11.0005 43.8108C10.8519 43.9475 10.7334 44.1136 10.6523 44.2985C10.5711 44.4834 10.5293 44.6831 10.5293 44.885C10.5293 45.0869 10.5711 45.2866 10.6523 45.4715C10.7334 45.6564 10.8519 45.8225 11.0005 45.9592C11.1491 46.0959 11.3243 46.2004 11.5153 46.2659C11.7063 46.3315 11.9088 46.3567 12.11 46.34V46.34Z" fill="black"/>
<path d="M46.85 51.48H41.74C41.3749 51.5103 41.0346 51.6767 40.7865 51.9462C40.5384 52.2157 40.4007 52.5687 40.4007 52.935C40.4007 53.3013 40.5384 53.6542 40.7865 53.9238C41.0346 54.1933 41.3749 54.3597 41.74 54.39H46.85C47.0512 54.4067 47.2537 54.3815 47.4447 54.3159C47.6356 54.2504 47.8109 54.146 47.9595 54.0092C48.108 53.8725 48.2266 53.7064 48.3077 53.5215C48.3888 53.3366 48.4307 53.1369 48.4307 52.935C48.4307 52.7331 48.3888 52.5334 48.3077 52.3485C48.2266 52.1636 48.108 51.9975 47.9595 51.8608C47.8109 51.724 47.6356 51.6196 47.4447 51.5541C47.2537 51.4885 47.0512 51.4633 46.85 51.48V51.48Z" fill="black"/>
<path d="M12.11 54.39H17.22C17.5851 54.3597 17.9254 54.1933 18.1735 53.9238C18.4216 53.6542 18.5593 53.3013 18.5593 52.935C18.5593 52.5687 18.4216 52.2157 18.1735 51.9462C17.9254 51.6767 17.5851 51.5103 17.22 51.48H12.11C11.9088 51.4633 11.7063 51.4885 11.5153 51.5541C11.3243 51.6196 11.1491 51.724 11.0005 51.8608C10.8519 51.9975 10.7334 52.1636 10.6523 52.3485C10.5711 52.5334 10.5293 52.7331 10.5293 52.935C10.5293 53.1369 10.5711 53.3366 10.6523 53.5215C10.7334 53.7064 10.8519 53.8725 11.0005 54.0092C11.1491 54.146 11.3243 54.2504 11.5153 54.3159C11.7063 54.3815 11.9088 54.4067 12.11 54.39V54.39Z" fill="black"/>
<path d="M48.31 60.99C48.3074 60.6036 48.1527 60.2337 47.8795 59.9605C47.6062 59.6873 47.2364 59.5326 46.85 59.53H12.11C11.9088 59.5133 11.7063 59.5385 11.5153 59.6041C11.3243 59.6696 11.1491 59.7741 11.0005 59.9108C10.8519 60.0475 10.7334 60.2136 10.6523 60.3985C10.5711 60.5834 10.5293 60.7831 10.5293 60.985C10.5293 61.1869 10.5711 61.3866 10.6523 61.5715C10.7334 61.7564 10.8519 61.9225 11.0005 62.0592C11.1491 62.1959 11.3243 62.3004 11.5153 62.3659C11.7063 62.4315 11.9088 62.4567 12.11 62.44H46.85C47.2355 62.44 47.6053 62.2876 47.8788 62.0159C48.1524 61.7443 48.3074 61.3755 48.31 60.99V60.99Z" fill="black"/>
<path d="M12.11 30.24H46.85C47.0512 30.2567 47.2537 30.2315 47.4447 30.1659C47.6356 30.1004 47.8109 29.996 47.9595 29.8592C48.108 29.7225 48.2266 29.5564 48.3077 29.3715C48.3888 29.1866 48.4307 28.9869 48.4307 28.785C48.4307 28.5831 48.3888 28.3834 48.3077 28.1985C48.2266 28.0136 48.108 27.8475 47.9595 27.7108C47.8109 27.574 47.6356 27.4696 47.4447 27.404C47.2537 27.3385 47.0512 27.3133 46.85 27.33H12.11C11.9088 27.3133 11.7063 27.3385 11.5153 27.404C11.3243 27.4696 11.1491 27.574 11.0005 27.7108C10.8519 27.8475 10.7334 28.0136 10.6523 28.1985C10.5711 28.3834 10.5293 28.5831 10.5293 28.785C10.5293 28.9869 10.5711 29.1866 10.6523 29.3715C10.7334 29.5564 10.8519 29.7225 11.0005 29.8592C11.1491 29.996 11.3243 30.1004 11.5153 30.1659C11.7063 30.2315 11.9088 30.2567 12.11 30.24V30.24Z" fill="black"/>
<path d="M46.85 35.38H36.1C35.7349 35.4103 35.3946 35.5767 35.1465 35.8462C34.8984 36.1157 34.7607 36.4687 34.7607 36.835C34.7607 37.2013 34.8984 37.5542 35.1465 37.8238C35.3946 38.0933 35.7349 38.2597 36.1 38.29H46.85C47.0512 38.3067 47.2537 38.2815 47.4447 38.2159C47.6356 38.1504 47.8109 38.0459 47.9595 37.9092C48.108 37.7725 48.2266 37.6064 48.3077 37.4215C48.3888 37.2366 48.4307 37.0369 48.4307 36.835C48.4307 36.6331 48.3888 36.4334 48.3077 36.2485C48.2266 36.0636 48.108 35.8975 47.9595 35.7608C47.8109 35.6241 47.6356 35.5196 47.4447 35.4541C47.2537 35.3885 47.0512 35.3633 46.85 35.38V35.38Z" fill="black"/>
<path d="M12.11 38.29H22.86C23.2251 38.2597 23.5654 38.0933 23.8135 37.8238C24.0616 37.5542 24.1993 37.2013 24.1993 36.835C24.1993 36.4687 24.0616 36.1157 23.8135 35.8462C23.5654 35.5767 23.2251 35.4103 22.86 35.38H12.11C11.9088 35.3633 11.7063 35.3885 11.5153 35.4541C11.3243 35.5196 11.1491 35.6241 11.0005 35.7608C10.8519 35.8975 10.7334 36.0636 10.6523 36.2485C10.5711 36.4334 10.5293 36.6331 10.5293 36.835C10.5293 37.0369 10.5711 37.2366 10.6523 37.4215C10.7334 37.6064 10.8519 37.7725 11.0005 37.9092C11.1491 38.0459 11.3243 38.1504 11.5153 38.2159C11.7063 38.2815 11.9088 38.3067 12.11 38.29V38.29Z" fill="black"/>
<path d="M20.97 21.64H21.19C21.5551 21.6097 21.8954 21.4433 22.1435 21.1738C22.3916 20.9042 22.5293 20.5513 22.5293 20.185C22.5293 19.8187 22.3916 19.4657 22.1435 19.1962C21.8954 18.9267 21.5551 18.7603 21.19 18.73H20.97C20.7688 18.7133 20.5663 18.7385 20.3753 18.8041C20.1843 18.8696 20.0091 18.974 19.8605 19.1108C19.712 19.2475 19.5934 19.4136 19.5123 19.5985C19.4311 19.7834 19.3893 19.9831 19.3893 20.185C19.3893 20.3869 19.4311 20.5866 19.5123 20.7715C19.5934 20.9564 19.712 21.1225 19.8605 21.2592C20.0091 21.396 20.1843 21.5004 20.3753 21.5659C20.5663 21.6315 20.7688 21.6567 20.97 21.64V21.64Z" fill="black"/>
<path d="M15.81 21.64H16.03C16.3951 21.6097 16.7354 21.4433 16.9835 21.1738C17.2316 20.9042 17.3693 20.5513 17.3693 20.185C17.3693 19.8187 17.2316 19.4657 16.9835 19.1962C16.7354 18.9267 16.3951 18.7603 16.03 18.73H15.81C15.6088 18.7133 15.4063 18.7385 15.2153 18.8041C15.0243 18.8696 14.8491 18.974 14.7005 19.1108C14.5519 19.2475 14.4334 19.4136 14.3522 19.5985C14.2711 19.7834 14.2293 19.9831 14.2293 20.185C14.2293 20.3869 14.2711 20.5866 14.3522 20.7715C14.4334 20.9564 14.5519 21.1225 14.7005 21.2592C14.8491 21.396 15.0243 21.5004 15.2153 21.5659C15.4063 21.6315 15.6088 21.6567 15.81 21.64V21.64Z" fill="black"/>
<path d="M29.96 33.17C29.96 33.0374 29.9073 32.9102 29.8136 32.8164C29.7198 32.7227 29.5926 32.67 29.46 32.67C29.3274 32.67 29.2002 32.7227 29.1064 32.8164C29.0127 32.9102 28.96 33.0374 28.96 33.17C28.96 36.39 27.18 38.58 25.3 40.9C23.42 43.22 21.47 45.63 21.47 49.13C21.6432 51.1244 22.5579 52.9814 24.0334 54.3343C25.5089 55.6873 27.4381 56.4378 29.44 56.4378C31.4419 56.4378 33.3711 55.6873 34.8466 54.3343C36.3221 52.9814 37.2368 51.1244 37.41 49.13C37.41 45.63 35.46 43.22 33.58 40.9C31.7 38.58 29.96 36.39 29.96 33.17ZM34.88 49.56C34.8792 50.3296 34.6765 51.0855 34.2922 51.7523C33.9079 52.4191 33.3555 52.9734 32.69 53.36C32.5807 53.4616 32.4501 53.5375 32.3077 53.5821C32.1653 53.6267 32.0148 53.6388 31.8671 53.6177C31.7194 53.5965 31.5783 53.5426 31.4541 53.4598C31.33 53.377 31.226 53.2675 31.1496 53.1393C31.0733 53.011 31.0267 52.8674 31.0131 52.7188C30.9995 52.5702 31.0194 52.4204 31.0712 52.2805C31.123 52.1406 31.2054 52.014 31.3125 51.9101C31.4196 51.8062 31.5486 51.7276 31.69 51.68C32.0606 51.4637 32.3681 51.1543 32.5822 50.7824C32.7962 50.4105 32.9092 49.9891 32.91 49.56C32.873 49.4125 32.8702 49.2586 32.9017 49.1099C32.9331 48.9611 32.9981 48.8216 33.0916 48.7017C33.1851 48.5819 33.3047 48.4849 33.4413 48.4182C33.578 48.3516 33.728 48.3169 33.88 48.3169C34.032 48.3169 34.182 48.3516 34.3186 48.4182C34.4552 48.4849 34.5749 48.5819 34.6684 48.7017C34.7619 48.8216 34.8269 48.9611 34.8583 49.1099C34.8898 49.2586 34.8869 49.4125 34.85 49.56H34.88Z" fill="black"/>
</g>
<defs>
<clipPath id="clip0_3_7">
<rect width="58.95" height="80" fill="white"/>
</clipPath>
</defs>
</svg>
