<svg width="37" height="37" viewBox="0 0 37 37" fill="none" xmlns="http://www.w3.org/2000/svg">
<path d="M29.6965 18.5C31.4197 18.5 32.759 17.1607 32.759 15.4375C32.759 13.7143 31.4197 12.375 29.6965 12.375C27.9733 12.375 26.634 13.7143 26.634 15.4375C26.634 17.1607 27.9733 18.5 29.6965 18.5ZM23.5715 10.366C25.2947 10.366 26.634 9.02667 26.634 7.3035C26.634 5.58033 25.2947 4.241 23.5715 4.241C21.8483 4.241 20.509 5.58033 20.509 7.3035C20.509 9.02667 21.8483 10.366 23.5715 10.366ZM13.4285 10.366C15.1517 10.366 16.491 9.02667 16.491 7.3035C16.491 5.58033 15.1517 4.241 13.4285 4.241C11.7053 4.241 10.366 5.58033 10.366 7.3035C10.366 9.02667 11.7053 10.366 13.4285 10.366ZM7.3035 18.5C9.02667 18.5 10.366 17.1607 10.366 15.4375C10.366 13.7143 9.02667 12.375 7.3035 12.375C5.58033 12.375 4.241 13.7143 4.241 15.4375C4.241 17.1607 5.58033 18.5 7.3035 18.5ZM18.5 0.125C28.645 0.125 36.875 7.49337 36.875 16.491C36.875 22.1383 32.2812 26.636 26.634 26.636H23.0938C21.3706 26.636 20.0312 27.9754 20.0312 29.6985C20.0312 30.4642 20.3191 31.1338 20.7969 31.7075C21.2746 32.2812 21.5625 33.0469 21.5625 33.8125C21.5625 35.5357 20.2232 36.875 18.5 36.875C8.35496 36.875 0.125 28.645 0.125 18.5C0.125 8.35496 8.35496 0.125 18.5 0.125Z" fill="#4A5056"/>
</svg>
