<svg width="36" height="31" viewBox="0 0 36 31" fill="none" xmlns="http://www.w3.org/2000/svg">
<path d="M32 7H13.91C13.97 7.33 14 7.66 14 8C14 9.05 13.71 10.09 13.18 11C13.06 11.19 12.94 11.38 12.8 11.56C12.78 11.59 12.76 11.63 12.73 11.66C12.44 12.03 12.1 12.37 11.73 12.66L11.58 12.77C11.44 12.88 11.29 12.98 11.14 13.07L10.97 13.18C10.78 13.29 10.58 13.39 10.38 13.48C10.16 13.58 9.94 13.66 9.71 13.72H9.51L8.99 13.83H8.78C8.52 13.9 8.26 13.96 8 14C6.52 14 5.1 13.45 4 12.47V27C4 29.21 5.79 31 8 31H32C34.21 31 36 29.21 36 27V11C36 8.79 34.21 7 32 7ZM6 15.75C6.65 15.91 7.33 16 8 16C8.28 16 8.57 15.98 8.85 15.95H9.06C9.28 15.95 9.49 15.89 9.7 15.84H9.91C10.13 15.79 10.34 15.73 10.55 15.65L10.71 15.6C10.97 15.51 11.22 15.4 11.47 15.28C11.74 15.16 11.99 15.02 12.24 14.86H12.3C12.5 14.73 12.71 14.58 12.9 14.43L13.08 14.29L13.53 13.89L13.71 13.71C13.87 13.55 14.03 13.37 14.18 13.19L14.24 13.12H29C29.55 13.12 30 13.57 30 14.12V15.12C27.79 15.12 26 16.91 26 19.12C26 21.33 27.79 23.12 30 23.12V24.12C30 24.67 29.55 25.12 29 25.12H6V15.75ZM28 19C28 17.9 28.9 17 30 17H34V21H30C28.9 21 28 20.1 28 19ZM34 27C34 28.1 33.1 29 32 29H8C6.9 29 6 28.1 6 27H29C30.66 27 32 25.66 32 24V23H34V27ZM32 15V14C32 12.34 30.66 11 29 11H15.41C15.67 10.36 15.85 9.69 15.94 9H32C33.1 9 34 9.9 34 11V15H32Z" fill="#4A5056"/>
<path d="M30 20C30.5523 20 31 19.5523 31 19C31 18.4477 30.5523 18 30 18C29.4477 18 29 18.4477 29 19C29 19.5523 29.4477 20 30 20Z" fill="#4A5056"/>
<path d="M8 0C3.58 0 0 3.58 0 8C0 12.42 3.58 16 8 16C12.42 16 16 12.42 16 8C16 3.58 12.42 0 8 0Z" fill="#F2145E"/>
<path d="M9.5527 4.7969L4.80095 9.54866C4.34403 10.0056 4.34245 10.7448 4.79741 11.1998C5.25237 11.6547 5.99159 11.6531 6.44851 11.1962L11.2003 6.44446C11.6572 5.98755 11.6588 5.24833 11.2038 4.79337C10.7488 4.33841 10.0096 4.33999 9.5527 4.7969Z" fill="white"/>
<path d="M11.2031 9.55222L6.45134 4.80046C5.99442 4.34355 5.2552 4.34196 4.80024 4.79692C4.34528 5.25188 4.34687 5.9911 4.80378 6.44802L9.55554 11.1998C10.0125 11.6567 10.7517 11.6583 11.2066 11.2033C11.6616 10.7484 11.66 10.0091 11.2031 9.55222Z" fill="white"/>
</svg>
