<svg width="80" height="73" viewBox="0 0 80 73" fill="none" xmlns="http://www.w3.org/2000/svg">
<g clip-path="url(#clip0_3_34)">
<path d="M15.83 24.08H19.01C19.3751 24.0497 19.7154 23.8833 19.9635 23.6138C20.2116 23.3442 20.3493 22.9913 20.3493 22.625C20.3493 22.2587 20.2116 21.9057 19.9635 21.6362C19.7154 21.3667 19.3751 21.2003 19.01 21.17H15.83C15.6288 21.1533 15.4263 21.1785 15.2353 21.2441C15.0444 21.3096 14.8691 21.414 14.7205 21.5508C14.572 21.6875 14.4534 21.8536 14.3723 22.0385C14.2911 22.2234 14.2493 22.4231 14.2493 22.625C14.2493 22.8269 14.2911 23.0266 14.3723 23.2115C14.4534 23.3964 14.572 23.5625 14.7205 23.6992C14.8691 23.8359 15.0444 23.9404 15.2353 24.0059C15.4263 24.0715 15.6288 24.0967 15.83 24.08V24.08Z" fill="black"/>
<path d="M54.99 24.08H58.17C58.3712 24.0967 58.5737 24.0715 58.7647 24.0059C58.9556 23.9404 59.1309 23.8359 59.2795 23.6992C59.428 23.5625 59.5466 23.3964 59.6277 23.2115C59.7089 23.0266 59.7507 22.8269 59.7507 22.625C59.7507 22.4231 59.7089 22.2234 59.6277 22.0385C59.5466 21.8536 59.428 21.6875 59.2795 21.5508C59.1309 21.414 58.9556 21.3096 58.7647 21.2441C58.5737 21.1785 58.3712 21.1533 58.17 21.17H54.99C54.7888 21.1533 54.5863 21.1785 54.3953 21.2441C54.2044 21.3096 54.0291 21.414 53.8805 21.5508C53.732 21.6875 53.6134 21.8536 53.5323 22.0385C53.4511 22.2234 53.4093 22.4231 53.4093 22.625C53.4093 22.8269 53.4511 23.0266 53.5323 23.2115C53.6134 23.3964 53.732 23.5625 53.8805 23.6992C54.0291 23.8359 54.2044 23.9404 54.3953 24.0059C54.5863 24.0715 54.7888 24.0967 54.99 24.08V24.08Z" fill="black"/>
<path d="M23.25 10.94C23.517 11.2032 23.8751 11.3536 24.25 11.36C24.6245 11.3516 24.9818 11.2015 25.25 10.94C25.3861 10.8052 25.4941 10.6448 25.5678 10.468C25.6415 10.2912 25.6794 10.1015 25.6794 9.91001C25.6794 9.71847 25.6415 9.52883 25.5678 9.35204C25.4941 9.17525 25.3861 9.01482 25.25 8.88L23 6.63C22.7212 6.38666 22.3603 6.25829 21.9905 6.27085C21.6206 6.2834 21.2693 6.43594 21.0076 6.69763C20.7459 6.95931 20.5934 7.31061 20.5808 7.68048C20.5683 8.05035 20.6967 8.41118 20.94 8.69L23.25 10.94Z" fill="black"/>
<path d="M50.75 34.33C50.4712 34.0867 50.1103 33.9583 49.7405 33.9708C49.3706 33.9834 49.0193 34.1359 48.7576 34.3976C48.4959 34.6593 48.3434 35.0106 48.3308 35.3805C48.3183 35.7503 48.4467 36.1112 48.69 36.39L50.94 38.64C51.2149 38.9099 51.5847 39.0612 51.97 39.0612C52.3553 39.0612 52.7251 38.9099 53 38.64C53.1361 38.5052 53.2441 38.3448 53.3178 38.168C53.3915 37.9912 53.4294 37.8015 53.4294 37.61C53.4294 37.4185 53.3915 37.2288 53.3178 37.052C53.2441 36.8753 53.1361 36.7148 53 36.58L50.75 34.33Z" fill="black"/>
<path d="M22.03 39.05C22.4045 39.0416 22.7618 38.8915 23.03 38.63L25.28 36.38C25.4866 36.0998 25.5863 35.7549 25.5611 35.4077C25.5358 35.0604 25.3873 34.7336 25.1424 34.4862C24.8974 34.2388 24.572 34.0871 24.225 34.0585C23.878 34.0298 23.5322 34.1261 23.25 34.33L21 36.58C20.7971 36.781 20.658 37.0375 20.6003 37.3172C20.5426 37.597 20.5688 37.8875 20.6757 38.1524C20.7825 38.4173 20.9651 38.6448 21.2007 38.8062C21.4364 38.9677 21.7144 39.056 22 39.06L22.03 39.05Z" fill="black"/>
<path d="M49.72 11.33C50.0945 11.3216 50.4518 11.1715 50.72 10.91L52.97 8.66001C53.2133 8.38118 53.3417 8.02035 53.3292 7.65048C53.3166 7.28061 53.1641 6.92932 52.9024 6.66763C52.6407 6.40595 52.2894 6.2534 51.9195 6.24085C51.5497 6.22829 51.1888 6.35667 50.91 6.60001L48.66 8.85001C48.5239 8.98482 48.4159 9.14525 48.3422 9.32204C48.2685 9.49883 48.2306 9.68847 48.2306 9.88001C48.2306 10.0715 48.2685 10.2612 48.3422 10.438C48.4159 10.6148 48.5239 10.7752 48.66 10.91C48.8001 11.0466 48.966 11.1541 49.1479 11.2262C49.3299 11.2983 49.5243 11.3336 49.72 11.33V11.33Z" fill="black"/>
<path d="M55.31 36.39C55.31 36.5813 55.3478 36.7706 55.4213 36.9472C55.4948 37.1238 55.6025 37.2841 55.7382 37.4189C55.8739 37.5536 56.035 37.6602 56.212 37.7325C56.3891 37.8048 56.5787 37.8413 56.77 37.84H61.67L63.39 42.33C63.4943 42.6055 63.6807 42.8424 63.9239 43.0087C64.1671 43.175 64.4554 43.2627 64.75 43.26C64.9272 43.2594 65.1029 43.2289 65.27 43.17C65.63 43.0312 65.9205 42.7556 66.0779 42.4033C66.2353 42.051 66.2468 41.6508 66.11 41.29L64.03 35.83C63.9249 35.5542 63.7387 35.3168 63.4959 35.149C63.2531 34.9811 62.9651 34.8909 62.67 34.89H56.77C56.5749 34.8899 56.3817 34.929 56.2019 35.0048C56.0221 35.0807 55.8593 35.1918 55.7232 35.3317C55.5871 35.4715 55.4804 35.6372 55.4094 35.819C55.3385 36.0008 55.3046 36.1949 55.31 36.39V36.39Z" fill="black"/>
<path d="M58.74 60.87H49.85L48.57 49.72H58.9C59.2846 49.72 59.6534 49.5672 59.9253 49.2953C60.1972 49.0234 60.35 48.6546 60.35 48.27C60.35 47.8854 60.1972 47.5166 59.9253 47.2447C59.6534 46.9728 59.2846 46.82 58.9 46.82H48.25L47.34 38.89C47.2949 38.5068 47.0994 38.1571 46.7966 37.918C46.4937 37.6789 46.1082 37.5699 45.725 37.615C45.3418 37.6601 44.9921 37.8556 44.753 38.1584C44.5139 38.4613 44.4049 38.8468 44.45 39.23L45.32 46.82H29.58L30.45 39.23C30.4951 38.8468 30.3861 38.4613 30.147 38.1584C29.9079 37.8556 29.5582 37.6601 29.175 37.615C28.7918 37.5699 28.4063 37.6789 28.1034 37.918C27.8006 38.1571 27.6051 38.5068 27.56 38.89L26.65 46.82H8.91001L12.33 37.82H17.1C17.4651 37.7897 17.8054 37.6233 18.0535 37.3538C18.3016 37.0843 18.4393 36.7313 18.4393 36.365C18.4393 35.9987 18.3016 35.6458 18.0535 35.3762C17.8054 35.1067 17.4651 34.9403 17.1 34.91H11.33C11.0342 34.908 10.745 34.9972 10.5017 35.1654C10.2583 35.3336 10.0727 35.5726 9.97001 35.85L0.100012 61.79C-0.0203367 62.1125 -0.0203367 62.4675 0.100012 62.79V62.85L2.10001 67.52C2.21166 67.7833 2.39816 68.008 2.63637 68.1662C2.87459 68.3244 3.15404 68.4092 3.44001 68.41H58.15C58.5047 68.4106 58.8475 68.282 59.1144 68.0483C59.3812 67.8146 59.5538 67.4917 59.6 67.14L60.18 62.46C60.2086 62.2544 60.1922 62.045 60.1317 61.8464C60.0713 61.6478 59.9683 61.4648 59.83 61.31C59.6891 61.1646 59.5193 61.0504 59.3316 60.9746C59.1439 60.8988 58.9423 60.8632 58.74 60.87V60.87ZM25.04 60.87H3.56L7.81 49.72H26.32L25.04 60.87ZM27.97 60.87L29.25 49.72H45.65L46.93 60.87H27.97Z" fill="black"/>
<path d="M35.55 40.62V43.8C35.55 44.1846 35.7028 44.5534 35.9747 44.8253C36.2466 45.0972 36.6154 45.25 37 45.25C37.3846 45.25 37.7534 45.0972 38.0253 44.8253C38.2972 44.5534 38.45 44.1846 38.45 43.8V40.62C38.45 40.2354 38.2972 39.8666 38.0253 39.5947C37.7534 39.3228 37.3846 39.17 37 39.17C36.6154 39.17 36.2466 39.3228 35.9747 39.5947C35.7028 39.8666 35.55 40.2354 35.55 40.62Z" fill="black"/>
<path d="M37 6.08999C37.3846 6.08999 37.7534 5.93723 38.0253 5.6653C38.2972 5.39337 38.45 5.02456 38.45 4.64V1.46C38.45 1.07543 38.2972 0.706616 38.0253 0.434689C37.7534 0.162761 37.3846 0.00999451 37 0.00999451C36.6154 0.00999451 36.2466 0.162761 35.9747 0.434689C35.7028 0.706616 35.55 1.07543 35.55 1.46V4.64C35.55 5.02456 35.7028 5.39337 35.9747 5.6653C36.2466 5.93723 36.6154 6.08999 37 6.08999V6.08999Z" fill="black"/>
<path d="M37 36.18C39.6808 36.182 42.3019 35.3887 44.5317 33.9006C46.7616 32.4125 48.4999 30.2963 49.5267 27.82C50.5535 25.3436 50.8226 22.6184 50.3001 19.989C49.7776 17.3596 48.4869 14.9443 46.5913 13.0487C44.6957 11.1531 42.2804 9.86239 39.651 9.33988C37.0216 8.81737 34.2964 9.08655 31.82 10.1134C29.3437 11.1402 27.2276 12.8784 25.7394 15.1083C24.2513 17.3381 23.458 19.9592 23.46 22.64C23.4653 26.2294 24.8935 29.6703 27.4316 32.2084C29.9697 34.7465 33.4106 36.1747 37 36.18ZM28.25 19.52C28.7192 18.2108 29.4742 17.0226 30.4602 16.0418C31.4462 15.061 32.6383 14.3123 33.95 13.85C34.1306 13.7876 34.3217 13.7614 34.5123 13.7729C34.703 13.7844 34.8896 13.8333 35.0614 13.9169C35.2332 14.0004 35.3868 14.117 35.5136 14.26C35.6403 14.4029 35.7376 14.5694 35.8 14.75C35.8624 14.9306 35.8886 15.1217 35.8771 15.3123C35.8656 15.503 35.8167 15.6896 35.7332 15.8614C35.6496 16.0332 35.533 16.1868 35.39 16.3136C35.2471 16.4403 35.0806 16.5376 34.9 16.6C34.0009 16.9184 33.1837 17.4325 32.5075 18.1052C31.8313 18.778 31.313 19.5925 30.99 20.49C30.8955 20.7794 30.7124 21.0317 30.4665 21.2112C30.2206 21.3907 29.9244 21.4882 29.62 21.49C29.4536 21.4879 29.2884 21.4609 29.13 21.41C28.9462 21.3465 28.777 21.2466 28.6325 21.1163C28.4881 20.986 28.3713 20.828 28.2892 20.6516C28.2071 20.4753 28.1613 20.2842 28.1546 20.0898C28.1479 19.8954 28.1803 19.7016 28.25 19.52V19.52Z" fill="black"/>
<path d="M79.92 53.2C79.8411 53.0295 79.7158 52.8846 79.5584 52.7821C79.401 52.6795 79.2178 52.6233 79.03 52.62H72.47L74.61 39.95C74.6241 39.7519 74.5789 39.5541 74.4801 39.3817C74.3813 39.2094 74.2335 39.0704 74.0554 38.9825C73.8773 38.8945 73.6771 38.8616 73.4802 38.8878C73.2833 38.9141 73.0988 38.9984 72.95 39.13L56.56 56.73C56.4526 56.8711 56.3847 57.0382 56.3632 57.2142C56.3416 57.3902 56.3673 57.5688 56.4375 57.7316C56.5077 57.8944 56.62 58.0356 56.7627 58.1408C56.9055 58.246 57.0737 58.3112 57.25 58.33H63.81L61.67 71C61.647 71.2007 61.6853 71.4037 61.7799 71.5822C61.8745 71.7607 62.021 71.9064 62.2 72C62.3329 72.0681 62.4806 72.1025 62.63 72.1C62.763 72.0981 62.8943 72.0698 63.0162 72.0165C63.1381 71.9633 63.2482 71.8863 63.34 71.79L79.72 54.19C79.8382 54.0576 79.919 53.8961 79.9542 53.7221C79.9893 53.5481 79.9775 53.3679 79.92 53.2Z" fill="black"/>
</g>
<defs>
<clipPath id="clip0_3_34">
<rect width="80" height="72.16" fill="white"/>
</clipPath>
</defs>
</svg>
