<svg version="1.2" xmlns="http://www.w3.org/2000/svg" viewBox="0 0 24 24" width="24" height="24">
	<title>9110618_temperature_icon-svg</title>
	<style>
		.s0 { fill: #000000 } 
	</style>
	<path id="Layer" fill-rule="evenodd" class="s0" d="m17 17c0 1.7-0.9 3.3-2.4 4.3-1.4 0.9-3.3 0.9-4.8 0.2-1.6-0.8-2.6-2.3-2.8-4.1-0.1-1.7 0.6-3.4 2-4.4v-8c0-0.8 0.3-1.6 0.9-2.1 0.5-0.6 1.3-0.9 2.1-0.9 0.8 0 1.6 0.3 2.1 0.9 0.6 0.5 0.9 1.3 0.9 2.1v8c1.2 0.9 2 2.4 2 4zm-3.2-2.4l-0.8-0.6v-9q0-0.4-0.3-0.7-0.3-0.3-0.7-0.3-0.4 0-0.7 0.3-0.3 0.3-0.3 0.7v9l-0.8 0.6c-1 0.8-1.5 2.1-1 3.3 0.4 1.3 1.5 2.1 2.8 2.1 1.3 0 2.4-0.8 2.8-2.1 0.5-1.2 0-2.5-1-3.3zm-1.8 4.4c-0.5 0-1-0.2-1.4-0.6-0.4-0.4-0.6-0.9-0.6-1.4 0-0.5 0.2-1 0.6-1.4 0.4-0.4 0.9-0.6 1.4-0.6 0.5 0 1 0.2 1.4 0.6 0.4 0.4 0.6 0.9 0.6 1.4 0 0.5-0.2 1-0.6 1.4-0.4 0.4-0.9 0.6-1.4 0.6z"/>
</svg>