<svg width="107" height="138" viewBox="0 0 107 138" fill="none" xmlns="http://www.w3.org/2000/svg">
<path fill-rule="evenodd" clip-rule="evenodd" d="M107.001 117.556V107.333H98.0843L90.4414 117.556H107.001Z" fill="#6AADDC"/>
<path fill-rule="evenodd" clip-rule="evenodd" d="M107 122.667C107 131.202 100.121 138 91.6633 138H15.3367C6.87857 138 0 131.151 0 122.667H107Z" fill="#4A5056"/>
<path fill-rule="evenodd" clip-rule="evenodd" d="M0 117.556V107.333H16.5595L8.91667 117.556H0Z" fill="#6AADDC"/>
<path fill-rule="evenodd" clip-rule="evenodd" d="M14.0117 117.556L21.6546 107.333H31.8451L24.2022 117.556H14.0117Z" fill="#6AADDC"/>
<path fill-rule="evenodd" clip-rule="evenodd" d="M29.2969 117.556L36.9397 107.333H47.1302L39.4874 117.556H29.2969Z" fill="#6AADDC"/>
<path fill-rule="evenodd" clip-rule="evenodd" d="M44.582 117.556L52.2249 107.333H62.4154L54.7725 117.556H44.582Z" fill="#6AADDC"/>
<path fill-rule="evenodd" clip-rule="evenodd" d="M59.8672 117.556L67.51 107.333H77.7005L70.0577 117.556H59.8672Z" fill="#6AADDC"/>
<path fill-rule="evenodd" clip-rule="evenodd" d="M75.1562 117.556L82.7991 107.333H92.9896L85.3467 117.556H75.1562Z" fill="#6AADDC"/>
<path fill-rule="evenodd" clip-rule="evenodd" d="M91.7143 56.2222V38.3333C91.7143 17.1733 74.5433 0 53.5 0C32.4567 0 15.2857 17.1733 15.2857 38.3333V56.2222C6.82762 56.2222 0 63.0711 0 71.6067V102.222H107V71.6067C107 63.1222 100.172 56.2733 91.7143 56.2222ZM76.4286 56.2222H30.5714V38.3333C30.5714 25.6067 40.8129 15.3333 53.5 15.3333C66.1871 15.3333 76.4286 25.6578 76.4286 38.3333V56.2222Z" fill="#4A5056"/>
</svg>
