<svg width="65" height="86" viewBox="0 0 65 86" fill="none" xmlns="http://www.w3.org/2000/svg">
<g clip-path="url(#clip0_3_20)">
<path d="M6.59003 52.02L1.83002 58.16C1.35693 58.7732 1.13048 59.5412 1.19526 60.3129C1.26003 61.0847 1.61131 61.8043 2.18 62.33L5.96997 65.8L28.43 62.97L28.52 62.87L10.75 51.32C10.0977 50.8855 9.30429 50.716 8.53138 50.846C7.75846 50.9761 7.0642 51.3959 6.59003 52.02V52.02Z" fill="black"/>
<path d="M17.08 25.24C17.08 25.24 11.34 31.38 12.38 38.78C13.42 46.18 22.52 51.28 27.28 50.61C27.28 50.61 21.72 41.79 32.14 33.02C32.14 33.02 32.23 45.31 41.7 48.83C41.7 48.83 63.91 46.26 49.86 23.74C49.86 23.74 46.15 26.33 46.44 32.67C46.44 32.67 41.64 28.29 45.6 20.97C45.6 20.97 33.97 15.4 37.43 -0.0300026C37.43 -0.0300026 21.59 12.02 20.43 18.97C20.43 18.97 21.43 27.04 23 29.68C22.98 29.66 19.37 29.91 17.08 25.24Z" fill="black"/>
<path d="M60.99 65.13L59.53 65.26L49.07 66.15L53.29 60.71L54.83 58.71C55.125 58.332 55.2626 57.8548 55.2141 57.3778C55.1657 56.9008 54.9349 56.4609 54.57 56.15L50.75 52.89C50.5591 52.7185 50.3342 52.589 50.09 52.51C49.7497 52.3937 49.3843 52.3714 49.0323 52.4453C48.6803 52.5192 48.3548 52.6866 48.09 52.93L33.65 66.23L32.1 67.66L10.95 70.33L1.75 71.49C1.26399 71.5512 0.817379 71.7887 0.494812 72.1573C0.172246 72.526 -0.00383963 73.0002 4.74138e-07 73.49V80.35V83.35C0.00524021 83.8222 0.195798 84.2734 0.53064 84.6064C0.865483 84.9394 1.31777 85.1274 1.78998 85.13H62.7C62.926 85.131 63.1496 85.0846 63.3566 84.994C63.5636 84.9034 63.7494 84.7705 63.902 84.6038C64.0545 84.4371 64.1706 84.2403 64.2426 84.0261C64.3145 83.8119 64.3409 83.585 64.32 83.36L62.86 66.7C62.8072 66.2492 62.5842 65.8356 62.2366 65.5438C61.889 65.252 61.4431 65.104 60.99 65.13V65.13Z" fill="black"/>
</g>
<defs>
<clipPath id="clip0_3_20">
<rect width="64.38" height="85.18" fill="white"/>
</clipPath>
</defs>
</svg>
