<svg width="82" height="138" viewBox="0 0 82 138" fill="none" xmlns="http://www.w3.org/2000/svg">
<g clip-path="url(#clip0_503_6)">
<path d="M42.7302 138C41.8563 138 41.2482 137.988 41.0025 137.98C39.6614 138.016 27.3741 138.263 20.6968 135.332C13.9189 132.357 4.67619 126.632 2.66253 111.321C0.870382 97.6663 0.0407561 63.9112 0.00853761 62.4822V62.4336C0.000482999 61.4134 -0.180746 37.346 2.05441 26.0349C5.07892 10.7241 13.7497 2.12133 27.8211 0.461511C30.4791 0.149789 39.891 0.0161934 40.9542 0H40.9985H41.0428C42.106 0.0161934 51.5218 0.149789 54.1758 0.461511C68.2513 2.11728 76.918 10.72 79.9425 26.0309C82.1777 37.3379 82.0005 61.4094 81.9884 62.4295V62.4781C81.9522 63.9072 81.1266 97.6623 79.3304 111.317C77.3167 126.632 68.0741 132.357 61.2961 135.328C55.8391 137.725 46.6327 137.996 42.7222 137.996L42.7302 138ZM41.0025 131.498H41.1032C44.4297 131.604 54.0912 131.43 58.7267 129.393C64.8844 126.693 71.3926 122.329 72.9511 110.467C74.6788 97.3141 75.5246 63.4821 75.5528 62.3445C75.5608 61.4579 75.7058 37.7994 73.6277 27.2899C71.1429 14.7036 64.7233 8.22219 53.4308 6.89028C51.4695 6.65953 43.8417 6.50974 41.0025 6.4733C38.1673 6.51379 30.5355 6.65953 28.5742 6.89028C17.2817 8.21814 10.8621 14.6995 8.37728 27.2899C6.30322 37.7954 6.4482 61.4377 6.45223 62.3445C6.48042 63.4497 7.32615 97.3101 9.05387 110.467C10.6124 122.329 17.1165 126.689 23.2783 129.393C27.9137 131.43 37.5753 131.604 40.9018 131.498H41.0025Z" fill="#495057"/>
<path d="M40.9982 35.5566C51.9726 35.5566 60.9012 44.5318 60.9012 55.5635C60.9012 66.5953 51.9726 75.5704 40.9982 75.5704C30.0238 75.5704 21.0953 66.5953 21.0953 55.5635C21.0953 44.5318 30.0238 35.5566 40.9982 35.5566ZM40.9982 31.9131C28.0021 31.9131 17.4707 42.5036 17.4707 55.5635C17.4707 68.6235 28.0061 79.214 40.9982 79.214C53.9903 79.214 64.5258 68.6235 64.5258 55.5635C64.5258 42.5036 53.9903 31.9131 40.9982 31.9131Z" fill="#495057"/>
<path d="M40.6639 85.2743C24.4741 85.2743 11.3008 72.0322 11.3008 55.7578C11.3008 39.4835 24.4741 26.2373 40.6639 26.2373C56.8537 26.2373 70.027 39.4794 70.027 55.7538C70.027 72.0281 56.8537 85.2703 40.6639 85.2703V85.2743ZM40.6639 29.8849C26.4716 29.8849 14.9254 41.4915 14.9254 55.7578C14.9254 70.0242 26.4716 81.6308 40.6639 81.6308C54.8561 81.6308 66.4024 70.0242 66.4024 55.7578C66.4024 41.4915 54.8561 29.8849 40.6639 29.8849Z" fill="#495057"/>
<path d="M40.7474 38C40.7474 40.0372 40.7429 42.0737 40.7538 44.1109C40.7551 44.3541 40.6891 44.3989 40.4552 44.4059C37.9419 44.4802 35.6876 45.2866 33.7151 46.8482C31.6524 48.4809 30.3195 50.5853 29.7004 53.1377C29.3993 54.3812 29.3416 55.6389 29.464 56.9157C29.6819 59.1973 30.5367 61.2128 31.9792 62.9715C33.5697 64.9114 35.6062 66.1767 38.0425 66.7937C39.1704 67.0792 40.3206 67.1867 41.476 67.106C43.7451 66.9467 45.8143 66.2062 47.6259 64.8154C49.7348 63.1968 51.1337 61.1033 51.7918 58.5196C52.0033 57.6882 52.102 56.8427 52.143 55.9909C52.1545 55.7585 52.2193 55.7189 52.4333 55.7195C54.3551 55.7278 56.2775 55.731 58.1993 55.7169C58.4691 55.715 58.5031 55.8072 58.4999 56.0395C58.4493 59.8374 57.2753 63.2666 55.0241 66.3066C52.7223 69.4152 49.6977 71.5529 45.9912 72.7055C44.8659 73.0556 43.7163 73.2739 42.5417 73.3968C41.4677 73.5088 40.395 73.5363 39.3255 73.4416C36.0118 73.1484 32.9833 72.0566 30.3009 70.0789C27.0866 67.7096 24.8918 64.6074 23.7421 60.7807C23.4282 59.735 23.2084 58.6687 23.1206 57.5749C23.0687 56.9298 22.9886 56.2859 23.0014 55.6376C23.077 51.8448 24.1689 48.3772 26.4208 45.3128C28.7956 42.082 31.9241 39.8816 35.7773 38.7347C36.8256 38.4224 37.8945 38.1984 38.9903 38.1229C39.1518 38.112 39.321 38.0941 39.4658 38H40.7474Z" fill="#006C3F"/>
<path d="M40.7994 63.5949C36.5374 63.632 32.936 60.1747 32.9424 55.7253C32.9482 51.4679 36.463 47.6656 41.2768 47.9222C45.2319 48.1328 48.6769 51.3501 48.6712 55.772C48.6648 60.2931 44.9833 63.6455 40.7994 63.5949V63.5949Z" fill="#4DB748"/>
<path d="M55.2908 45.7666C55.2812 48.2614 53.3203 50.2711 50.7929 50.2762C48.2508 50.2813 46.3034 48.1801 46.3047 45.7826C46.306 43.4402 48.1522 41.2846 50.7878 41.2846C53.3133 41.2846 55.2504 43.2367 55.2902 45.7666H55.2908Z" fill="#006C3F"/>
</g>
<defs>
<clipPath id="clip0_503_6">
<rect width="82" height="138" fill="white"/>
</clipPath>
</defs>
</svg>
