<?xml version="1.0" standalone="no"?>
<!DOCTYPE svg PUBLIC "-//W3C//DTD SVG 20010904//EN"
 "http://www.w3.org/TR/2001/REC-SVG-20010904/DTD/svg10.dtd">
<svg version="1.0" xmlns="http://www.w3.org/2000/svg"
 width="112.000000pt" height="112.000000pt" viewBox="0 0 112.000000 112.000000"
 preserveAspectRatio="xMidYMid meet">

<g transform="translate(0.000000,112.000000) scale(0.100000,-0.100000)"
fill="#000000" stroke="none">
<path d="M449 967 c-93 -26 -179 -89 -232 -170 -61 -92 -86 -204 -68 -302 26
-142 115 -259 239 -318 62 -30 75 -32 172 -32 98 0 110 2 170 32 84 41 130 80
173 145 61 93 86 205 68 303 -26 141 -115 260 -237 317 -54 25 -81 31 -152 34
-52 2 -105 -1 -133 -9z m268 -72 c83 -41 144 -103 181 -183 23 -49 27 -70 27
-152 0 -88 -3 -101 -33 -162 -37 -75 -104 -143 -179 -178 -36 -18 -71 -25
-140 -28 -86 -4 -96 -2 -157 26 -87 41 -149 100 -189 181 -29 60 -32 74 -32
161 0 81 4 103 26 150 45 96 125 170 219 203 26 9 79 16 126 17 73 0 88 -3
151 -35z"/>
<path d="M450 773 c-128 -67 -169 -229 -87 -350 96 -142 311 -136 402 11 27
44 30 58 30 126 0 68 -3 82 -30 126 -44 70 -109 107 -194 112 -57 3 -73 0
-121 -25z m229 -26 c60 -40 94 -97 99 -167 5 -72 -9 -115 -53 -168 -93 -108
-271 -93 -352 29 -33 51 -43 145 -21 199 22 52 67 100 113 122 60 28 159 21
214 -15z"/>
<path d="M527 643 c-35 -37 -59 -97 -51 -128 14 -58 89 -83 137 -45 33 27 41
62 22 107 -15 36 -61 93 -75 93 -3 0 -18 -12 -33 -27z m93 -111 c0 -4 -7 -18
-16 -31 -12 -17 -19 -20 -24 -10 -10 15 10 49 27 49 7 0 13 -3 13 -8z"/>
</g>
</svg>
