<?xml version="1.0" standalone="no"?>
<!DOCTYPE svg PUBLIC "-//W3C//DTD SVG 20010904//EN"
 "http://www.w3.org/TR/2001/REC-SVG-20010904/DTD/svg10.dtd">
<svg version="1.0" xmlns="http://www.w3.org/2000/svg"
 width="112.000000pt" height="112.000000pt" viewBox="0 0 112.000000 112.000000"
 preserveAspectRatio="xMidYMid meet">

<g transform="translate(0.000000,112.000000) scale(0.100000,-0.100000)"
fill="#000000" stroke="none">
<path d="M213 989 c-17 -5 -41 -21 -52 -35 -20 -26 -21 -38 -21 -390 l0 -363
24 -28 24 -28 358 -3 c257 -2 366 1 386 9 58 24 58 21 58 415 0 349 -1 362
-20 387 -12 15 -38 31 -58 37 -46 12 -654 12 -699 -1z m705 -55 c22 -15 22
-17 22 -304 0 -249 -2 -291 -16 -304 -13 -14 -60 -16 -360 -16 -331 0 -345 1
-364 20 -19 19 -20 33 -20 294 0 261 1 274 21 300 l20 26 338 0 c288 0 340 -2
359 -16z m22 -694 c0 -50 0 -50 -376 -50 l-353 0 -15 22 c-38 54 -48 53 364
53 l380 0 0 -25z"/>
</g>
</svg>
