<svg width="82" height="138" viewBox="0 0 82 138" fill="none" xmlns="http://www.w3.org/2000/svg">
<g clip-path="url(#clip0_502_2)">
<path d="M42.7302 138C41.8563 138 41.2482 137.988 41.0025 137.98C39.6614 138.016 27.3741 138.263 20.6968 135.332C13.9189 132.357 4.67619 126.632 2.66253 111.321C0.870382 97.6663 0.0407561 63.9112 0.00853761 62.4822V62.4336C0.000482999 61.4134 -0.180746 37.346 2.05441 26.0349C5.07892 10.7241 13.7497 2.12133 27.8211 0.461511C30.4791 0.149789 39.891 0.0161934 40.9542 0H40.9985H41.0428C42.106 0.0161934 51.5218 0.149789 54.1758 0.461511C68.2513 2.11728 76.918 10.72 79.9425 26.0309C82.1777 37.3379 82.0005 61.4094 81.9884 62.4295V62.4781C81.9522 63.9072 81.1266 97.6623 79.3304 111.317C77.3167 126.632 68.0741 132.357 61.2961 135.328C55.8391 137.725 46.6327 137.996 42.7222 137.996L42.7302 138ZM41.0025 131.498H41.1032C44.4297 131.604 54.0912 131.43 58.7267 129.393C64.8844 126.693 71.3926 122.329 72.9511 110.467C74.6788 97.3141 75.5246 63.4821 75.5528 62.3445C75.5608 61.4579 75.7058 37.7994 73.6277 27.2899C71.1429 14.7036 64.7233 8.22219 53.4308 6.89028C51.4695 6.65953 43.8417 6.50974 41.0025 6.4733C38.1673 6.51379 30.5355 6.65953 28.5742 6.89028C17.2817 8.21814 10.8621 14.6995 8.37728 27.2899C6.30322 37.7954 6.4482 61.4377 6.45223 62.3445C6.48042 63.4497 7.32615 97.3101 9.05387 110.467C10.6124 122.329 17.1165 126.689 23.2783 129.393C27.9137 131.43 37.5753 131.604 40.9018 131.498H41.0025Z" fill="#495057"/>
<path d="M40.9982 35.5566C51.9726 35.5566 60.9012 44.5318 60.9012 55.5635C60.9012 66.5953 51.9726 75.5704 40.9982 75.5704C30.0238 75.5704 21.0953 66.5953 21.0953 55.5635C21.0953 44.5318 30.0238 35.5566 40.9982 35.5566ZM40.9982 31.9131C28.0021 31.9131 17.4707 42.5036 17.4707 55.5635C17.4707 68.6235 28.0061 79.214 40.9982 79.214C53.9903 79.214 64.5258 68.6235 64.5258 55.5635C64.5258 42.5036 53.9903 31.9131 40.9982 31.9131Z" fill="#495057"/>
<path d="M40.6639 85.2743C24.4741 85.2743 11.3008 72.0322 11.3008 55.7578C11.3008 39.4835 24.4741 26.2373 40.6639 26.2373C56.8537 26.2373 70.027 39.4794 70.027 55.7538C70.027 72.0281 56.8537 85.2703 40.6639 85.2703V85.2743ZM40.6639 29.8849C26.4716 29.8849 14.9254 41.4915 14.9254 55.7578C14.9254 70.0242 26.4716 81.6308 40.6639 81.6308C54.8561 81.6308 66.4024 70.0242 66.4024 55.7578C66.4024 41.4915 54.8561 29.8849 40.6639 29.8849Z" fill="#495057"/>
</g>
<defs>
<clipPath id="clip0_502_2">
<rect width="82" height="138" fill="white"/>
</clipPath>
</defs>
</svg>
