<svg width="114" height="114" viewBox="0 0 114 114" fill="none" xmlns="http://www.w3.org/2000/svg">
<g clip-path="url(#clip0_503_19)">
<path d="M57.008 92.9997C48.3371 92.9997 39.6662 93.0023 30.9979 92.9997C25.1606 92.9971 20.9311 88.8049 20.9258 82.953C20.9101 65.6562 20.9101 48.3594 20.9258 31.06C20.9311 25.2604 25.0352 20.9689 30.8306 20.948C48.2586 20.8853 65.6867 20.8905 83.1148 20.948C88.9599 20.9663 93.0195 25.1925 93.0221 31.0156C93.03 48.3124 93.03 65.6092 93.0221 82.9086C93.0221 88.8598 88.8527 92.9971 82.89 92.9997C74.2635 93.0023 65.637 92.9997 57.0106 92.9997H57.008Z" fill="#495057"/>
<path d="M96.8857 38.4565V31.3135C97.0818 31.256 97.2386 31.1672 97.3981 31.1672C101.659 31.1567 105.92 31.1149 110.181 31.1724C112.377 31.2012 113.927 32.7144 113.998 34.6799C114.065 36.6139 112.599 38.3859 110.591 38.4278C106.077 38.5192 101.557 38.4565 96.8857 38.4565Z" fill="#495057"/>
<path d="M96.8721 67.8465V60.8133C97.2407 60.7662 97.5674 60.6904 97.8968 60.6904C101.941 60.6826 105.985 60.6434 110.026 60.7009C113.03 60.7427 114.786 63.2884 113.644 65.8366C113.087 67.0781 112.125 67.9301 110.748 67.9536C106.228 68.0268 101.708 68.0085 97.1884 68.0164C97.1152 68.0164 97.0394 67.9406 96.8721 67.8465V67.8465Z" fill="#495057"/>
<path d="M31.2117 96.8809H38.4187C38.4475 97.3514 38.5023 97.8061 38.4997 98.2609C38.4919 102.134 38.4788 106.008 38.4579 109.881C38.4448 112.319 36.994 113.979 34.8714 114.003C32.7409 114.024 31.162 112.367 31.1437 109.983C31.115 105.893 31.1333 101.802 31.1385 97.712C31.1385 97.4611 31.1803 97.2129 31.2117 96.8862V96.8809Z" fill="#495057"/>
<path d="M60.7875 96.8548H67.9449C67.9763 97.3148 68.0311 97.7277 68.0285 98.1407C68.0207 102.095 68.0128 106.049 67.9867 110.004C67.971 112.335 66.5019 113.966 64.4211 113.997C62.2985 114.029 60.7248 112.351 60.7143 109.988C60.6987 105.989 60.7091 101.993 60.7143 97.9943C60.7143 97.6572 60.7562 97.3174 60.7875 96.8522V96.8548Z" fill="#495057"/>
<path d="M45.9919 96.8862H53.2381C53.2381 101.536 53.2956 106.099 53.212 110.657C53.178 112.523 51.4762 113.976 49.6542 113.997C47.8662 114.018 46.0729 112.662 46.0311 110.892C45.9239 106.248 45.9945 101.601 45.9945 96.8862H45.9919Z" fill="#495057"/>
<path d="M75.5099 96.8679H82.7457C82.7797 97.2338 82.8346 97.5631 82.8346 97.8898C82.8294 101.98 82.8529 106.073 82.7954 110.161C82.7535 113.135 79.9408 114.873 77.4156 113.527C76.2576 112.91 75.5361 111.92 75.5256 110.6C75.4864 106.078 75.5099 101.557 75.5099 96.8652V96.8679Z" fill="#495057"/>
<path d="M96.9775 45.9654C101.573 45.9654 106.093 45.9183 110.61 45.9863C112.521 46.015 114.032 47.7531 113.998 49.6192C113.964 51.5663 112.437 53.2129 110.435 53.239C106.004 53.2965 101.57 53.2573 96.9775 53.2573V45.9628V45.9654Z" fill="#495057"/>
<path d="M96.9062 82.8067V75.4938C97.6042 75.4938 98.2447 75.4938 98.8825 75.4938C102.579 75.4938 106.272 75.4834 109.969 75.4964C112.298 75.5043 113.955 76.9836 113.997 79.0457C114.039 81.1706 112.371 82.7858 110.021 82.7988C105.679 82.825 101.337 82.8067 96.9062 82.8067V82.8067Z" fill="#495057"/>
<path d="M17.1298 31.1489V38.2187C16.9887 38.3128 16.9207 38.4016 16.8501 38.4016C12.3304 38.4199 7.81065 38.5036 3.29353 38.4095C1.31728 38.3676 -0.0655669 36.6401 0.00239913 34.7243C0.0729793 32.7301 1.59176 31.2168 3.7719 31.1724C7.03166 31.1044 10.294 31.1515 13.5564 31.1489C14.7223 31.1489 15.8855 31.1489 17.1272 31.1489H17.1298Z" fill="#495057"/>
<path d="M17.1245 60.842V67.9248C16.6331 67.9588 16.2148 68.0085 15.7939 68.0111C11.75 68.0163 7.70598 68.0372 3.662 67.9954C1.90795 67.9771 0.705471 67.0493 0.203568 65.5255C-0.261738 64.1037 0.0963906 62.5095 1.29887 61.6496C1.97069 61.1687 2.8647 60.7557 3.66722 60.74C8.01444 60.6538 12.3643 60.7008 16.7115 60.7087C16.8317 60.7087 16.952 60.7845 17.1245 60.8446V60.842Z" fill="#495057"/>
<path d="M17.1482 45.9785V53.0953C16.9548 53.158 16.7979 53.2521 16.6411 53.2521C12.2886 53.2599 7.93879 53.2939 3.58635 53.2443C1.67285 53.2234 0.263857 51.8774 0.0285899 50.0583C-0.196221 48.3307 0.88078 46.6711 2.58516 46.1248C2.79167 46.0595 3.00603 45.9863 3.21777 45.9863C7.82116 45.9785 12.4246 45.9811 17.1482 45.9811V45.9785Z" fill="#495057"/>
<path d="M17.1322 75.5749V82.8093C16.429 82.8093 15.7938 82.8093 15.1586 82.8093C11.329 82.8067 7.49933 82.8381 3.67231 82.7858C1.67254 82.7597 0.237414 81.4137 0.0230594 79.5502C-0.175611 77.8226 0.927531 76.1629 2.63452 75.6559C2.9639 75.5592 3.3168 75.5043 3.65924 75.5043C7.92281 75.4939 12.189 75.4965 16.4525 75.5017C16.6591 75.5017 16.8656 75.5461 17.1322 75.5775V75.5749Z" fill="#495057"/>
<path d="M53.2515 17.1504H46.0445C46.0131 16.7349 45.9582 16.3611 45.9582 15.9874C45.953 12.0278 45.9477 8.07079 45.9582 4.11118C45.9634 1.64133 47.5057 -0.0444395 49.6885 0.0052189C51.8503 0.0548773 53.2593 1.68838 53.2567 4.12425C53.2515 7.95318 53.2541 11.7795 53.2515 15.6084C53.2515 16.0762 53.2515 16.5441 53.2515 17.1504Z" fill="#495057"/>
<path d="M75.5263 17.1008C75.5263 12.4277 75.4636 7.82249 75.5577 3.22256C75.5969 1.37735 77.3614 -0.026148 79.2096 0.00521516C81.0159 0.0365784 82.7177 1.40088 82.7569 3.19642C82.8536 7.79636 82.7883 12.3989 82.7883 17.1008H75.5263V17.1008Z" fill="#495057"/>
<path d="M38.4347 17.1348H31.2695C31.225 16.8499 31.144 16.565 31.1414 16.2775C31.1335 12.1898 31.1074 8.09956 31.144 4.01189C31.1701 1.15 33.515 -0.648155 36.0245 0.224788C37.3551 0.687395 38.3745 1.62045 38.4007 3.04748C38.4869 7.69184 38.4321 12.3388 38.4321 17.1348H38.4347Z" fill="#495057"/>
<path d="M67.8167 17.1165H60.8266C60.79 16.8055 60.7168 16.4788 60.7142 16.1495C60.7064 12.0539 60.6776 7.95843 60.7194 3.86292C60.7482 0.846826 63.6786 -0.930422 66.1933 0.507058C67.2363 1.10296 67.9604 1.9942 67.9709 3.22782C68.0023 7.71537 67.9761 12.2029 67.9657 16.6905C67.9657 16.8081 67.8872 16.9257 67.8167 17.1191V17.1165Z" fill="#495057"/>
<path fill-rule="evenodd" clip-rule="evenodd" d="M56.0659 82.3824C54.8897 82.3823 50.1793 82.2209 45.1899 79.8212C41.8562 78.2168 39.096 75.9468 36.9894 73.0707C34.3688 69.4934 32.7644 64.9802 32.2207 59.6588C32.2168 59.6126 32.2092 59.5577 32.2003 59.4932L32.2003 59.4932C32.1955 59.4582 32.1902 59.4203 32.185 59.3795C32.0483 58.3604 31.6858 55.6566 32.6158 52.3051C33.7716 48.1395 36.4724 44.4077 40.644 41.2077C40.7969 41.0909 40.9817 40.9452 41.1962 40.7761L41.1963 40.7761C41.2818 40.7087 41.3721 40.6375 41.467 40.563L41.4994 40.5375C44.4766 38.1969 51.3726 32.7756 56.1595 32L56.1605 32.0059L56.1605 32.003C60.9649 32.7815 67.9056 38.2395 70.8619 40.5689C71.1724 40.8151 71.4381 41.0217 71.6467 41.1839L71.6473 41.1844L71.6849 41.2137C75.8565 44.4136 78.5573 48.1455 79.7131 52.3111C80.6431 55.6596 80.2806 58.3663 80.1439 59.3855C80.129 59.4984 80.1172 59.5934 80.1082 59.6647C79.5645 64.9861 77.9601 69.4964 75.3395 73.0707C73.2329 75.9469 70.4727 78.2198 67.139 79.8213C62.1474 82.222 57.4351 82.3825 56.2615 82.3825C56.2224 82.3825 56.1912 82.3823 56.1658 82.382C56.1361 82.3822 56.1028 82.3824 56.0659 82.3824ZM42.6547 42.0033C45.2232 39.983 51.8326 34.7844 56.1545 33.8948L56.1545 33.8956C60.2559 34.56 66.4188 39.4327 69.2665 41.6842C69.4245 41.8092 69.5724 41.9261 69.7091 42.0337C69.8308 42.1288 69.9453 42.2188 70.0521 42.3029C70.2426 42.4528 70.4091 42.5838 70.5499 42.6904C76.5369 47.2808 79.1426 52.8132 78.2958 59.1329L78.2878 59.1956C78.2736 59.3067 78.2618 59.3987 78.2542 59.4716C77.3332 68.4713 73.3458 74.7406 66.3962 78.1099C61.783 80.3484 57.3081 80.5106 56.2754 80.5175L56.2754 80.5165L56.268 80.5166C56.253 80.5169 56.2164 80.5175 56.1597 80.5177C56.1084 80.5175 56.0751 80.5169 56.0609 80.5167L56.0535 80.5165L56.0535 80.5175C55.0208 80.5105 50.546 80.3484 45.9327 78.1098C38.9831 74.7405 34.9957 68.4683 34.0747 59.4716C34.0676 59.4011 34.0568 59.3175 34.0438 59.2165L34.0331 59.1329C33.1863 52.8132 35.792 47.2808 41.779 42.6874C41.9959 42.521 42.2811 42.2981 42.6198 42.0307L42.6547 42.0033ZM64.6603 44.5117C66.9006 44.5117 68.3059 46.0745 68.4188 48.6922V48.6951L69.1884 66.6768V66.7154C69.1141 68.7833 67.5988 70.2867 65.5843 70.2867C64.1492 70.2867 62.42 69.7222 62.316 67.0244L62.0516 59.3439C61.5893 60.4967 61.1571 61.6716 60.7315 62.8288L60.6789 62.9717L60.666 63.0069C60.1085 64.5261 59.5332 66.0937 58.911 67.5414C58.1861 69.2765 56.8431 70.3165 55.3189 70.3165C53.5867 70.3165 52.3685 69.1963 52.0625 67.3215L50.767 59.6083L48.6872 67.2027C48.1464 69.2468 46.9728 70.2867 45.0237 70.2867C43.0746 70.2867 41.9099 69.2023 41.9099 67.3869C41.9099 66.8461 41.9812 66.4539 42.0525 66.0974L42.0644 66.0409L46.7351 48.4634C47.6681 44.9722 49.9351 44.4523 51.2008 44.4523C53.245 44.4523 54.7365 45.825 55.1882 48.1247L56.7451 56.0815L60.1114 47.9167C61.0117 45.721 62.625 44.5117 64.6603 44.5117Z" fill="white"/>
</g>
<defs>
<clipPath id="clip0_503_19">
<rect width="114" height="114" fill="white"/>
</clipPath>
</defs>
</svg>
