<svg width="78" height="140" viewBox="0 0 78 140" fill="none" xmlns="http://www.w3.org/2000/svg">
<path fill-rule="evenodd" clip-rule="evenodd" d="M22.6114 109.965C18.1647 109.965 14.5725 113.554 14.5725 117.966C14.5725 122.379 18.1647 125.968 22.6114 125.968C27.0581 125.968 30.6502 122.379 30.6502 117.966C30.6502 113.554 27.0581 109.965 22.6114 109.965ZM10.5725 117.966C10.5725 111.331 15.9695 105.965 22.6114 105.965C29.2533 105.965 34.6502 111.331 34.6502 117.966C34.6502 124.602 29.2533 129.968 22.6114 129.968C15.9695 129.968 10.5725 124.602 10.5725 117.966Z" fill="#495057"/>
<path fill-rule="evenodd" clip-rule="evenodd" d="M22.4881 6.93318C13.8875 6.93318 6.93579 13.8764 6.93579 22.4161V117.584C6.93579 126.124 13.8875 133.067 22.4881 133.067C31.0887 133.067 38.0404 126.124 38.0404 117.584V22.4161C38.0404 13.8764 31.0887 6.93318 22.4881 6.93318ZM0.435791 22.4161C0.435791 10.264 10.3203 0.433182 22.4881 0.433182C34.6559 0.433182 44.5404 10.264 44.5404 22.4161V117.584C44.5404 129.736 34.6559 139.567 22.4881 139.567C10.3203 139.567 0.435791 129.736 0.435791 117.584V22.4161Z" fill="#495057"/>
<path fill-rule="evenodd" clip-rule="evenodd" d="M65.6742 29.7106C62.686 29.7106 60.2842 32.1208 60.2842 35.0687V107.459C60.2842 110.407 62.686 112.817 65.6742 112.817C68.6623 112.817 71.0642 110.407 71.0642 107.459V35.0687C71.0642 32.1208 68.6623 29.7106 65.6742 29.7106ZM53.7842 35.0687C53.7842 28.5083 59.1188 23.2106 65.6742 23.2106C72.2295 23.2106 77.5642 28.5083 77.5642 35.0687V107.459C77.5642 114.019 72.2295 119.317 65.6742 119.317C59.1188 119.317 53.7842 114.019 53.7842 107.459V35.0687Z" fill="#495057"/>
</svg>
