<?xml version="1.0" standalone="no"?>
<!DOCTYPE svg PUBLIC "-//W3C//DTD SVG 20010904//EN"
 "http://www.w3.org/TR/2001/REC-SVG-20010904/DTD/svg10.dtd">
<svg version="1.0" xmlns="http://www.w3.org/2000/svg"
 width="112.000000pt" height="112.000000pt" viewBox="0 0 112.000000 112.000000"
 preserveAspectRatio="xMidYMid meet">

<g transform="translate(0.000000,112.000000) scale(0.100000,-0.100000)"
fill="#000000" stroke="none">
<path d="M364 1056 c-38 -7 -84 -21 -101 -29 -28 -15 -31 -22 -38 -84 -4 -37
-6 -142 -5 -233 4 -242 5 -240 -24 -240 -43 0 -51 -23 -54 -164 -3 -163 3
-180 72 -184 41 -3 48 0 53 17 11 41 33 15 33 -38 0 -27 1 -28 93 -39 92 -12
237 -11 377 2 109 10 120 14 120 36 0 15 7 20 29 20 16 0 35 7 42 17 18 21 25
233 10 291 -11 38 -14 42 -44 42 l-33 0 3 228 c3 125 0 247 -4 272 -8 43 -11
46 -68 69 -54 22 -77 25 -225 27 -107 2 -190 -1 -236 -10z m353 -30 c29 -3 73
-14 96 -24 l44 -19 6 -86 c4 -47 4 -146 0 -221 -6 -124 -8 -139 -29 -161 -29
-31 -74 -34 -74 -5 0 25 -23 26 -41 1 -11 -15 -29 -20 -79 -23 l-65 -3 -3 83
-3 83 -92 -3 -92 -3 -3 -73 -3 -74 -25 17 c-23 15 -25 15 -33 -7 l-8 -22 -26
27 -27 26 0 219 c0 164 3 222 13 230 23 19 101 35 207 42 102 6 129 6 237 -4z
m-179 -478 l-3 -63 -57 -3 -58 -3 0 66 0 65 60 0 61 0 -3 -62z m-181 -195 c-6
-101 -24 -142 -64 -143 -23 0 -23 2 -23 128 l0 128 46 -10 47 -11 -6 -92z
m483 -58 l0 -175 -25 0 -25 0 0 163 c0 160 1 164 23 175 12 6 23 11 25 11 1 1
2 -78 2 -174z m-90 -11 c0 -139 -2 -164 -15 -164 -13 0 -15 26 -15 170 0 146
2 169 15 164 12 -5 15 -34 15 -170z m-70 -9 l0 -175 -30 0 -30 0 0 175 0 175
30 0 30 0 0 -175z m-100 96 c0 -69 -3 -71 -112 -71 l-68 0 0 59 0 60 38 4 c20
2 61 4 90 5 l52 2 0 -59z m-150 -181 c0 -47 -4 -80 -10 -80 -11 0 -14 142 -3
153 12 13 13 7 13 -73z m150 0 c0 -47 -4 -80 -10 -80 -6 0 -10 33 -10 80 0 47
4 80 10 80 6 0 10 -33 10 -80z m-60 -10 c0 -79 0 -80 -25 -80 -25 0 -25 1 -25
80 0 79 0 80 25 80 25 0 25 -1 25 -80z m-161 -22 l-1 -43 -8 35 c-8 32 -6 50
6 50 2 0 4 -19 3 -42z"/>
</g>
</svg>
