<?xml version="1.0" standalone="no"?>
<!DOCTYPE svg PUBLIC "-//W3C//DTD SVG 20010904//EN"
 "http://www.w3.org/TR/2001/REC-SVG-20010904/DTD/svg10.dtd">
<svg version="1.0" xmlns="http://www.w3.org/2000/svg"
 width="112.000000pt" height="112.000000pt" viewBox="0 0 112.000000 112.000000"
 preserveAspectRatio="xMidYMid meet">

<g transform="translate(0.000000,112.000000) scale(0.100000,-0.100000)"
fill="#000000" stroke="none">
<path d="M382 1108 c-81 -10 -262 -54 -273 -65 -3 -5 -9 -223 -12 -485 l-6
-478 52 -15 c258 -77 569 -79 820 -4 l67 20 0 483 0 484 -67 15 c-240 53 -411
67 -581 45z m338 -58 c125 -15 250 -41 250 -52 0 -5 -8 -7 -17 -4 -62 19 -219
38 -348 43 -154 6 -278 -5 -389 -33 -76 -20 -85 -10 -10 12 143 41 343 55 514
34z m-29 -40 c57 -6 143 -18 192 -26 l87 -16 -2 -412 -3 -411 -110 -24 c-189
-40 -475 -32 -668 20 l-37 10 2 407 3 407 75 17 c156 37 291 45 461 28z m-404
-916 c-3 -3 -12 -4 -19 -1 -8 3 -5 6 6 6 11 1 17 -2 13 -5z m56 -11 c-7 -2
-19 -2 -25 0 -7 3 -2 5 12 5 14 0 19 -2 13 -5z m480 0 c-7 -2 -19 -2 -25 0 -7
3 -2 5 12 5 14 0 19 -2 13 -5z m-395 -10 c-10 -2 -28 -2 -40 0 -13 2 -5 4 17
4 22 1 32 -1 23 -4z m340 0 c-10 -2 -26 -2 -35 0 -10 3 -2 5 17 5 19 0 27 -2
18 -5z m-125 -10 c-34 -2 -93 -2 -130 0 -37 2 -10 3 62 3 72 0 102 -1 68 -3z"/>
<path d="M220 615 l0 -285 345 0 345 0 0 285 0 285 -345 0 -345 0 0 -285z
m668 3 l-3 -233 -317 -3 -318 -2 0 235 0 235 320 0 320 0 -2 -232z"/>
<path d="M410 630 l0 -150 150 0 150 0 0 150 0 150 -150 0 -150 0 0 -150z
m280 0 l0 -130 -130 0 -130 0 0 123 c0 68 3 127 7 130 3 4 62 7 130 7 l123 0
0 -130z"/>
<path d="M483 713 c9 -2 25 -2 35 0 9 3 1 5 -18 5 -19 0 -27 -2 -17 -5z"/>
<path d="M542 678 c-2 -45 -3 -47 -34 -51 l-33 -4 33 -1 c38 -2 45 9 39 64 -3
38 -4 37 -5 -8z"/>
<path d="M598 709 c13 -5 27 -7 32 -4 4 3 10 -13 12 -35 3 -37 2 -39 -27 -43
l-30 -4 30 -1 c29 -2 30 -4 27 -41 -4 -36 -7 -40 -35 -44 -24 -3 -22 -4 9 -4
l42 1 0 85 c1 93 -4 101 -53 100 -29 0 -29 -1 -7 -10z"/>
<path d="M467 603 c-11 -10 -8 -53 3 -53 6 0 10 14 10 30 0 31 -2 35 -13 23z"/>
<path d="M483 533 c9 -2 25 -2 35 0 9 3 1 5 -18 5 -19 0 -27 -2 -17 -5z"/>
<path d="M220 241 l0 -39 88 -13 c115 -18 414 -18 520 0 l82 13 0 39 0 39
-345 0 -345 0 0 -39z m128 -8 c3 -19 -1 -23 -22 -23 -16 0 -26 6 -26 15 0 8
-5 15 -11 15 -5 0 -7 -4 -4 -10 4 -6 -5 -10 -19 -10 -25 0 -35 18 -19 34 4 4
28 6 53 4 38 -3 45 -6 48 -25z m140 -5 c3 -28 3 -28 -53 -28 -58 0 -74 12 -61
46 4 11 18 14 58 12 49 -3 53 -5 56 -30z m127 -3 c0 -34 -16 -41 -71 -30 -27
5 -34 11 -34 29 0 32 9 37 60 34 43 -3 45 -5 45 -33z m140 5 c0 -23 -4 -25
-52 -28 l-53 -3 0 31 0 31 53 -3 c48 -3 52 -5 52 -28z m131 19 c10 -17 -8 -28
-59 -35 -42 -6 -47 -5 -47 13 0 11 3 23 7 26 11 11 91 8 99 -4z"/>
<path d="M420 229 c0 -5 5 -7 10 -4 6 3 10 8 10 11 0 2 -4 4 -10 4 -5 0 -10
-5 -10 -11z"/>
<path d="M555 230 c3 -5 8 -10 11 -10 2 0 4 5 4 10 0 6 -5 10 -11 10 -5 0 -7
-4 -4 -10z"/>
<path d="M690 230 c0 -5 5 -10 10 -10 6 0 10 5 10 10 0 6 -4 10 -10 10 -5 0
-10 -4 -10 -10z"/>
<path d="M825 230 c3 -5 8 -10 11 -10 2 0 4 5 4 10 0 6 -5 10 -11 10 -5 0 -7
-4 -4 -10z"/>
</g>
</svg>
