<?xml version="1.0" standalone="no"?>
<!DOCTYPE svg PUBLIC "-//W3C//DTD SVG 20010904//EN"
 "http://www.w3.org/TR/2001/REC-SVG-20010904/DTD/svg10.dtd">
<svg version="1.0" xmlns="http://www.w3.org/2000/svg"
 width="112.000000pt" height="112.000000pt" viewBox="0 0 112.000000 112.000000"
 preserveAspectRatio="xMidYMid meet">

<g transform="translate(0.000000,112.000000) scale(0.100000,-0.100000)"
fill="#000000" stroke="none">
<path d="M445 1063 c-80 -18 -130 -38 -160 -64 l-35 -31 0 -333 0 -333 41 -37
c23 -20 54 -41 70 -47 27 -9 29 -14 29 -58 0 -41 4 -52 30 -74 66 -55 174 -58
264 -8 57 33 76 60 76 114 0 27 5 38 19 43 11 3 38 26 60 50 48 52 47 29 28
425 -10 200 -15 251 -29 272 -21 32 -87 63 -163 77 -57 11 -190 13 -230 4z
m265 -62 c63 -20 100 -44 100 -67 0 -42 -131 -84 -260 -84 -181 0 -296 65
-218 123 65 49 264 63 378 28z m109 -221 c1 -20 -1 -22 -10 -10 -9 12 -10 11
-4 -5 21 -60 33 -401 16 -433 -30 -57 -149 -102 -270 -102 -89 0 -156 17 -213
55 l-39 26 2 270 c1 148 3 269 5 269 17 0 34 -17 35 -34 1 -16 2 -17 6 -3 5
18 15 22 27 10 7 -8 40 -14 74 -13 14 0 26 -8 32 -23 7 -17 9 -18 9 -4 1 27
41 22 42 -5 2 -23 2 -23 6 0 4 22 9 24 49 20 24 -2 45 0 46 4 2 3 19 8 38 10
29 3 35 -1 42 -22 8 -25 8 -25 4 2 -4 37 38 55 47 21 4 -14 5 -12 6 5 0 12 5
22 10 22 5 0 12 -10 14 -22 5 -21 5 -21 5 2 0 14 1 30 2 35 3 14 17 -44 19
-75z m-92 -622 c-2 -13 -4 -5 -4 17 -1 22 1 32 4 23 2 -10 2 -28 0 -40z m-17
3 c0 -34 -5 -42 -36 -62 -20 -12 -56 -24 -80 -27 l-44 -5 0 47 c0 37 3 46 18
46 9 0 44 9 77 20 33 10 61 19 63 19 1 1 2 -17 2 -38z m-220 15 c44 -13 45
-14 48 -60 3 -42 1 -46 -20 -46 -13 0 -41 10 -63 23 -34 19 -40 28 -43 60 -4
43 4 45 78 23z"/>
<path d="M391 784 c0 -11 3 -14 6 -6 3 7 2 16 -1 19 -3 4 -6 -2 -5 -13z"/>
<path d="M671 784 c0 -11 3 -14 6 -6 3 7 2 16 -1 19 -3 4 -6 -2 -5 -13z"/>
<path d="M351 774 c0 -11 3 -14 6 -6 3 7 2 16 -1 19 -3 4 -6 -2 -5 -13z"/>
<path d="M442 770 c0 -14 2 -19 5 -12 2 6 2 18 0 25 -3 6 -5 1 -5 -13z"/>
<path d="M581 774 c0 -11 3 -14 6 -6 3 7 2 16 -1 19 -3 4 -6 -2 -5 -13z"/>
<path d="M311 764 c0 -11 3 -14 6 -6 3 7 2 16 -1 19 -3 4 -6 -2 -5 -13z"/>
<path d="M631 764 c0 -11 3 -14 6 -6 3 7 2 16 -1 19 -3 4 -6 -2 -5 -13z"/>
<path d="M491 744 c0 -11 3 -14 6 -6 3 7 2 16 -1 19 -3 4 -6 -2 -5 -13z"/>
<path d="M681 744 c0 -11 3 -14 6 -6 3 7 2 16 -1 19 -3 4 -6 -2 -5 -13z"/>
<path d="M541 734 c0 -11 3 -14 6 -6 3 7 2 16 -1 19 -3 4 -6 -2 -5 -13z"/>
<path d="M361 724 c0 -11 3 -14 6 -6 3 7 2 16 -1 19 -3 4 -6 -2 -5 -13z"/>
<path d="M501 704 c0 -11 3 -14 6 -6 3 7 2 16 -1 19 -3 4 -6 -2 -5 -13z"/>
<path d="M551 694 c0 -11 3 -14 6 -6 3 7 2 16 -1 19 -3 4 -6 -2 -5 -13z"/>
</g>
</svg>
