<svg width="1893" height="2045" viewBox="0 0 1893 2045" fill="none" xmlns="http://www.w3.org/2000/svg">
<g clip-path="url(#clip0_501_312)">
<path d="M1397.25 -0.0151367V1671.36C1397.25 1742.15 1340.02 1799.4 1269.61 1799.4H128.014C111.195 1799.42 94.538 1796.12 78.9959 1789.69C63.4539 1783.26 49.3323 1773.83 37.4395 1761.94C25.5467 1750.04 16.1163 1735.92 9.68794 1720.38C3.25954 1704.84 -0.0405981 1688.18 -0.0233704 1671.36V128.401C-0.0233704 57.6093 57.208 -0.000572735 128.014 -0.000572735L1397.25 -0.0151367Z" fill="#EEF8FB"/>
<path d="M1397.42 -0.0146484V1671.36C1397.42 1742.15 1340.19 1799.4 1269.78 1799.4H128.219C70.6163 1799.4 22.0493 1761.37 5.85547 1709.04C23.0296 1717.21 41.8109 1721.46 60.8317 1721.46H1202.38C1272.8 1721.46 1330.03 1664.22 1330.03 1593.42V-0.0146484H1397.42Z" fill="#C1E2F4"/>
<path d="M281.98 128.402C275.365 128.435 268.949 126.145 263.849 121.932C258.749 117.719 255.29 111.85 254.073 105.348C249.361 79.7017 237.033 56.0695 218.696 37.5312C195.3 14.5135 163.312 0.0875519 128.211 0.0875519H1525.72C1542.53 0.0618246 1559.17 3.35613 1574.7 9.78184C1590.23 16.2075 1604.34 25.6379 1616.22 37.5312C1630.8 52.3108 1641.65 70.3544 1647.86 90.1651C1653.74 109.029 1640.29 128.402 1620.53 128.402H281.98Z" fill="#C1E2F4"/>
<path d="M1133.13 319.288H264.171C236.609 319.288 214.266 341.631 214.266 369.193V572.483C214.266 600.045 236.609 622.389 264.171 622.389H1133.13C1160.69 622.389 1183.04 600.045 1183.04 572.483V369.193C1183.04 341.631 1160.69 319.288 1133.13 319.288Z" fill="#C1E2F4"/>
<path d="M1183.02 369.368V572.337C1183.06 578.895 1181.81 585.396 1179.33 591.468C1176.86 597.54 1173.2 603.062 1168.58 607.716C1163.96 612.371 1158.47 616.066 1152.42 618.589C1146.36 621.112 1139.87 622.413 1133.31 622.418H264.317C252.087 622.524 240.257 618.068 231.135 609.92C222.014 601.773 216.256 590.518 214.986 578.354C217.249 579.081 219.89 579.081 222.145 579.081H1091.14C1097.67 579.088 1104.14 577.807 1110.17 575.312C1116.2 572.817 1121.68 569.157 1126.3 564.541C1130.92 559.926 1134.58 554.445 1137.07 548.412C1139.57 542.38 1140.85 535.915 1140.84 529.386V326.075C1140.84 324.177 1140.84 321.929 1140.12 320.044C1164.16 323.056 1183.02 343.76 1183.02 369.368Z" fill="#63D2FF"/>
<path d="M1207.27 788.736H190.107C174.381 788.736 161.633 801.484 161.633 817.21V817.217C161.633 832.943 174.381 845.691 190.107 845.691H1207.27C1223 845.691 1235.74 832.943 1235.74 817.217V817.21C1235.74 801.484 1223 788.736 1207.27 788.736Z" fill="#C1E2F4"/>
<path d="M1235.67 817.203C1235.7 820.952 1234.98 824.669 1233.56 828.138C1232.14 831.607 1230.04 834.759 1227.39 837.41C1224.74 840.061 1221.59 842.158 1218.12 843.58C1214.65 845.001 1210.93 845.719 1207.18 845.691H190.055C182.499 845.691 175.253 842.69 169.91 837.347C164.568 832.004 161.566 824.758 161.566 817.203C161.574 814.146 162.136 811.117 163.225 808.262C165.005 813.969 168.575 818.952 173.407 822.473C178.239 825.994 184.076 827.865 190.055 827.809H1207.18C1219.77 827.809 1230.7 819.858 1234.01 808.262C1235.1 811.118 1235.66 814.147 1235.67 817.203V817.203Z" fill="white"/>
<path d="M1207.27 932.139H190.107C174.381 932.139 161.633 944.887 161.633 960.612V960.62C161.633 976.345 174.381 989.094 190.107 989.094H1207.27C1223 989.094 1235.74 976.345 1235.74 960.62V960.612C1235.74 944.887 1223 932.139 1207.27 932.139Z" fill="#C1E2F4"/>
<path d="M1235.67 960.452C1235.7 964.201 1234.98 967.918 1233.56 971.388C1232.14 974.857 1230.04 978.008 1227.39 980.659C1224.74 983.31 1221.59 985.408 1218.12 986.83C1214.65 988.251 1210.93 988.969 1207.18 988.941H190.056C182.5 988.941 175.254 985.94 169.912 980.597C164.569 975.254 161.567 968.008 161.567 960.452C161.444 957.494 162.011 954.547 163.226 951.846C165.105 957.492 168.701 962.411 173.511 965.914C178.321 969.417 184.105 971.33 190.056 971.386H1207.18C1213.15 971.377 1218.95 969.482 1223.77 965.973C1228.59 962.463 1232.18 957.518 1234.01 951.846C1235.23 954.547 1235.8 957.494 1235.67 960.452V960.452Z" fill="white"/>
<path d="M1131.97 1218.94H190.107C174.381 1218.94 161.633 1231.69 161.633 1247.42V1247.42C161.633 1263.15 174.381 1275.9 190.107 1275.9H1131.97C1147.69 1275.9 1160.44 1263.15 1160.44 1247.42V1247.42C1160.44 1231.69 1147.69 1218.94 1131.97 1218.94Z" fill="#C1E2F4"/>
<path d="M1160.36 1247.35C1160.39 1251.1 1159.67 1254.82 1158.25 1258.28C1156.83 1261.75 1154.73 1264.9 1152.08 1267.55C1149.43 1270.2 1146.28 1272.3 1142.81 1273.72C1139.35 1275.14 1135.63 1275.86 1131.88 1275.83H190.055C186.314 1275.83 182.61 1275.1 179.153 1273.67C175.697 1272.24 172.556 1270.14 169.911 1267.49C167.265 1264.85 165.167 1261.71 163.735 1258.25C162.303 1254.8 161.566 1251.09 161.566 1247.35C161.566 1244.37 161.901 1241.39 163.225 1238.74C165.104 1244.38 168.7 1249.3 173.51 1252.81C178.32 1256.31 184.104 1258.22 190.055 1258.28H1131.88C1137.84 1258.27 1143.65 1256.38 1148.47 1252.87C1153.29 1249.36 1156.87 1244.41 1158.71 1238.74C1160.03 1241.39 1160.36 1244.37 1160.36 1247.35Z" fill="white"/>
<path d="M1131.97 1075.54H190.107C174.381 1075.54 161.633 1088.29 161.633 1104.01V1104.02C161.633 1119.75 174.381 1132.5 190.107 1132.5H1131.97C1147.69 1132.5 1160.44 1119.75 1160.44 1104.02V1104.01C1160.44 1088.29 1147.69 1075.54 1131.97 1075.54Z" fill="#C1E2F4"/>
<path d="M1160.36 1103.95C1160.39 1107.7 1159.67 1111.41 1158.25 1114.88C1156.83 1118.35 1154.73 1121.5 1152.08 1124.15C1149.43 1126.8 1146.28 1128.9 1142.81 1130.32C1139.35 1131.74 1135.63 1132.46 1131.88 1132.43H190.055C186.314 1132.43 182.61 1131.7 179.153 1130.26C175.697 1128.83 172.556 1126.74 169.911 1124.09C167.265 1121.45 165.167 1118.31 163.735 1114.85C162.303 1111.39 161.566 1107.69 161.566 1103.95C161.566 1100.96 161.901 1097.98 163.225 1095.34C165.104 1100.98 168.7 1105.9 173.51 1109.4C178.32 1112.91 184.104 1114.82 190.055 1114.88H1131.88C1137.84 1114.87 1143.65 1112.97 1148.47 1109.46C1153.29 1105.95 1156.87 1101.01 1158.71 1095.34C1160.03 1097.98 1160.36 1100.96 1160.36 1103.95Z" fill="white"/>
<path d="M920.205 1362.33H190.107C174.381 1362.33 161.633 1375.08 161.633 1390.81V1390.81C161.633 1406.54 174.381 1419.29 190.107 1419.29H920.205C935.93 1419.29 948.679 1406.54 948.679 1390.81V1390.81C948.679 1375.08 935.93 1362.33 920.205 1362.33Z" fill="#C1E2F4"/>
<path d="M948.525 1390.83C948.526 1394.57 947.79 1398.27 946.359 1401.73C944.928 1405.19 942.83 1408.33 940.186 1410.97C937.541 1413.62 934.401 1415.72 930.945 1417.15C927.489 1418.58 923.785 1419.32 920.044 1419.32H190.055C182.516 1419.26 175.302 1416.24 169.971 1410.91C164.641 1405.58 161.622 1398.37 161.566 1390.83C161.574 1387.77 162.136 1384.74 163.225 1381.89C165.006 1387.59 168.577 1392.57 173.409 1396.09C178.241 1399.61 184.077 1401.48 190.055 1401.43H920.044C932.629 1401.43 943.556 1393.48 946.866 1381.89C948.19 1384.54 948.525 1387.52 948.525 1390.83Z" fill="white"/>
<g opacity="0.4">
<path opacity="0.4" d="M698.656 396.904C698.654 403.044 696.213 408.933 691.871 413.275C687.529 417.617 681.641 420.058 675.5 420.06H429.006C422.864 420.06 416.975 417.62 412.632 413.277C408.289 408.935 405.85 403.045 405.85 396.904C405.85 390.762 408.289 384.872 412.632 380.53C416.975 376.187 422.864 373.748 429.006 373.748H675.5C681.641 373.749 687.529 376.19 691.871 380.532C696.213 384.874 698.654 390.763 698.656 396.904V396.904Z" fill="white"/>
</g>
<g opacity="0.4">
<path opacity="0.4" d="M366.834 396.904C366.832 403.044 364.392 408.933 360.049 413.275C355.707 417.617 349.818 420.058 343.678 420.06H313.08C306.938 420.06 301.049 417.62 296.706 413.277C292.363 408.935 289.924 403.045 289.924 396.904C289.924 390.762 292.363 384.872 296.706 380.53C301.049 376.187 306.938 373.748 313.08 373.748H343.678C349.818 373.749 355.707 376.19 360.049 380.532C364.392 384.874 366.832 390.763 366.834 396.904V396.904Z" fill="white"/>
</g>
<g opacity="0.4">
<path opacity="0.4" d="M80.1106 1063.26C77.8847 1063.26 75.6803 1062.82 73.6238 1061.97C71.5673 1061.12 69.6989 1059.87 68.1249 1058.3C66.5509 1056.72 65.3021 1054.85 64.4503 1052.8C63.5985 1050.74 63.1602 1048.54 63.1602 1046.31V746.178C63.1602 741.682 64.946 737.371 68.1249 734.192C71.3037 731.013 75.6151 729.228 80.1106 729.228C84.6062 729.228 88.9176 731.013 92.0964 734.192C95.2752 737.371 97.0609 741.682 97.0609 746.178V1046.31C97.0609 1050.81 95.2752 1055.12 92.0964 1058.3C88.9176 1061.48 84.6062 1063.26 80.1106 1063.26V1063.26Z" fill="white"/>
</g>
<g opacity="0.4">
<path opacity="0.4" d="M80.1106 700.644C77.8847 700.644 75.6803 700.206 73.6238 699.354C71.5673 698.502 69.6989 697.254 68.1249 695.68C66.5509 694.106 65.3021 692.237 64.4503 690.18C63.5985 688.124 63.1602 685.92 63.1602 683.694V661.273C63.1602 656.777 64.946 652.466 68.1249 649.287C71.3037 646.108 75.6151 644.322 80.1106 644.322C84.6062 644.322 88.9176 646.108 92.0964 649.287C95.2752 652.466 97.0609 656.777 97.0609 661.273V683.672C97.0638 685.9 96.6275 688.106 95.777 690.165C94.9264 692.224 93.6783 694.096 92.104 695.672C90.5297 697.248 88.6602 698.499 86.6022 699.352C84.5443 700.205 82.3384 700.644 80.1106 700.644V700.644Z" fill="white"/>
</g>
<path d="M1402.2 2045.01C1673.26 2045.01 1893 1825.27 1893 1554.21C1893 1283.15 1673.26 1063.41 1402.2 1063.41C1131.14 1063.41 911.402 1283.15 911.402 1554.21C911.402 1825.27 1131.14 2045.01 1402.2 2045.01Z" fill="#E83D62"/>
<path d="M1467.77 2040.36C1446.04 2043.37 1424.14 2044.92 1402.21 2045C1131.24 2045 911.336 1825.09 911.336 1554.13C911.336 1283.17 1131.24 1063.26 1402.21 1063.26C1424.14 1063.34 1446.04 1064.9 1467.77 1067.91C1227.56 1099.24 1041.89 1305.22 1041.89 1554.13C1041.89 1803.05 1227.56 2009.03 1467.77 2040.36Z" fill="#CE2955"/>
<path d="M1594.83 1680.62C1611.66 1697.45 1611.66 1724.72 1594.83 1742.12C1578.62 1758.34 1552.38 1759.9 1533.33 1742.12L1407.43 1615.64L1280.94 1742.12C1261.99 1759.81 1235.73 1758.43 1219.44 1742.12C1202.03 1724.72 1202.03 1697.45 1219.44 1680.62L1345.92 1554.13L1219.45 1427.65C1202.04 1410.82 1202.04 1383.55 1219.45 1366.14C1236.28 1349.32 1263.55 1349.32 1280.96 1366.14L1407.45 1492.63L1533.35 1366.14C1550.18 1349.32 1578.03 1349.32 1594.85 1366.14C1611.68 1383.55 1611.68 1410.82 1594.85 1427.65L1468.37 1554.13L1594.83 1680.62Z" fill="white"/>
</g>
<defs>
<clipPath id="clip0_501_312">
<rect width="1893" height="2045" fill="white"/>
</clipPath>
</defs>
</svg>
