<svg width="2073" height="2081" viewBox="0 0 2073 2081" fill="none" xmlns="http://www.w3.org/2000/svg">
<g clip-path="url(#clip0_501_299)">
<path d="M2072.84 840.565C2065.36 1034.78 1898.14 1178 1708.98 1178H418.829C273.733 1178 146.529 1103.05 74.4336 997.603C27.2781 930.115 0.0195312 848.351 0.0195312 759.667C0.0195312 528.216 187.359 340.897 418.829 340.897C422.867 340.826 426.906 340.969 430.929 341.328C478.099 145.356 654.627 0.00018281 865.319 0.00018281C934.084 -0.0622131 1001.92 15.8487 1063.49 46.4785C1125.05 77.1083 1178.66 121.62 1220.09 176.503C1270.09 150.106 1325.78 136.297 1382.33 136.272C1574.43 136.272 1729.75 291.582 1729.75 483.228C1925.38 485.73 2078.54 648.866 2072.84 840.565Z" fill="#A2A2F9"/>
<path d="M2072.82 840.628C2065.22 1038.01 1894.74 1178.06 1708.96 1178.06H418.805C274.473 1178.06 146.762 1103.5 74.4189 997.666C27.2537 930.179 0 848.415 0 759.725C0 528.279 187.335 340.96 418.805 340.96C422.843 340.889 426.882 341.033 430.905 341.391C478.06 145.419 654.583 0.0587584 865.28 0.0587584C934.045 -0.00045559 1001.88 15.9124 1063.45 46.5428C1125.01 77.1732 1178.62 121.684 1220.05 176.566C1270.05 150.165 1325.74 136.354 1382.29 136.33C1574.38 136.33 1729.7 291.641 1729.7 483.286C1924.59 485.779 2078.54 648.169 2072.82 840.628Z" fill="#C1E2F4"/>
<g opacity="0.3">
<path opacity="0.3" d="M1629.59 520.845C1619.64 520.843 1610.1 516.888 1603.06 509.852C1596.02 502.815 1592.07 493.271 1592.07 483.32C1592.07 367.761 1498.05 273.768 1382.5 273.768C1372.54 273.768 1363 269.814 1355.96 262.777C1348.92 255.739 1344.97 246.195 1344.97 236.242C1344.97 226.29 1348.92 216.745 1355.96 209.707C1363 202.67 1372.54 198.716 1382.5 198.716C1539.43 198.716 1667.11 326.393 1667.11 483.339C1667.11 493.286 1663.15 502.823 1656.11 509.855C1649.08 516.887 1639.54 520.84 1629.59 520.845V520.845Z" fill="white"/>
</g>
<g opacity="0.3">
<path opacity="0.3" d="M98.0573 749.301C93.1822 748.574 88.4982 746.894 84.2728 744.357C80.0475 741.819 76.3638 738.474 73.4322 734.512C70.5006 730.55 68.3787 726.049 67.1877 721.267C65.9967 716.484 65.76 711.514 66.4912 706.64C88.4548 559.838 200.896 440.979 346.322 410.877C366.335 406.521 386.44 419.67 390.67 440.02C392.685 449.766 390.746 459.913 385.279 468.229C379.812 476.545 371.266 482.35 361.519 484.365C246.784 508.151 158.048 601.908 140.721 717.732C137.604 738.542 118.09 752.422 98.0573 749.301Z" fill="white"/>
</g>
<path d="M2072.39 841.048C2068.91 1021.72 1908.26 1178.05 1708.96 1178.05H418.806C274.474 1178.05 146.763 1103.49 74.4199 997.656C144.115 1045.92 227.914 1072.49 313.237 1072.49H1603.39C1792.25 1072.49 1962.03 926.853 1966.83 735.058C1968.99 662.377 1949.08 594.89 1912.75 538.219C2013.72 603.151 2076.09 716.183 2072.39 841.048Z" fill="#EEF8FB"/>
<path d="M711.166 1107.77H830.712V692.286C830.712 671.611 838.926 651.783 853.547 637.163C868.167 622.544 887.997 614.331 908.674 614.331H1171.14C1191.82 614.331 1211.65 622.544 1226.27 637.163C1240.89 651.783 1249.11 671.611 1249.11 692.286V1107.77H1361.98C1418.46 1107.77 1449.43 1173.07 1414.03 1217.34L1088.62 1623.53C1061.94 1656.84 1011.25 1656.84 984.564 1623.53L658.778 1216.87C623.563 1172.93 654.853 1107.77 711.166 1107.77Z" fill="#47B25E"/>
<path d="M1249.08 692.169V741.973H1018.87C976.801 741.973 941.397 777.384 941.397 820.553V1152.35C941.397 1174.53 932.587 1195.79 916.905 1211.47C901.223 1227.15 879.954 1235.96 857.777 1235.96H821.85C765.397 1235.96 734.402 1301.27 769.83 1344.43L1007.8 1642.15C998.929 1637.72 991.2 1631.08 984.564 1623.33L658.778 1216.68C623.572 1172.74 654.862 1107.59 711.175 1107.59H830.722V692.169C830.722 649.006 866.121 614.693 908.199 614.693H1171.62C1213.68 614.693 1249.08 649.006 1249.08 692.169Z" fill="#7AD193"/>
<path d="M1601.64 2080.78H471.339C363.674 2080.78 276.096 1993.21 276.096 1885.56V1641.53C276.096 1593.62 314.951 1554.76 362.871 1554.76C385.884 1554.76 407.954 1563.9 424.227 1580.18C440.5 1596.45 449.641 1618.52 449.641 1641.53V1885.56C449.652 1891.31 451.941 1896.82 456.008 1900.89C460.074 1904.96 465.587 1907.25 471.339 1907.26H1601.64C1607.39 1907.25 1612.9 1904.96 1616.97 1900.9C1621.03 1896.83 1623.32 1891.32 1623.34 1885.57V1641.53C1623.34 1618.52 1632.48 1596.45 1648.75 1580.18C1665.02 1563.9 1687.09 1554.76 1710.11 1554.76C1758.02 1554.76 1796.88 1593.61 1796.88 1641.53V1885.56C1796.88 1993.21 1709.3 2080.78 1601.64 2080.78Z" fill="#63D2FF"/>
<path d="M1796.67 1641.53V1885.77C1796.67 1993.37 1709.45 2081 1601.43 2081H471.193C410.447 2081 355.78 2052.8 319.775 2008.98C348.715 2025.01 381.271 2033.37 414.353 2033.28H1544.59C1652.19 2033.28 1739.83 1945.64 1739.83 1838.05V1594.24C1739.83 1581.23 1737.22 1568.64 1732.01 1557.8C1750.56 1562.58 1766.99 1573.41 1778.7 1588.58C1790.41 1603.74 1796.73 1622.37 1796.67 1641.53V1641.53Z" fill="#41C1F4"/>
</g>
<defs>
<clipPath id="clip0_501_299">
<rect width="2073" height="2081" fill="white"/>
</clipPath>
</defs>
</svg>
